<svg xmlns="http://www.w3.org/2000/svg" xmlns:xlink="http://www.w3.org/1999/xlink" width="30.743" height="27.557" viewBox="0 0 30.743 27.557">
  <defs>
    <filter id="Icon_metro-profile" x="0" y="0" width="30.743" height="27.557" filterUnits="userSpaceOnUse">
      <feOffset dy="2" input="SourceAlpha"/>
      <feGaussianBlur stdDeviation="3" result="blur"/>
      <feFlood flood-opacity="0.161"/>
      <feComposite operator="in" in2="blur"/>
      <feComposite in="SourceGraphic"/>
    </filter>
  </defs>
  <g transform="matrix(1, 0, 0, 1, 0, 0)" filter="url(#Icon_metro-profile)">
    <path id="Icon_metro-profile-2" data-name="Icon metro-profile" d="M16.332,9.077h-.891V7.74L13.6,7.712l.01,1.365H8.083l.038-1.365-1.8.028V9.106l-.91-.028a.911.911,0,0,0-.91.91v6.372a.911.911,0,0,0,.91.91H16.332a.911.911,0,0,0,.91-.91V9.988A.911.911,0,0,0,16.332,9.077Zm-2.276-.91h.91v1.82h-.91Zm-5.916,3.1a1.185,1.185,0,0,1,1,1.308,1.185,1.185,0,0,1-1,1.308,1.185,1.185,0,0,1-1-1.308,1.185,1.185,0,0,1,1-1.308Zm-1.365-3.1h.91v1.82h-.91Zm-.607,7.258s.108-.866.353-1.029a3.49,3.49,0,0,1,.951-.272s.458.489.653.489.652-.489.652-.489a3.48,3.48,0,0,1,.952.272c.288.192.36,1.029.36,1.029H6.168Zm9.254-.431h-4.1v-.455h4.1Zm0-.91h-4.1v-.455h4.1Zm0-.91h-4.1v-.455h4.1Zm0-.91h-4.1v-.455h4.1Z" transform="translate(4.5 -0.71)" fill="#8a8a8a"/>
  </g>
</svg>
