<svg xmlns="http://www.w3.org/2000/svg" width="12.743" height="10.195" viewBox="0 0 12.743 10.195">
  <path id="Icon_awesome-chalkboard-teacher" data-name="Icon awesome-chalkboard-teacher" d="M4.141,7.009A.456.456,0,0,0,4,7.03a2.627,2.627,0,0,1-.815.138A2.629,2.629,0,0,1,2.37,7.03a.454.454,0,0,0-.14-.022A2.23,2.23,0,0,0,0,9.251a.953.953,0,0,0,.956.943h4.46a.953.953,0,0,0,.956-.943A2.23,2.23,0,0,0,4.141,7.009Zm-.956-.637A1.911,1.911,0,1,0,1.274,4.46,1.911,1.911,0,0,0,3.186,6.372ZM11.787,0H4.141a.973.973,0,0,0-.956.987v.924a2.52,2.52,0,0,1,1.274.354V1.274h7.009V7.009H10.195V5.734H7.646V7.009H6.128a2.538,2.538,0,0,1,.79,1.274h4.869a.973.973,0,0,0,.956-.987V.987A.973.973,0,0,0,11.787,0Z" transform="translate(0)" fill="#8d8d8d"/>
</svg>
