<svg xmlns="http://www.w3.org/2000/svg" viewBox="0 0 459.79 550">
  <defs>
    <style>
      .cls-1 {
        fill: #72716f;
      }

      .cls-2 {
        fill: #f2cb30;
      }

      .cls-3 {
        fill: #eab531;
      }

      .cls-4 {
        fill: #58595a;
      }

      .cls-5 {
        fill: #f7db5e;
      }

      .cls-6 {
        fill: #3e3d40;
      }
    </style>
  </defs>
  <g id="Layer_2" data-name="Layer 2">
    <g id="Object">
      <g>
        <g>
          <path class="cls-1" d="M391.43,309.2H346.78V161.54a116.89,116.89,0,1,0-233.77,0V309.2H68.36V161.54C68.36,72.47,140.82,0,229.89,0S391.43,72.47,391.43,161.54Z"/>
          <rect class="cls-2" y="239.13" width="459.79" height="310.87" rx="17.32"/>
        </g>
        <path class="cls-3" d="M459.79,532.68V363.43c-140.07,118.5-342,163-456.48,179.37a17.28,17.28,0,0,0,14,7.2H442.47A17.31,17.31,0,0,0,459.79,532.68Z"/>
        <path class="cls-4" d="M267.89,347.75a38,38,0,1,0-60.59,30.49l-12.09,85.92h69.37l-12.09-85.92A37.88,37.88,0,0,0,267.89,347.75Z"/>
        <path class="cls-5" d="M14.5,271.89v59.48c1.57-25.26,13.73-80.22,89.76-80.22h-69A20.8,20.8,0,0,0,14.5,271.89Z"/>
        <path class="cls-6" d="M195.21,464.16s51.48-14.55,57.28-85.92l12.09,85.92Z"/>
      </g>
    </g>
  </g>
</svg>
