<svg xmlns="http://www.w3.org/2000/svg" xmlns:xlink="http://www.w3.org/1999/xlink" viewBox="0 0 161.34 158.06">
  <defs>
    <style>
      .cls-1 {
        fill: #619a80;
      }

      .cls-2 {
        fill: none;
      }

      .cls-3 {
        clip-path: url(#clip-path);
      }

      .cls-4 {
        fill: #42735b;
      }

      .cls-5 {
        fill: #ec6a55;
      }

      .cls-6 {
        clip-path: url(#clip-path-2);
      }

      .cls-7 {
        fill: #c6b5af;
      }

      .cls-8 {
        fill: #87c2a8;
      }

      .cls-9 {
        fill: #fad0b8;
      }

      .cls-10 {
        fill: #4f667f;
      }

      .cls-11 {
        fill: #a36e4a;
      }

      .cls-12 {
        fill: #8ba2c2;
      }

      .cls-13 {
        fill: #f59e19;
      }

      .cls-14 {
        fill: #f5e6de;
      }

      .cls-15 {
        fill: #905f3a;
      }

      .cls-16 {
        clip-path: url(#clip-path-3);
      }

      .cls-17 {
        fill: #b13e32;
      }

      .cls-18 {
        fill: #bc7313;
      }

      .cls-19 {
        fill: #fbd1b9;
      }

      .cls-20, .cls-21 {
        fill: #a46e4a;
      }

      .cls-21 {
        opacity: 0.31;
      }

      .cls-22 {
        fill: #7a490e;
      }

      .cls-23 {
        fill: #fff;
      }

      .cls-24 {
        fill: #243544;
      }

      .cls-25 {
        fill: #cd7c1d;
      }
    </style>
    <clipPath id="clip-path">
      <path class="cls-1" d="M106.68,142c1.09,1.21,1.27,3,1.61,4.54s1,3.34,2.56,3.9c1.14.42,2.39.05,3.59-.07,3-.31,6,.94,8.93,1.56s6.56.37,8.35-2.08a2.48,2.48,0,0,0,.55-1.68c-.18-1.38-1.9-1.88-3.27-2.08-5.67-.87-11.68-2.55-15.21-7.06a26,26,0,0,1-3.22-6l-1.86-4.32Z"/>
    </clipPath>
    <clipPath id="clip-path-2">
      <path class="cls-1" d="M126.88,129.56c1.35.91,2,2.55,2.67,4s1.81,3,3.43,3.16c1.21.13,2.33-.53,3.47-.95,2.85-1,6-.54,9-.66s6.46-1.24,7.6-4.05a2.45,2.45,0,0,0,.12-1.76c-.51-1.3-2.29-1.36-3.68-1.23-5.7.55-11.94.38-16.47-3.13a26.11,26.11,0,0,1-4.58-5l-2.85-3.74Z"/>
    </clipPath>
    <clipPath id="clip-path-3">
      <path class="cls-2" d="M158.85,61.42a2.09,2.09,0,0,0-1.58-1.21,1.71,1.71,0,0,0-1,.18v-.76H145.81v5.26a2.72,2.72,0,0,0,2.72,2.72h5a2.72,2.72,0,0,0,2.72-2.72v-.84a1.83,1.83,0,0,0,1,.27,1.76,1.76,0,0,0,1.55-.94A2.25,2.25,0,0,0,158.85,61.42Zm-.77.77s0,0,0,0Zm-1.32-1ZM158,62.85s0,0,0,0Zm.08-.32a1.55,1.55,0,0,1-.07.31l0,.06a1.1,1.1,0,0,0-.09.14l0,.06s0,0-.05,0l0,0-.08.06s-.18.08-.06,0a1,1,0,0,1-.24.08h-.28l-.08,0-.16-.05c.11,0,0,0-.07,0l-.06,0h0l-.11-.11a.41.41,0,0,0-.05-.09.46.46,0,0,0-.29-.22v-.91a.43.43,0,0,0,.11-.2s0,0,0-.08l0-.05v0a.43.43,0,0,1,0-.07l0,0,0-.05.06,0h0l.16-.1h.07l.12,0h.23l.17,0,0,0,0,0,.18.1h0l.06,0a.86.86,0,0,1,.13.14l.06.06c0,.07.08.12.11.18l0,.07.06.16,0,.16h0a.28.28,0,0,1,0,.09v.16A.28.28,0,0,1,158.08,62.53Z"/>
    </clipPath>
  </defs>
  <g id="Layer_2" data-name="Layer 2">
    <g id="Ñëîé_1" data-name="Ñëîé 1">
      <g>
        <g>
          <path class="cls-1" d="M106.68,142c1.09,1.21,1.27,3,1.61,4.54s1,3.34,2.56,3.9c1.14.42,2.39.05,3.59-.07,3-.31,6,.94,8.93,1.56s6.56.37,8.35-2.08a2.48,2.48,0,0,0,.55-1.68c-.18-1.38-1.9-1.88-3.27-2.08-5.67-.87-11.68-2.55-15.21-7.06a26,26,0,0,1-3.22-6l-1.86-4.32Z"/>
          <g class="cls-3">
            <path class="cls-4" d="M108.13,141.72c1,1.25,1.18,2.94,1.9,4.33a4.26,4.26,0,0,0,1.67,1.77,12.8,12.8,0,0,0,2.76,1A75.49,75.49,0,0,0,127,151.28c1.13.13,2.28.27,3.42.29a3.25,3.25,0,0,0,2.53-.8c.21-.23-.12-.57-.34-.34a2.78,2.78,0,0,1-2.19.66c-1,0-2-.13-3-.24-2.07-.21-4.12-.52-6.16-.9s-4.06-.86-6.06-1.42a20.18,20.18,0,0,1-2.83-.89,3.77,3.77,0,0,1-1.82-1.57c-.89-1.49-1-3.31-2.14-4.69-.19-.24-.53.1-.33.34Z"/>
            <path class="cls-4" d="M109.36,139.33c.5.88,1,1.78,1.39,2.7s.71,1.71,1.11,2.54a5.06,5.06,0,0,0,1.59,2,8.09,8.09,0,0,0,2.3,1c1.9.58,3.83,1.08,5.76,1.53s3.94.88,5.93,1.24q3.38.6,6.78,1c.31,0,.31-.45,0-.48a109.56,109.56,0,0,1-11.79-2c-1.93-.45-3.85-.94-5.76-1.49a11.88,11.88,0,0,1-2.38-.86,4.29,4.29,0,0,1-1.77-1.71c-.49-.87-.82-1.83-1.23-2.74s-1-2-1.51-3a.24.24,0,0,0-.42.24Z"/>
            <path class="cls-4" d="M111.64,137.06a12.58,12.58,0,0,0,5.33,8.4,18.59,18.59,0,0,0,5.4,2.31c2.08.6,4.18,1.13,6.28,1.69l7.22,1.92a.24.24,0,0,0,.12-.46c-4.19-1.12-8.4-2.22-12.59-3.36a22.26,22.26,0,0,1-5.48-2.07,11.67,11.67,0,0,1-3.69-3.37,12,12,0,0,1-2.12-5.18c0-.31-.51-.18-.47.12Z"/>
            <path class="cls-5" d="M105.65,145.41a25.89,25.89,0,0,1,4.4-.29,10.77,10.77,0,0,1,2.89.38,6.88,6.88,0,0,1,4.62,5,4.82,4.82,0,0,1,.11,1.42,3.65,3.65,0,0,1-1.45,2.59,1.23,1.23,0,0,1-.65.28,1.51,1.51,0,0,1-.84-.26,94.71,94.71,0,0,1-8.42-5.1Z"/>
            <path class="cls-4" d="M112.5,136.1a58,58,0,0,0,3.33,5.15,16.33,16.33,0,0,0,4.06,3.49A26.74,26.74,0,0,0,131,148.17c2.41.28,4.83.37,7.25.46.31,0,.31-.47,0-.48a54.18,54.18,0,0,1-12.5-1.44,19,19,0,0,1-9.1-5.29,41.6,41.6,0,0,1-3.68-5.57c-.17-.25-.59,0-.42.25Z"/>
            <path class="cls-5" d="M128.26,153.84a10.73,10.73,0,0,1-1.45-5.08,7.75,7.75,0,0,1,1.66-5,1.37,1.37,0,0,1,.88-.58,1.64,1.64,0,0,1,.65.16l3.64,1.51a5.63,5.63,0,0,1,1.93,1.11,3.81,3.81,0,0,1,.13,4.69,10.86,10.86,0,0,1-6.87,3.6Z"/>
          </g>
        </g>
        <g>
          <path class="cls-1" d="M126.88,129.56c1.35.91,2,2.55,2.67,4s1.81,3,3.43,3.16c1.21.13,2.33-.53,3.47-.95,2.85-1,6-.54,9-.66s6.46-1.24,7.6-4.05a2.45,2.45,0,0,0,.12-1.76c-.51-1.3-2.29-1.36-3.68-1.23-5.7.55-11.94.38-16.47-3.13a26.11,26.11,0,0,1-4.58-5l-2.85-3.74Z"/>
          <g class="cls-6">
            <path class="cls-4" d="M128.23,129c1.23.93,1.82,2.45,2.8,3.61A4.43,4.43,0,0,0,133,134a10.88,10.88,0,0,0,3,.35,76.59,76.59,0,0,0,13-.67,32.18,32.18,0,0,0,3.38-.56,3.15,3.15,0,0,0,2.16-1.38c.15-.27-.26-.51-.41-.24a2.75,2.75,0,0,1-1.88,1.16c-.95.23-1.94.35-2.91.49-2.1.3-4.21.52-6.32.64s-4.22.16-6.33.1a16.35,16.35,0,0,1-3-.21,3.88,3.88,0,0,1-2.06-1.16c-1.14-1.23-1.73-2.87-3.09-3.91-.24-.18-.48.23-.24.42Z"/>
            <path class="cls-4" d="M128.85,126.37c.67.7,1.31,1.42,1.92,2.18s1.1,1.45,1.67,2.16a5.4,5.4,0,0,0,1.95,1.6,7.59,7.59,0,0,0,2.58.51c2,.11,4,.12,6,.09s4.05-.11,6.06-.24c2.29-.16,4.56-.39,6.83-.69a.25.25,0,0,0,.24-.24c0-.12-.11-.26-.24-.24a111,111,0,0,1-11.94.92q-3,.06-6,0a11.49,11.49,0,0,1-2.62-.28,4.25,4.25,0,0,1-2.13-1.3c-.68-.74-1.23-1.58-1.85-2.36s-1.37-1.64-2.11-2.41c-.22-.23-.56.11-.34.34Z"/>
            <path class="cls-4" d="M130.48,123.55a12.63,12.63,0,0,0,7,6.82,18.06,18.06,0,0,0,6,1c2.17.07,4.34.07,6.51.11l7.47.11a.24.24,0,0,0,0-.48c-4.31-.07-8.61-.12-12.92-.2a21.81,21.81,0,0,1-6.13-.73,11.84,11.84,0,0,1-4.25-2.35,12.12,12.12,0,0,1-3.25-4.41.24.24,0,0,0-.46.12Z"/>
            <path class="cls-5" d="M126.72,133.17a26,26,0,0,1,4.2-1.36,11,11,0,0,1,2.9-.33,6.86,6.86,0,0,1,5.69,3.7,4.83,4.83,0,0,1,.46,1.34,3.67,3.67,0,0,1-.78,2.87,1.27,1.27,0,0,1-.56.44,1.66,1.66,0,0,1-.88-.05,93,93,0,0,1-9.41-2.9Z"/>
            <path class="cls-4" d="M131.1,122.46c1.46,1.35,2.75,2.87,4.34,4.08A16.08,16.08,0,0,0,140.3,129a26.7,26.7,0,0,0,11.66.66c2.4-.33,4.76-.83,7.13-1.33.3-.06.17-.52-.13-.46a53.3,53.3,0,0,1-12.49,1.64,18.81,18.81,0,0,1-10.23-3,43.48,43.48,0,0,1-4.8-4.41c-.22-.21-.56.13-.34.34Z"/>
            <path class="cls-5" d="M150.71,135.83a10.59,10.59,0,0,1-2.65-4.58,7.69,7.69,0,0,1,.41-5.22,1.32,1.32,0,0,1,.71-.77,1.51,1.51,0,0,1,.67,0l3.89.58a5.72,5.72,0,0,1,2.15.61,3.8,3.8,0,0,1,1.27,4.51,8.65,8.65,0,0,1-3.27,3.8,8.56,8.56,0,0,1-2.52,1.36Z"/>
          </g>
        </g>
        <path class="cls-5" d="M31.69,66.25a25.33,25.33,0,0,0-1.88,22,27.7,27.7,0,0,0,15.81,15.58,39.5,39.5,0,0,0,8.09,2.05A58.57,58.57,0,0,0,76.13,105c3.91-.93,8-2.38,10.47-5.61,2.72-3.61,2.68-8.55,2.21-13a41.23,41.23,0,0,0-3.45-13.91C80.08,61.51,67.7,55.55,55.64,54.28a1.6,1.6,0,0,1-.29-.05,20.14,20.14,0,0,0-20.6,7.54C33.61,63.33,32.54,64.86,31.69,66.25Z"/>
        <path class="cls-5" d="M80.28,69.21a15.35,15.35,0,0,1,19.31,15.2,9.86,9.86,0,0,1-1.48,5.28,11.46,11.46,0,0,1-5.64,4,12.8,12.8,0,0,1-5.52,1A6.37,6.37,0,0,1,82.16,92a9.21,9.21,0,0,1-1.11-3,116.24,116.24,0,0,1-2.29-17Z"/>
        <path class="cls-7" d="M57.36,73.32c-.67,6.3.64,13.43,5.71,17.22A18.26,18.26,0,0,0,67.81,93c8.91,3.2,25,5,34.33,3.67,1.89,6.54,22.55,35,22.62,35.13,1.47-.94,12.29-8.34,13.76-9.28-5.58-11.38-22.7-30.36-25-35.26-.48-1-29.33-12.9-36.84-14.62a6.57,6.57,0,0,0-2.06-.24,7.76,7.76,0,0,0-2.07.69A22.78,22.78,0,0,1,61,74.73Z"/>
        <path class="cls-7" d="M48.65,75.62c-1.33,6.19-1.4,12.47,3.24,16.77a18,18,0,0,0,4.46,2.89c8.52,4.13,26,6,30.32,11.19s11.35,34.18,17,38.06c1.55-.78,13.67-8.17,15.23-8.94-4.35-11.91-14.67-36.07-16.4-41.18C102.08,93.32,74.64,78.48,67.36,76a6.49,6.49,0,0,0-2-.45,7.14,7.14,0,0,0-2.13.47,22.88,22.88,0,0,1-11.7.45Z"/>
        <rect class="cls-8" x="56.57" y="105.62" width="3.32" height="28.8"/>
        <path class="cls-9" d="M97.54,41.71c-.35-1-6.63-23.9-7-24.88a27.76,27.76,0,0,0-2.87.55c-.65,0-1.65-1.21-2-2.19a2,2,0,0,1-.08-1.55c.24-.49,1-.75,1.37-.34-.39-.64-1.62-3-1.4-3.74S87,8.39,87.38,9c-.37-.61.32-1.47,1.08-1.52A1.9,1.9,0,0,1,90.2,8.62c-.07-.58.81-.95,1.36-.7a2.32,2.32,0,0,1,1,1.39h0a.92.92,0,0,1,1.6,0c1.46,2.93,10.17,23.68,11.57,26.39a.92.92,0,0,1,.15.55,1,1,0,0,1-.38.54c-2.37,2.08-3.67,4.34-6.29,2.8Z"/>
        <path class="cls-10" d="M69.44,27.81c8.44.78,25.34,9,25.34,9-.31-.49-1.08-5.76-2-9.21,1.75-1.06,7.93-4.57,8.18-4.49s5.2,11.89,5.58,13.61c.5,2.25-1.29,7-2.86,8.84-3.59,4.31-20.7,3.77-25.29.05C78,45.27,70,39.09,69.9,35.89Z"/>
        <path class="cls-11" d="M85.65,11a4.38,4.38,0,0,0,2.43,3.17A.29.29,0,0,0,88.5,14,4.51,4.51,0,0,0,88,10.33a.29.29,0,0,0-.52.22,8.12,8.12,0,0,0,1,2.1,8.28,8.28,0,0,0,.67.89,1.2,1.2,0,0,0,.82.55c.75,0,.82-1,.82-1.52a4.39,4.39,0,0,0-.6-2.21c-.16-.27-.64-.09-.52.22.23.61.45,1.24.71,1.83a1.05,1.05,0,0,0,1.17.71,1.28,1.28,0,0,0,.9-1,2.7,2.7,0,0,0-.5-1.71c-.19-.33-.64,0-.49.29.23.55.44,1.12.72,1.65a1.41,1.41,0,0,0,1,.85,1.22,1.22,0,0,0,1.15-.64,2.61,2.61,0,0,0,.18-1.68c0-.36-.62-.36-.57,0a2.53,2.53,0,0,1-.05,1.31c-.14.29-.47.56-.8.4s-.46-.55-.59-.84c-.2-.44-.39-.89-.58-1.34l-.49.29a2.31,2.31,0,0,1,.44,1.26.67.67,0,0,1-.55.63c-.35,0-.49-.5-.59-.75l-.54-1.39-.52.22a3.8,3.8,0,0,1,.52,1.68,3.55,3.55,0,0,1-.05.86c0,.23-.13.43-.36.23a5.32,5.32,0,0,1-1-1.4A7.25,7.25,0,0,1,88,10.4l-.52.22A4,4,0,0,1,88,13.85l.42-.17a3.81,3.81,0,0,1-2.16-2.83c-.07-.36-.62-.21-.56.15Z"/>
        <path class="cls-11" d="M86.48,13.66A13.13,13.13,0,0,1,89.71,15s0,0,0,0,0,.05,0,.07a.52.52,0,0,1-.25.14,3.33,3.33,0,0,1-.83.12,4.37,4.37,0,0,1-1.72-.27c-.35-.12-.5.43-.15.55a5,5,0,0,0,1.62.3,6,6,0,0,0,.85-.07,1.75,1.75,0,0,0,.71-.23.79.79,0,0,0,.38-.53A.63.63,0,0,0,90,14.5a10.87,10.87,0,0,0-1.49-.74,15.33,15.33,0,0,0-1.83-.65.29.29,0,0,0-.15.55Z"/>
        <path class="cls-11" d="M90.37,14.8a1.7,1.7,0,0,1,1.06.23,1.79,1.79,0,0,1,.74.8.29.29,0,1,0,.5-.28,2.4,2.4,0,0,0-2.3-1.32.29.29,0,1,0,0,.57Z"/>
        <path class="cls-11" d="M93,13.81a2,2,0,0,0,0,1.81.28.28,0,0,0,.39.1.3.3,0,0,0,.1-.39h0l0,0,0-.1a1,1,0,0,1,0-.17s0-.12,0,0a.17.17,0,0,1,0-.07,1.21,1.21,0,0,1,0-.19.25.25,0,0,0,0-.08s0-.12,0-.05a3.2,3.2,0,0,1,.09-.34l0-.05h0l0-.09a.28.28,0,0,0-.49-.29Z"/>
        <path class="cls-10" d="M81.43,73.38c0,.28-5.72,6.89-10,4.79-1.79-2.76-1.61-10-2.57-13.27-.47-1.6,3.42-2.36,3.27-4-.51-5.74,2-11.33,1.95-17.1,0-.53-9.93-11.42-9.71-11.89s9.43,2.54,16.75,12.72C81.11,44.6,81.41,73.13,81.43,73.38Z"/>
        <path class="cls-1" d="M17.42,47.7c-.63-2.22-1.25-4.43-1.88-6.64a3.46,3.46,0,0,1,0-2.66c.46-.79,1.94-.87,2.12,0a13.18,13.18,0,0,1-1.14-8.62c.26-1.26,1.17-2.75,2.42-2.45A2.36,2.36,0,0,1,20.3,28.8,9.67,9.67,0,0,1,21.18,32a5,5,0,0,1,1.53-3.55A1.81,1.81,0,0,1,24,27.83c1.12.06,1.39,1.58,1.28,2.69a29.42,29.42,0,0,1-1.66,7.17c.91-.22,1.49,1,1.56,1.91a13.87,13.87,0,0,1-1.92,7.54,41.72,41.72,0,0,1-4.64,6.36Z"/>
        <path class="cls-8" d="M16,55.2c-.44-2.56-4.42-2.93-5.37-5.35a1.26,1.26,0,0,1-.11-.74,1.28,1.28,0,0,1,1.28-.93,3.67,3.67,0,0,1,1.62.49,15.25,15.25,0,0,1-4-5.06,2.33,2.33,0,0,1-.14-2c.35-.61,1.49-.67,1.65,0a9.28,9.28,0,0,1-2.43-7.81,2.06,2.06,0,0,1,.35-.94c.58-.72,1.76-.45,2.52.09,2,1.46,2.72,4.11,3.29,6.54a3.6,3.6,0,0,1,.5-1.51,1.25,1.25,0,0,1,1.4-.52c.6.25.75,1,.8,1.68a47.24,47.24,0,0,1,.06,5.83c-.18-.78,1-1.25,1.66-.78a2.65,2.65,0,0,1,.77,2.17,16.17,16.17,0,0,1-.73,5.07,2.37,2.37,0,0,1,1.36,2.67A6.86,6.86,0,0,1,19,56.94Z"/>
        <path class="cls-8" d="M19.39,54.46a24.51,24.51,0,0,1,1.76-5.91c.16-.34.44-.75.8-.66.18,0,.33.2.51.18s.33-.29.38-.52a11.78,11.78,0,0,1,1.7-4.18A5.56,5.56,0,0,1,28.25,41a1.34,1.34,0,0,1,1.3.38,1.46,1.46,0,0,1,.12,1.09A11.68,11.68,0,0,1,28,46.75c.38-.57,1.35-.33,1.66.27a2.43,2.43,0,0,1-.11,2c-1.44,3.58-5.05,5.74-8.49,7.47Z"/>
        <path class="cls-10" d="M63,32c-3.22.69-5.73,3.36-7.06,6.37s.72,5.2.44,8.48c-.88,10.54,2.86,20.09-.18,32.54-.09.38.27.75.59,1a1.94,1.94,0,0,0,1,.22c8.32,0,26.64-1.27,23.53-7.15l-4.38-9a6,6,0,0,1-.63-1.76,5.93,5.93,0,0,1,.34-2.46c.87-3.06,1.75-6.13,2.62-9.2A11.75,11.75,0,0,0,80,46.47a11.92,11.92,0,0,0-1.68-4.24c-1-1.83-2-3.66-3-5.5a15.14,15.14,0,0,0-3.63-4.84c-1.62-1.23-4-1.72-5.68-.6Z"/>
        <rect class="cls-1" x="55.08" y="132.43" width="6.3" height="10.82" rx="2.57"/>
        <path class="cls-12" d="M135,67.7H103l7.2-20.52a3.87,3.87,0,0,1,3.65-2.59h26.53A3.87,3.87,0,0,1,144,49.74l-5.4,15.37A3.86,3.86,0,0,1,135,67.7Z"/>
        <rect class="cls-12" x="84.99" y="66.48" width="21.62" height="1.22"/>
        <path class="cls-13" d="M157,61.15h0Z"/>
        <path class="cls-13" d="M158.85,61.42a2.09,2.09,0,0,0-1.58-1.21,1.71,1.71,0,0,0-1,.18v-.76H145.81v5.26a2.72,2.72,0,0,0,2.72,2.72h5a2.72,2.72,0,0,0,2.72-2.72v-.84a1.83,1.83,0,0,0,1,.27,1.76,1.76,0,0,0,1.55-.94A2.25,2.25,0,0,0,158.85,61.42Zm-.77.77s0,0,0,0Zm-1.32-1ZM158,62.85s0,0,0,0Zm.08-.32a1.55,1.55,0,0,1-.07.31l0,.06a1.1,1.1,0,0,0-.09.14l0,.06s0,0-.05,0l0,0-.08.06s-.18.08-.06,0a1,1,0,0,1-.24.08h-.28l-.08,0-.16-.05c.11,0,0,0-.07,0l-.06,0h0l-.11-.11a.41.41,0,0,0-.05-.09.46.46,0,0,0-.29-.22v-.91a.43.43,0,0,0,.11-.2s0,0,0-.08l0-.05v0a.43.43,0,0,1,0-.07l0,0,0-.05.06,0h0l.16-.1h.07l.12,0h.23l.17,0,0,0,0,0,.18.1h0l.06,0a.86.86,0,0,1,.13.14l.06.06c0,.07.08.12.11.18l0,.07.06.16,0,.16h0a.28.28,0,0,1,0,.09v.16A.28.28,0,0,1,158.08,62.53Z"/>
        <path class="cls-5" d="M157.66,67.74H144.72a1.36,1.36,0,0,1-1.36-1.36H159A1.36,1.36,0,0,1,157.66,67.74Z"/>
        <circle class="cls-14" cx="125.76" cy="56.19" r="2.16"/>
        <path class="cls-15" d="M1.31,158c-.83,0-1.45-1-1.28-2.05L13,72.89h4L2.59,156.62A1.45,1.45,0,0,1,1.31,158Z"/>
        <path class="cls-15" d="M159.76,158a1.68,1.68,0,0,0,1.55-2.05l-15.6-83h-4.8l17.31,83.73A1.6,1.6,0,0,0,159.76,158Z"/>
        <path class="cls-5" d="M33.16,79.71a33.66,33.66,0,0,1,23.51,1.87,18.24,18.24,0,0,1,5.75,4,17.5,17.5,0,0,1,4.11,10.36,7.52,7.52,0,0,1-.6,4.41c-1.16,2.07-3.76,2.8-6.11,3A29.09,29.09,0,0,1,33.54,91.53,12.07,12.07,0,0,1,30.94,85c-.06-2.38,1.27-4.92,3.54-5.65Z"/>
        <path class="cls-1" d="M13.45,43.09a78.89,78.89,0,0,0,3.33,9.08c.37.83.75,1.66,1.14,2.47.14.28.55,0,.42-.24a76.14,76.14,0,0,1-3.6-8.84c-.29-.86-.57-1.72-.82-2.59-.09-.3-.56-.17-.47.12Z"/>
        <path class="cls-1" d="M11.49,43.66A23.51,23.51,0,0,0,15,47.38c.23.21.57-.13.34-.33a23.83,23.83,0,0,1-3.4-3.63c-.18-.25-.6,0-.41.24Z"/>
        <path class="cls-1" d="M16.45,49.24a20.61,20.61,0,0,0,.41-3.76.24.24,0,0,0-.48,0A20.06,20.06,0,0,1,16,49.11c-.06.31.4.43.46.13Z"/>
        <path class="cls-1" d="M20.74,55.73a66.49,66.49,0,0,0,5.37-7.93c.15-.27-.26-.51-.41-.24a68,68,0,0,1-5.29,7.83c-.19.24.14.59.33.34Z"/>
        <path class="cls-1" d="M23.72,47.69v2.69a.24.24,0,0,0,.48,0V47.69a.24.24,0,0,0-.48,0Z"/>
        <path class="cls-1" d="M22.84,52.77l3.74-2.34c.26-.16,0-.58-.24-.42L22.6,52.35a.24.24,0,0,0,.24.42Z"/>
        <rect class="cls-13" x="12.46" y="53.75" width="13.3" height="4.9" rx="2"/>
        <polygon class="cls-13" points="23.83 58.3 14.38 58.3 16.13 66.7 22.08 66.7 23.83 58.3"/>
        <path class="cls-15" d="M14.65,59H23a.24.24,0,0,0,0-.48H14.65a.24.24,0,0,0,0,.48Z"/>
        <path class="cls-15" d="M25.58,67.74H12.64a1.36,1.36,0,0,1-1.36-1.36H26.94A1.36,1.36,0,0,1,25.58,67.74Z"/>
        <path class="cls-10" d="M63.8,36.76c-.14-.31,2.24-5.12-.16-6.4A48.47,48.47,0,0,0,55.55,33c-4.86,2.34-5.13,13.93-5.5,17.37-1,8.95-2.35,27.3-2.24,27.34,6.28,2.25,10.2,4.24,13.08,2.73A117.53,117.53,0,0,1,63.34,65C64.76,59.2,70.36,51,63.8,36.76Z"/>
        <path class="cls-14" d="M150.86,58.68a3.09,3.09,0,0,0,.53-2.24,1.85,1.85,0,0,0-.47-.61c-1.22-1.13-2.94-2-3.3-3.61a1,1,0,0,1,0-.55,1,1,0,0,1,1.18-.49,2.7,2.7,0,0,1,1.11.85c-1.21-2-2.19-4.39-1.59-6.65.11-.4.35-.86.77-.88a1,1,0,0,1,.56.2c1.69,1.12,2.23,3.32,2.63,5.31a2.83,2.83,0,0,1,.81-2.83,1.11,1.11,0,0,1,.76-.34c.58,0,.86.72.93,1.3a7.17,7.17,0,0,1-.52,3.72c.25-.56.71-1.23,1.31-1.1s.74,1,.62,1.65A9,9,0,0,1,152.7,58a3,3,0,0,1-1.81.71Z"/>
        <g class="cls-16">
          <path class="cls-14" d="M145.24,64.09l1.62-1.42a2,2,0,0,1,.16-.14c.08,0,.07,0,.14,0s.22.22.32.33a7,7,0,0,1,.62.79.24.24,0,0,0,.37,0l1.47-1.23c.11-.09.18-.16.3,0l.27.34.59.75a.23.23,0,0,0,.29,0,16.26,16.26,0,0,0,1.6-1.39h-.34a4,4,0,0,1,.84,1.39.24.24,0,0,0,.4.1l1.68-1.38-.38-.05,1.13,1.51c.19.24.6,0,.42-.24L155.6,62a.24.24,0,0,0-.37-.05l-1.67,1.39.4.1a4.77,4.77,0,0,0-1-1.6.25.25,0,0,0-.34,0,14.36,14.36,0,0,1-1.5,1.31l.29,0-.71-.9c-.21-.26-.45-.51-.82-.36a1.85,1.85,0,0,0-.4.29l-.45.38-.93.78.38,0a7.37,7.37,0,0,0-.74-.93c-.23-.25-.52-.59-.89-.42a1.87,1.87,0,0,0-.42.32l-.51.45-1,.93c-.23.2.11.54.34.33Z"/>
          <path class="cls-14" d="M147,64.91a.24.24,0,0,0,0-.48.24.24,0,0,0,0,.48Z"/>
          <path class="cls-14" d="M148.51,61.85a.24.24,0,0,0,0-.48.24.24,0,0,0,0,.48Z"/>
          <path class="cls-14" d="M150.1,64.91a.24.24,0,0,0,0-.48.24.24,0,0,0,0,.48Z"/>
          <path class="cls-14" d="M151.94,61.73v-.12a.16.16,0,0,0,0-.09.12.12,0,0,0,0-.08l-.08,0-.09,0h-.07a.21.21,0,0,0-.1.06l0,.05a.27.27,0,0,0,0,.12v.12a.09.09,0,0,0,0,.09.14.14,0,0,0,.05.08.12.12,0,0,0,.07.05.16.16,0,0,0,.1,0h.06a.24.24,0,0,0,.11-.06l0,0a.21.21,0,0,0,0-.12Z"/>
          <path class="cls-14" d="M152.68,65a.24.24,0,0,0,0-.48.24.24,0,0,0,0,.48Z"/>
          <path class="cls-14" d="M154.39,61.85h.12l.1,0,.07,0a.14.14,0,0,0,0-.08.15.15,0,0,0,0-.09v-.06a.24.24,0,0,0-.06-.11l-.05,0a.21.21,0,0,0-.12,0h-.12l-.09,0-.08,0a.22.22,0,0,0-.05.08.29.29,0,0,0,0,.09v.06a.24.24,0,0,0,.06.11l.05,0a.27.27,0,0,0,.12,0Z"/>
          <path class="cls-13" d="M157,61.15h0Z"/>
        </g>
        <path class="cls-13" d="M38.57,153.42l-.37-.52a6.35,6.35,0,0,1-.59-4.64c.29-1.7,1.09-3.84,2.44-4.78.27-.19.85-.59,6.58-.77,3.89-.13,8.61-.11,11.87-.07,4.07.05,8.32.16,11.68.3,5.45.23,5.76.4,5.95.51,3.39,2,2.92,7.36,2.77,9.13l-.06.64-1.27-.11.05-.63c.37-4.25-.31-6.83-2.09-7.89-.9-.23-8.54-.57-17.26-.67-11.89-.14-16.86.24-17.5.62a6.52,6.52,0,0,0-1.9,3.93,5.42,5.42,0,0,0,.37,3.69l.37.52Z"/>
        <path class="cls-13" d="M46,153.37l-.25-.59c-1-2.17-.28-7.58,1.13-9.2.33-.37,1.11-.73,4.61-.89,2.77-.13,6.84-.1,10.9.08,6.44.28,6.78.6,7,.77,1.85,1.76,1.85,6,1.69,9l0,.64-1.28-.06,0-.64c.22-4.2-.19-6.88-1.22-8a85.42,85.42,0,0,0-10.29-.62c-7.35-.14-10,.26-10.42.53-1,1.18-1.7,6-.91,7.83l.25.58Z"/>
        <path class="cls-15" d="M73.41,154.57a3.49,3.49,0,1,1-3.48-3.48A3.48,3.48,0,0,1,73.41,154.57Z"/>
        <path class="cls-15" d="M82.16,154.57a3.49,3.49,0,1,1-3.48-3.48A3.48,3.48,0,0,1,82.16,154.57Z"/>
        <path class="cls-15" d="M50.87,154.57a3.49,3.49,0,1,1-3.49-3.48A3.49,3.49,0,0,1,50.87,154.57Z"/>
        <path class="cls-15" d="M42.15,154.57a3.49,3.49,0,1,1-3.49-3.48A3.49,3.49,0,0,1,42.15,154.57Z"/>
        <path class="cls-17" d="M66.1,99.26v2.94a.24.24,0,0,0,.48,0V99.26a.24.24,0,0,0-.48,0Z"/>
        <path class="cls-17" d="M40.19,95.76a11.91,11.91,0,0,0,3.27,2.68A.24.24,0,0,0,43.7,98a11.67,11.67,0,0,1-3.17-2.6c-.2-.23-.54.11-.34.34Z"/>
        <path class="cls-17" d="M42.87,95.7a4.92,4.92,0,0,0,1.52,1.35.24.24,0,0,0,.33-.09.24.24,0,0,0-.08-.32l-.4-.25-.09-.07-.06,0h0l-.18-.15a3.34,3.34,0,0,1-.33-.32l-.16-.18-.07-.09s0,0,0,0l0-.05a.24.24,0,0,0-.33-.09.24.24,0,0,0-.08.33Z"/>
        <path class="cls-17" d="M46.84,99l1.51.91a.24.24,0,0,0,.33-.09.25.25,0,0,0-.08-.33l-1.52-.9a.23.23,0,0,0-.32.08.24.24,0,0,0,.08.33Z"/>
        <path class="cls-17" d="M45.78,94.49a2,2,0,0,0,1.45.8.24.24,0,0,0,0-.48h0s0,0,0,0,0,0,0,0h0l-.17,0-.16,0,0,0-.08,0-.14-.09-.07,0,0,0a.49.49,0,0,1-.13-.12l-.06-.06,0,0s-.05-.06,0,0a.26.26,0,0,0-.33-.09.25.25,0,0,0-.09.33Z"/>
        <path class="cls-17" d="M37.74,90.62l1,1a.24.24,0,0,0,.34,0,.25.25,0,0,0,0-.34l-1-1a.24.24,0,1,0-.34.34Z"/>
        <path class="cls-17" d="M37.62,61.73,39,60.18a.24.24,0,0,0,0-.34.26.26,0,0,0-.34,0l-1.39,1.55a.24.24,0,0,0,.34.34Z"/>
        <path class="cls-17" d="M39.62,61.67c.08-.17.17-.33.25-.49a.25.25,0,0,0-.09-.33.22.22,0,0,0-.18,0,.21.21,0,0,0-.15.11l-.24.49a.28.28,0,0,0,0,.18.23.23,0,0,0,.11.14.23.23,0,0,0,.33-.08Z"/>
        <path class="cls-17" d="M39.81,63.66l.73-.73a.24.24,0,0,0,0-.34.25.25,0,0,0-.34,0l-.73.74a.23.23,0,0,0,0,.33.24.24,0,0,0,.34,0Z"/>
        <path class="cls-17" d="M42.67,57.54c.25-.16.49-.33.73-.5a.26.26,0,0,0,.11-.14.22.22,0,0,0,0-.18.24.24,0,0,0-.33-.09l-.73.5a.3.3,0,0,0-.11.14.25.25,0,0,0,0,.19.24.24,0,0,0,.33.08Z"/>
        <path class="cls-5" d="M34.48,95.76a5.63,5.63,0,0,0-.21,2.58.25.25,0,0,0,.3.17.27.27,0,0,0,.17-.3,5.11,5.11,0,0,1,.2-2.33c.1-.29-.36-.42-.46-.12Z"/>
        <path class="cls-5" d="M36,97.3v2.2a.24.24,0,0,0,.48,0V97.3a.24.24,0,0,0-.48,0Z"/>
        <path class="cls-5" d="M49.47,105l.48,1.23a.24.24,0,0,0,.3.16.23.23,0,0,0,.16-.29l-.48-1.23a.26.26,0,0,0-.3-.17.24.24,0,0,0-.16.3Z"/>
        <path class="cls-5" d="M50.84,105c.12.48.25,1,.37,1.43a.26.26,0,0,0,.3.17.26.26,0,0,0,.17-.3l-.38-1.43a.24.24,0,1,0-.46.13Z"/>
        <path class="cls-13" d="M73.41,154.45v0a3.49,3.49,0,0,0-7,0v0Z"/>
        <path class="cls-13" d="M82.16,154.61v0a3.49,3.49,0,0,0-7,0v0Z"/>
        <path class="cls-13" d="M50.87,154.61v0a3.49,3.49,0,0,0-7,0v0Z"/>
        <path class="cls-13" d="M42.23,154.45v0a3.48,3.48,0,0,0-7,0v0Z"/>
        <path class="cls-10" d="M140.92,46.07a3,3,0,0,1,.6,4.43c-.21.22.13.56.34.34a3.47,3.47,0,0,0-.69-5.18.24.24,0,0,0-.25.41Z"/>
        <path class="cls-10" d="M109.45,66.67h19.11a.24.24,0,0,0,0-.48H109.45a.24.24,0,0,0,0,.48Z"/>
        <path class="cls-9" d="M37.42,26.93a25.52,25.52,0,0,1,2.9-.21c.62-.17,1.28-1.56,1.37-2.57a1.88,1.88,0,0,0-.31-1.48c-.36-.4-1.2-.45-1.41,0,.21-.71.79-3.25.39-3.89s-1.68-.75-1.88,0c.2-.66-.68-1.31-1.43-1.16a1.88,1.88,0,0,0-1.39,1.48c-.08-.56-1-.69-1.49-.31a2.28,2.28,0,0,0-.62,1.57h0A.93.93,0,0,0,32,20.7c-.66,3.14-3.8,22.73-4.45,25.63a.86.86,0,0,0,0,.57,1,1,0,0,0,.5.41c2.82,1.36,6.43,3.26,8.56,1.15C36.6,48.46,37.33,27.93,37.42,26.93Z"/>
        <path class="cls-10" d="M59.91,31.32C48.65,33.25,39.22,44.76,39.22,44.76c.17-.56-2-6.09-1-8.79-2-.58-9.79,1.29-10,1.44S27,47.79,27,49.55c.09,2.3,1.71,6.26,3.75,7.67,4.68,3.24,23.52-6.09,27.07-10.86.27-.37,4.49-4,3.74-7.12Z"/>
        <path class="cls-11" d="M40.08,20.19a3.68,3.68,0,0,1-1.35,3.2l.43.06a3.8,3.8,0,0,1-.41-3.15l-.55-.07A6.85,6.85,0,0,1,37.94,22a6,6,0,0,1-.29.84,3.2,3.2,0,0,1-.37.74c-.31.41-.61-.77-.65-1a3.7,3.7,0,0,1,.06-1.72l-.54-.08L36,22.24c0,.28,0,.83-.43.86a.7.7,0,0,1-.64-.44A2.1,2.1,0,0,1,35,21.33l-.54-.15c-.07.49-.14,1-.22,1.45a1.49,1.49,0,0,1-.35.91.66.66,0,0,1-.88-.18,2.28,2.28,0,0,1-.38-1.22c0-.36-.59-.21-.54.14a2.57,2.57,0,0,0,.55,1.49,1.25,1.25,0,0,0,1.32.36,1.33,1.33,0,0,0,.75-1A18,18,0,0,0,35,21.33c.05-.34-.44-.5-.54-.15a2.54,2.54,0,0,0,0,1.8,1.28,1.28,0,0,0,1.07.68,1,1,0,0,0,.95-.89c.13-.65.16-1.33.23-2,0-.32-.46-.37-.54-.07a4.15,4.15,0,0,0,0,2.21c.13.52.47,1.46,1.18,1.25a1.08,1.08,0,0,0,.6-.62,9.53,9.53,0,0,0,.44-1,7.76,7.76,0,0,0,.4-2.29.28.28,0,0,0-.55-.08,4.34,4.34,0,0,0,.47,3.58.29.29,0,0,0,.44.06,4.19,4.19,0,0,0,1.52-3.6c0-.36-.59-.36-.56,0Z"/>
        <path class="cls-11" d="M40.25,22.43a15,15,0,0,0-2.72,2,.75.75,0,0,0-.33.69.67.67,0,0,0,.4.45,2.37,2.37,0,0,0,1.49,0,5,5,0,0,0,1.7-.74c.29-.2,0-.68-.28-.48a4.44,4.44,0,0,1-1.22.59,3.15,3.15,0,0,1-1.25.19c-.08,0-.29-.05-.3-.12s0,0,0,0l.07-.09.27-.25a12.82,12.82,0,0,1,1.07-.88,13.46,13.46,0,0,1,1.37-.9.28.28,0,0,0-.28-.48Z"/>
        <path class="cls-11" d="M36.93,24.42a2.35,2.35,0,0,0-1.87,1.82.28.28,0,0,0,.54.15c0-.1,0-.2.08-.3l0-.06s0,0,0,0a.52.52,0,0,1,.06-.13l.07-.12,0-.06,0-.05,0,0,0-.06.1-.1.11-.1.05-.05s0,0,0,0a1.91,1.91,0,0,1,.27-.16l.13-.07c-.06,0,0,0,0,0l.07,0a1.63,1.63,0,0,1,.3-.07.28.28,0,1,0-.15-.54Z"/>
        <path class="cls-11" d="M33.91,25.08l.06.07,0,0h0l.1.15c0,.05,0,.1.08.16s0,0,0,0a.38.38,0,0,1,0,.1,1.09,1.09,0,0,1,.05.17v.05h0s0,0,0,0v.05a1,1,0,0,1,0,.17.28.28,0,0,0,0,.09s0,.06,0,0,0,0,0,0a.28.28,0,0,0,.54.15,2,2,0,0,0-.5-1.69.28.28,0,0,0-.4,0,.29.29,0,0,0,0,.39Z"/>
        <path class="cls-17" d="M31.58,79.53a36.28,36.28,0,0,1,7.61-1c.31,0,.31-.49,0-.48a36.86,36.86,0,0,0-7.74,1c-.3.07-.17.53.13.46Z"/>
        <path class="cls-17" d="M62.22,86A13.68,13.68,0,0,1,65,89.89c.13.28.54,0,.41-.24a13.68,13.68,0,0,0-2.82-4c-.22-.21-.56.12-.33.34Z"/>
        <path class="cls-17" d="M94.56,74.75a8.78,8.78,0,0,1,1.25,2.08.24.24,0,0,0,.33.09.24.24,0,0,0,.08-.33,9.13,9.13,0,0,0-1.32-2.18.24.24,0,0,0-.34,0,.25.25,0,0,0,0,.34Z"/>
        <path class="cls-18" d="M59.82,25.73a5.39,5.39,0,0,0,3.52,3,28.12,28.12,0,0,0-.48-3.89Z"/>
        <path class="cls-19" d="M71.06,8Q73.7,14,76.36,19.88a7,7,0,0,1,.85,3.33,5.2,5.2,0,0,1-3,3.79c-1.46.8-.83.46-2.31,1.25a23.39,23.39,0,0,1,1,3.58c.47,2-2.43,4.5-4.48,5H68.4a3.75,3.75,0,0,1-4.47-2.92c-.52-2.57-.94-5.25-1.49-7.68-.58.41-3.69,1.32-4.12-2.81-.12-1.14.84-2.42,2-2.18Q59.64,17.6,59,14a1.3,1.3,0,0,1,0-.62,1.32,1.32,0,0,1,.54-.63c3.07-2.3,6-6.63,9.73-7.7Z"/>
        <path class="cls-20" d="M59.73,23.61A4.32,4.32,0,0,1,61.49,25a.24.24,0,1,0,.41-.25A4.9,4.9,0,0,0,60,23.18a.24.24,0,0,0-.23.43Z"/>
        <path class="cls-20" d="M60.51,24.88l0,0h0l0,0,.08-.09.15-.15,0,0,0,0,0,0,.09-.06.2-.11a.24.24,0,0,0,.11-.15.28.28,0,0,0,0-.18.24.24,0,0,0-.15-.11.29.29,0,0,0-.18,0,2,2,0,0,0-.78.68.23.23,0,0,0,.1.32.24.24,0,0,0,.32-.1Z"/>
        <polygon class="cls-21" points="71.94 28.25 67.72 29.77 72.56 30.02 71.94 28.25"/>
        <path class="cls-18" d="M71.86,0A2.93,2.93,0,0,0,70,.43a13.14,13.14,0,0,0-4.83,4.08c.09-.8.76-1.65.3-2.29a1,1,0,0,0-.88-.35,2.35,2.35,0,0,0-1.34.81,20.6,20.6,0,0,0-4.38,6.67c-.25-.49-.17-1.23-.68-1.47a.7.7,0,0,0-.9.29,1.92,1.92,0,0,0,0,1.7,1.57,1.57,0,0,0-2.16.85,1.57,1.57,0,0,0,1.27,1.95,32.26,32.26,0,0,0,2,10l.14-.25a1.46,1.46,0,0,1,2.45,0c.33.5.65,1,.95,1.52a1,1,0,0,0,.55-.2l-2.25-8.34A69.61,69.61,0,0,0,69,11a14.66,14.66,0,0,0,2.7-1.78A10.75,10.75,0,0,0,74.13,5.8a1.13,1.13,0,0,0,0-1.29,1.15,1.15,0,0,0-.92-.41c-.92,0-1.58.71-2.41,1a9.85,9.85,0,0,0,1.82-3A1.42,1.42,0,0,0,72.48.36,1.32,1.32,0,0,0,71.86,0Z"/>
        <path class="cls-20" d="M68.91,17.5a12.35,12.35,0,0,1,3.25,4.11l.23-.31-1.83-.18c-.3,0-.29.45,0,.48l1.82.18a.24.24,0,0,0,.23-.31,12.81,12.81,0,0,0-3.38-4.32.24.24,0,0,0-.33.35Z"/>
        <path class="cls-18" d="M69.28,14.27c.28-.44.64-.92,1.16-.92a1.77,1.77,0,0,1,.4.08l3.06.86a6.89,6.89,0,0,1-1.74.47,3.28,3.28,0,0,1-2.93-.49Z"/>
        <path class="cls-18" d="M66.12,14.64a1.56,1.56,0,0,0-1.48.16,1.86,1.86,0,0,0-.23.32l-1.59,2.76A7.16,7.16,0,0,0,64.39,17c.85-.59,1.76-1.36,1.76-2.4Z"/>
        <path class="cls-22" d="M60,13.25a4.77,4.77,0,0,0,2,.16,3,3,0,0,0,1.59-.6,1,1,0,0,0,.19-1.33,1.86,1.86,0,0,0-1.67-.54.24.24,0,0,0-.2.36c.23.54.91.63,1.44.61a4.93,4.93,0,0,0,2-.51,4.46,4.46,0,0,0,.86-.54,1.21,1.21,0,0,0,.58-.75.83.83,0,0,0-.37-.75,1.71,1.71,0,0,0-1-.23c-.22,0-.34.35-.12.45a4,4,0,0,0,4.62-1.09.24.24,0,0,0,0-.34,2.64,2.64,0,0,0-1.7-.78c-.26,0-.32.41-.06.47a3.5,3.5,0,0,0,3.46-1.2c.19-.23-.14-.58-.34-.34a3,3,0,0,1-3,1.08c0,.16,0,.31-.07.47a2.1,2.1,0,0,1,1.36.64V8.15a3.5,3.5,0,0,1-4,1l-.13.45a1.19,1.19,0,0,1,.77.16.3.3,0,0,1,0,.5,4.1,4.1,0,0,1-1.31.83,4.68,4.68,0,0,1-1.48.33c-.36,0-.89,0-1.06-.37l-.21.36c.43,0,1-.05,1.29.34s-.08.7-.39.87a3.22,3.22,0,0,1-1.33.33,4.43,4.43,0,0,1-1.54-.18.24.24,0,0,0-.13.47Z"/>
        <path class="cls-22" d="M65.08,5.82a7,7,0,0,1,.55-.76,3.82,3.82,0,0,1,.64-.63c.19-.13.5-.2.51.11a3.34,3.34,0,0,1-.11,1c0,.21.24.43.4.23a4.82,4.82,0,0,1,2-1.47.84.84,0,0,0,.28-.09s0,0,0,0v0s0,.08,0,.11a3.09,3.09,0,0,1-.19.61A3.87,3.87,0,0,1,68.41,6c-.21.23.13.57.34.34a4.68,4.68,0,0,0,.87-1.41c.13-.35.45-1.25-.22-1.26a2,2,0,0,0-.76.24,5.9,5.9,0,0,0-.7.38,5.25,5.25,0,0,0-1.21,1.09l.41.24a3,3,0,0,0,.1-1.3.7.7,0,0,0-.82-.47,1.86,1.86,0,0,0-.93.66,7.13,7.13,0,0,0-.83,1.07c-.16.26.25.5.42.24Z"/>
        <path class="cls-22" d="M58.43,17.94l.09.62a.3.3,0,0,0,.11.14.25.25,0,0,0,.19,0,.22.22,0,0,0,.14-.11l0-.05a.28.28,0,0,0,0-.13l-.09-.62a.3.3,0,0,0-.11-.14.25.25,0,0,0-.19,0,.19.19,0,0,0-.14.11l0,0a.28.28,0,0,0,0,.13Z"/>
        <path class="cls-22" d="M59.3,18.75c.05.22.09.45.14.68a.2.2,0,0,0,.11.14.23.23,0,0,0,.18,0,.25.25,0,0,0,.17-.3c0-.22-.09-.45-.13-.68a.24.24,0,0,0-.11-.15.25.25,0,0,0-.19,0,.25.25,0,0,0-.17.3Z"/>
        <path class="cls-22" d="M58.26,14.63a1.59,1.59,0,0,0,.06.61.26.26,0,0,0,.11.14.23.23,0,0,0,.18,0,.21.21,0,0,0,.15-.11.22.22,0,0,0,0-.18,1.74,1.74,0,0,1-.05-.22V15a1.71,1.71,0,0,1,0-.32.24.24,0,0,0-.24-.24.22.22,0,0,0-.17.07l0,0a.27.27,0,0,0,0,.12Z"/>
        <path class="cls-22" d="M57.19,15.15l.05.26a.35.35,0,0,0,0,.08s0,0,.06.06l.09,0a.16.16,0,0,0,.1,0,.22.22,0,0,0,.14-.11l0-.05a.28.28,0,0,0,0-.13L57.65,15a.2.2,0,0,0,0-.08.23.23,0,0,0-.07-.07l-.09,0h-.1a.25.25,0,0,0-.14.11l0,.06a.24.24,0,0,0,0,.12Z"/>
        <path class="cls-18" d="M55.31,9.37a2.54,2.54,0,0,1,2.38,1.75.24.24,0,0,0,.46-.13,3,3,0,0,0-2.84-2.1.24.24,0,0,0,0,.48Z"/>
        <path class="cls-18" d="M56.72,8.89a2.33,2.33,0,0,1,.28.26l.13.14.06.08,0,0s0-.05,0,0a4.46,4.46,0,0,1,.4.66.24.24,0,0,0,.33.09A.25.25,0,0,0,58,9.84a3.88,3.88,0,0,0-1-1.29.24.24,0,0,0-.34.34Z"/>
        <path class="cls-18" d="M61.29,27.35l-.22,1.49a.24.24,0,0,0,.46.13l.22-1.49a.25.25,0,0,0-.16-.3c-.12,0-.28,0-.3.17Z"/>
        <path class="cls-18" d="M62,27.87c0,.49,0,1-.05,1.47a.23.23,0,0,0,.24.24.24.24,0,0,0,.24-.24c0-.49,0-1,0-1.47a.26.26,0,0,0-.24-.24.24.24,0,0,0-.24.24Z"/>
        <g>
          <path class="cls-23" d="M71.83,22.6a2.32,2.32,0,0,1-3-.07l.5,1.14a.93.93,0,0,0,1.61.17Z"/>
          <path class="cls-20" d="M71.66,22.43A2.08,2.08,0,0,1,69,22.36a.24.24,0,0,0-.37.29l.34.79a1.76,1.76,0,0,0,.57.84,1.2,1.2,0,0,0,1.4-.09,3.57,3.57,0,0,0,.54-.69l.55-.78A.23.23,0,0,0,72,22.4a.24.24,0,0,0-.32.08c-.3.41-.57.83-.88,1.23a.7.7,0,0,1-.88.2,1.18,1.18,0,0,1-.45-.66l-.37-.84-.38.29a2.57,2.57,0,0,0,3.33.07C72.24,22.57,71.9,22.24,71.66,22.43Z"/>
        </g>
        <path d="M72.21,18.46a1.59,1.59,0,0,1,.61-1.16c.4-.29.86.08,1.17.34a.24.24,0,0,0,.34,0,.26.26,0,0,0,0-.34c-.47-.4-1.11-.82-1.73-.44a2.11,2.11,0,0,0-.87,1.6.24.24,0,0,0,.48,0Z"/>
        <path d="M65.18,20.86a1.58,1.58,0,0,1,.6-1.16c.41-.29.86.08,1.17.34a.24.24,0,0,0,.34-.34c-.47-.4-1.11-.83-1.72-.44a2.08,2.08,0,0,0-.87,1.6.24.24,0,0,0,.24.24.24.24,0,0,0,.24-.24Z"/>
        <path class="cls-24" d="M60.14,34l1.94-.78a.24.24,0,0,0,.17-.29.23.23,0,0,0-.29-.17L60,33.55a.25.25,0,0,0-.17.3.23.23,0,0,0,.29.16Z"/>
        <path class="cls-24" d="M61.19,35.86l1.21-1a.23.23,0,0,0,0-.33.24.24,0,0,0-.34,0l-1.2,1a.24.24,0,0,0,0,.34.25.25,0,0,0,.33,0Z"/>
        <path class="cls-24" d="M63.25,37.49l0-.08s0-.06,0,0l0,0s.05-.1.08-.14l.05-.08,0,0,0,0,0,0a.15.15,0,0,0,.05-.06l.06-.07a.69.69,0,0,1,.13-.11s0,0,0,0h0l.08,0,.15-.09,0,0s0,0,0,0a.2.2,0,0,1,.08,0,.24.24,0,0,0,.17-.29.25.25,0,0,0-.3-.17,1.83,1.83,0,0,0-1.14,1.16.24.24,0,0,0,.47.12Z"/>
        <path class="cls-24" d="M65.71,38.16v1a.24.24,0,1,0,.48,0v-1a.24.24,0,0,0-.48,0Z"/>
        <path class="cls-24" d="M67.88,37.75c.09.4.18.81.28,1.21a.23.23,0,0,0,.29.17.24.24,0,0,0,.17-.29l-.28-1.22a.24.24,0,0,0-.29-.17.25.25,0,0,0-.17.3Z"/>
        <path class="cls-24" d="M69.68,37.54l.49,1a.24.24,0,0,0,.32.09.25.25,0,0,0,.09-.33c-.16-.33-.33-.65-.49-1a.25.25,0,0,0-.33-.09.24.24,0,0,0-.08.33Z"/>
        <path class="cls-24" d="M71.9,36.13l1,1a.25.25,0,0,0,.34,0,.24.24,0,0,0,0-.34l-1-1a.24.24,0,0,0-.34,0,.25.25,0,0,0,0,.34Z"/>
        <path class="cls-24" d="M74.07,34.55a.92.92,0,0,0,.37.52.88.88,0,0,0,.57.15.24.24,0,0,0,.24-.24.24.24,0,0,0-.24-.24h-.09a.43.43,0,0,1-.16,0l0,0a1.19,1.19,0,0,1-.15-.09l0,0-.13-.13,0,.05-.08-.13,0,.05,0-.1a.24.24,0,0,0-.29-.17.25.25,0,0,0-.17.3Z"/>
        <path class="cls-24" d="M74.46,32.24a2.16,2.16,0,0,0,2-.49.24.24,0,1,0-.34-.34,1.66,1.66,0,0,1-1.51.37.24.24,0,0,0-.29.17.23.23,0,0,0,.16.29Z"/>
        <path class="cls-24" d="M74.58,30.29l1-.26a.23.23,0,0,0,.16-.29.24.24,0,0,0-.29-.17l-1,.26a.25.25,0,0,0-.17.3.25.25,0,0,0,.3.16Z"/>
        <path class="cls-24" d="M93.86,28.43c.1.49.19,1,.29,1.46a.24.24,0,0,0,.3.17.25.25,0,0,0,.17-.29l-.3-1.46a.24.24,0,0,0-.3-.17.23.23,0,0,0-.16.29Z"/>
        <path class="cls-24" d="M94.88,27.69l.49,1.22a.24.24,0,0,0,.29.17.24.24,0,0,0,.17-.29l-.48-1.23a.26.26,0,0,0-.3-.17.25.25,0,0,0-.17.3Z"/>
        <path class="cls-24" d="M96.88,27.32l.12.12,0,0,0,0s0,0,0,0l.09.14a.25.25,0,0,0,0,.07v0s0,.05,0,0,0,0,0,0v0l0,.08,0,.16s0,0,0,0v.05a.17.17,0,0,1,0,.07,1.09,1.09,0,0,1,0,.18.24.24,0,0,0,.48,0A1.56,1.56,0,0,0,97.21,27a.23.23,0,1,0-.33.33Z"/>
        <path class="cls-24" d="M98.24,26.73c.08.25.16.49.25.74a.22.22,0,0,0,.29.16.24.24,0,0,0,.17-.29l-.25-.73a.24.24,0,1,0-.46.12Z"/>
        <path class="cls-24" d="M99.55,25.3l.75,1.22a.24.24,0,0,0,.32.08.24.24,0,0,0,.09-.33c-.25-.4-.49-.81-.74-1.22a.25.25,0,0,0-.33-.08.24.24,0,0,0-.09.33Z"/>
        <path class="cls-24" d="M29.19,38.09l-.39,2a.24.24,0,1,0,.46.13l.39-2a.23.23,0,0,0-.17-.29.23.23,0,0,0-.29.16Z"/>
        <path class="cls-24" d="M30.68,38.65v1a.24.24,0,0,0,.48,0v-1a.24.24,0,1,0-.48,0Z"/>
        <path class="cls-24" d="M32.47,38.33l0,0h0v0a.41.41,0,0,1,.07.11l0,0s0,0,0,0v0s0,.08,0,.12a.13.13,0,0,0,0,.06v0s0,.08,0,.12a.13.13,0,0,0,0,.06v0s0,0,0,0a.79.79,0,0,1,0,.13.24.24,0,0,0,.47.12A1.31,1.31,0,0,0,32.81,38a.24.24,0,1,0-.34.34Z"/>
        <path class="cls-24" d="M33.84,38.24a.56.56,0,0,1,0,.12.13.13,0,0,1,0,.06s0,0,0,0v0a.49.49,0,0,1,0,.12s0,.05,0,.07,0-.06,0,0v0l0,.12v0s0,0,0,0l0,.06a.6.6,0,0,1-.06.11s0,0,0,0,0,0,0,0l0,.05a.26.26,0,0,0,0,.34.25.25,0,0,0,.34,0,1.15,1.15,0,0,0,.26-1.22.22.22,0,0,0-.11-.14.28.28,0,0,0-.18,0,.25.25,0,0,0-.17.3Z"/>
        <path class="cls-24" d="M35.33,37.67v1a.24.24,0,0,0,.48,0v-1a.24.24,0,1,0-.48,0Z"/>
        <path class="cls-24" d="M50.07,76.08c-.09.32-.17.65-.26,1a.25.25,0,0,0,.17.3.24.24,0,0,0,.29-.17c.09-.33.18-.65.26-1a.24.24,0,0,0-.16-.29.25.25,0,0,0-.3.17Z"/>
        <path class="cls-24" d="M52.3,76.94A1.3,1.3,0,0,0,52,78.15a.24.24,0,0,0,.29.17.24.24,0,0,0,.17-.3.36.36,0,0,1,0-.11s0,0,0,0,0,0,0,0v-.06a.49.49,0,0,1,0-.12h0s0,0,0,0,0,0,0-.07a.36.36,0,0,1,0-.11v0s0,0,0,0a.08.08,0,0,0,0,0l.07-.11,0,0s0,0,0,0h0l0,0a.25.25,0,0,0,0-.34.24.24,0,0,0-.34,0Z"/>
        <path class="cls-24" d="M54.26,77.18A1.32,1.32,0,0,0,54,78.4a.24.24,0,0,0,.46-.13.5.5,0,0,1,0-.12s0,0,0,0a.08.08,0,0,0,0,0v-.06a.49.49,0,0,1,0-.12h0s0,0,0,0,0,0,0-.06l0-.12,0,0s0,0,0,0,0,0,0,0a.41.41,0,0,1,.07-.11l0,0s0,0,0,0,0,0,0,0l0,0a.24.24,0,1,0-.34-.34Z"/>
        <path class="cls-24" d="M55.72,77.3c-.09.41-.17.82-.26,1.22a.25.25,0,0,0,.17.3.24.24,0,0,0,.29-.17c.09-.41.17-.81.26-1.22a.24.24,0,1,0-.46-.13Z"/>
        <path class="cls-24" d="M57.9,77.24a2.89,2.89,0,0,0-.27,1.59.25.25,0,0,0,.24.24c.12,0,.26-.11.24-.24a2.65,2.65,0,0,1,0-.69,2.55,2.55,0,0,1,.21-.66.25.25,0,0,0-.09-.33.24.24,0,0,0-.33.09Z"/>
        <path class="cls-24" d="M59.85,77.47a1.66,1.66,0,0,0-.24,1.42.23.23,0,0,0,.29.16.25.25,0,0,0,.17-.29.75.75,0,0,1,0-.16h0v-.12a.33.33,0,0,1,0-.14v-.08c0,.06,0,0,0,0a2.45,2.45,0,0,1,.08-.29c0,.06,0,0,0,0a.16.16,0,0,1,0-.07,1,1,0,0,1,.08-.14.23.23,0,0,0-.08-.32.24.24,0,0,0-.33.08Z"/>
        <path class="cls-24" d="M62.1,77.43a1.28,1.28,0,0,0-.29,1.21.24.24,0,0,0,.29.17.24.24,0,0,0,.17-.3l0-.11s0,0,0,0,0,0,0,0v-.06a.49.49,0,0,1,0-.12h0s0,0,0,0a.17.17,0,0,1,0-.07l0-.11v0s0,0,0,0,0,0,0,0l.07-.11v0h0l0,0a.25.25,0,0,0,0-.34.24.24,0,0,0-.34,0Z"/>
        <path class="cls-24" d="M63.75,77.36v1.47a.24.24,0,1,0,.48,0V77.36a.24.24,0,0,0-.48,0Z"/>
        <path class="cls-24" d="M66.3,77.1l.15,1.73a.25.25,0,0,0,.24.24.24.24,0,0,0,.24-.24l-.15-1.73a.26.26,0,0,0-.24-.24c-.12,0-.26.11-.24.24Z"/>
        <path class="cls-24" d="M68.4,77.11v1.23a.24.24,0,1,0,.48,0V77.11a.24.24,0,0,0-.48,0Z"/>
        <path class="cls-24" d="M70.62,76.93l.27,1.46a.24.24,0,0,0,.3.17.25.25,0,0,0,.17-.29c-.09-.49-.19-1-.28-1.47a.25.25,0,0,0-.29-.17.27.27,0,0,0-.17.3Z"/>
        <path class="cls-24" d="M72.61,76.67,73,77.92a.24.24,0,0,0,.29.17.24.24,0,0,0,.17-.29l-.42-1.25a.24.24,0,0,0-.29-.17.24.24,0,0,0-.17.29Z"/>
        <path class="cls-4" d="M75.31,75.94c.13.41.27.83.41,1.25a.25.25,0,0,0,.3.17.24.24,0,0,0,.16-.3c-.13-.42-.27-.83-.41-1.25a.25.25,0,0,0-.3-.17.24.24,0,0,0-.16.3Z"/>
        <path class="cls-4" d="M77.49,75.77l.49.73a.33.33,0,0,0,.15.11.23.23,0,0,0,.18,0,.25.25,0,0,0,.09-.33l-.49-.74a.28.28,0,0,0-.15-.11.23.23,0,0,0-.18,0,.25.25,0,0,0-.09.33Z"/>
        <path class="cls-4" d="M79.66,75.06l.5.73a.3.3,0,0,0,.14.11.31.31,0,0,0,.19,0,.24.24,0,0,0,.08-.33l-.5-.72a.25.25,0,0,0-.33-.09.24.24,0,0,0-.08.33Z"/>
        <path class="cls-24" d="M58.05,59.42a49.17,49.17,0,0,1,5.72-5.17A51,51,0,0,1,70.22,50c1.27-.7,2.58-1.34,3.91-1.92.28-.13,0-.54-.24-.42a50,50,0,0,0-13,8.35c-1.09,1-2.13,2-3.14,3-.21.22.13.56.34.34Z"/>
        <path class="cls-24" d="M61,59.22q4.13-3,8.46-5.7c.82-.51,1.65-1,2.49-1.52a.24.24,0,0,0-.25-.41q-4.38,2.61-8.57,5.53c-.8.56-1.59,1.12-2.37,1.69-.25.18,0,.6.24.41Z"/>
        <path class="cls-24" d="M98.91,46.81a12.12,12.12,0,0,1,4.85-4.07,12.84,12.84,0,0,1,1.7-.63.24.24,0,0,0-.13-.46,12.5,12.5,0,0,0-5.63,3.43,13,13,0,0,0-1.2,1.49c-.17.26.24.5.41.24Z"/>
        <path class="cls-24" d="M29.39,53.57a8.86,8.86,0,0,1,5.79,3.36.25.25,0,0,0,.34,0,.24.24,0,0,0,0-.34,9.29,9.29,0,0,0-6-3.49.24.24,0,0,0-.29.17.25.25,0,0,0,.17.3Z"/>
        <path class="cls-24" d="M77.7,33.41A34.84,34.84,0,0,1,80.47,42c.15.84.28,1.69.37,2.55,0,.3.51.31.48,0a35.44,35.44,0,0,0-2.17-9c-.32-.82-.66-1.62-1-2.42-.13-.27-.54,0-.41.25Z"/>
        <path class="cls-15" d="M77.52,80.59a51.55,51.55,0,0,0,8.33,4.11,66.83,66.83,0,0,1,8.41,3.91A25,25,0,0,1,98,91.26a24.12,24.12,0,0,1,3,3.2,36,36,0,0,1,4.5,7.61c1.25,2.75,2.26,5.59,3.24,8.45.12.35.23.7.35,1s.56.17.46-.12c-1-2.88-2-5.75-3.16-8.54a39.76,39.76,0,0,0-4.33-7.85,25.06,25.06,0,0,0-6.48-6.18,52.28,52.28,0,0,0-8.36-4.11,68.19,68.19,0,0,1-8.49-4c-.34-.2-.67-.41-1-.62s-.5.24-.24.41Z"/>
        <path class="cls-15" d="M101.52,141.14q6-3.63,12.24-6.9c1.16-.62,2.33-1.22,3.5-1.81.28-.14,0-.55-.24-.41q-6.27,3.16-12.35,6.7c-1.14.66-2.27,1.33-3.39,2a.24.24,0,0,0,.24.42Z"/>
        <path class="cls-15" d="M123.55,128.88l9.59-6.64,2.7-1.87c.25-.18,0-.59-.24-.41L126,126.6l-2.69,1.87c-.26.17,0,.59.24.41Z"/>
        <path class="cls-15" d="M87.43,105.94a15.58,15.58,0,0,1,3.36-2.69.24.24,0,0,0-.24-.41,16.47,16.47,0,0,0-3.46,2.76.24.24,0,0,0,.34.34Z"/>
        <path class="cls-15" d="M88.16,106.92A4.76,4.76,0,0,1,90,105.76a.25.25,0,0,0,.16-.3.24.24,0,0,0-.29-.17,5.33,5.33,0,0,0-2.06,1.29c-.22.22.12.56.33.34Z"/>
        <path class="cls-15" d="M101.24,134.32l.7,1.24a.24.24,0,0,0,.33.09.25.25,0,0,0,.09-.33l-.71-1.24a.23.23,0,0,0-.32-.09.24.24,0,0,0-.09.33Z"/>
        <path class="cls-15" d="M103.26,134.36l.24.24.08.05a.21.21,0,0,0,.18,0l.08-.05a.24.24,0,0,0,.07-.17v-.06a.24.24,0,0,0-.06-.11l-.24-.24a.18.18,0,0,0-.08-.05.15.15,0,0,0-.09,0,.16.16,0,0,0-.1,0,.12.12,0,0,0-.07.05.18.18,0,0,0-.07.17v.06a.41.41,0,0,0,.07.11Z"/>
        <path class="cls-15" d="M105.64,133.45v.49a.22.22,0,0,0,.07.17.26.26,0,0,0,.17.07.24.24,0,0,0,.24-.24v-.49a.25.25,0,0,0-.08-.17.24.24,0,0,0-.16-.07.25.25,0,0,0-.24.24Z"/>
        <path class="cls-15" d="M100.74,125.12a1.3,1.3,0,0,0,.61,1.19.23.23,0,0,0,.32-.09.24.24,0,0,0-.08-.33l-.06,0s0,0,0,0l0,0-.09-.09,0,0s0,0,0,0h0l0,0a.75.75,0,0,1-.07-.12l0,0s0,0,0,0l0-.06,0-.13v0h0s0,0,0,0v-.18a.24.24,0,1,0-.48,0Z"/>
        <path class="cls-15" d="M118.19,116.6c.08.24.17.48.25.73a.24.24,0,0,0,.29.17.25.25,0,0,0,.17-.3l-.25-.73a.24.24,0,0,0-.29-.17.25.25,0,0,0-.17.3Z"/>
        <path class="cls-15" d="M120.65,119.66l.24.24a.14.14,0,0,0,.08,0,.1.1,0,0,0,.09,0,.12.12,0,0,0,.1,0,.15.15,0,0,0,.07,0,.21.21,0,0,0,.07-.17v-.06a.24.24,0,0,0-.06-.11l-.24-.24-.08,0-.09,0-.09,0-.08,0a.28.28,0,0,0-.07.17v.06a.24.24,0,0,0,.06.11Z"/>
        <path class="cls-13" d="M89,71.92l-.42-.57a.3.3,0,0,0-.14-.11.25.25,0,0,0-.19,0,.22.22,0,0,0-.11.14.28.28,0,0,0,0,.18l.43.58a.3.3,0,0,0,.14.11.25.25,0,0,0,.19,0,.23.23,0,0,0,.08-.33Z"/>
        <path class="cls-13" d="M88.35,72.46l-.1-.11-.08,0-.09,0-.09,0-.08,0,0,.05a.27.27,0,0,0,0,.12v.06a.2.2,0,0,0,.06.11l.1.11a.18.18,0,0,0,.07,0l.1,0,.09,0,.08,0,0,0a.19.19,0,0,0,0-.12v-.07a.21.21,0,0,0-.06-.1Z"/>
        <path class="cls-13" d="M87.63,72.67l-.28-.31a.18.18,0,0,0-.08,0,.15.15,0,0,0-.09,0,.16.16,0,0,0-.1,0,.12.12,0,0,0-.07,0,.18.18,0,0,0-.07.17v.06a.41.41,0,0,0,.07.11l.28.31a.14.14,0,0,0,.08,0,.21.21,0,0,0,.18,0,.14.14,0,0,0,.08,0,.24.24,0,0,0,.07-.17v-.06a.24.24,0,0,0-.06-.11Z"/>
        <path class="cls-13" d="M86.71,69.81l0,0,0-.07,0,0-.1-.07-.11,0a.17.17,0,0,0-.1,0,.16.16,0,0,0-.09,0,.17.17,0,0,0-.06.06.18.18,0,0,0,0,.08v.07a.28.28,0,0,0,0,.12l0,0a.24.24,0,0,0,.11.06l0,0,.09,0-.05,0,.07.07,0,0,0,0a.13.13,0,0,0,.06.07.2.2,0,0,0,.08,0h.1l.09,0,0,0a.41.41,0,0,0,.07-.11v-.06a.27.27,0,0,0,0-.12Z"/>
        <path class="cls-15" d="M75.52,81.63a1.76,1.76,0,0,0,.32,2.25.26.26,0,0,0,.34,0,.25.25,0,0,0,0-.34,1,1,0,0,1-.18-.18.93.93,0,0,1-.12-.18,1.28,1.28,0,0,1-.14-.43,1.18,1.18,0,0,1,.2-.87.24.24,0,0,0-.09-.33.25.25,0,0,0-.33.08Z"/>
        <path class="cls-15" d="M76.88,81.84a.81.81,0,0,0-.32.43,1.2,1.2,0,0,0,0,.5.92.92,0,0,0,.62.71.24.24,0,0,0,.29-.17.24.24,0,0,0-.16-.29l0,0h0l-.07,0s0,0,0,0l0,0,0-.06c0,.05,0,0,0,0l0,0s0,0,0-.07,0,0,0,0v-.07a.19.19,0,0,1,0-.08s0-.06,0,0v0a.28.28,0,0,1,0-.09v0s0,.05,0,0a.19.19,0,0,1,0-.08.09.09,0,0,1,0,0s0,.06,0,0l0-.07s0,0,0,0l0,0s.09-.08,0,0a.23.23,0,0,0,.08-.32.23.23,0,0,0-.32-.09Z"/>
        <path class="cls-15" d="M122.78,121.69v.25a.29.29,0,0,0,0,.09.22.22,0,0,0,0,.08l.08,0,.09,0h.07a.21.21,0,0,0,.1-.06.23.23,0,0,0,.07-.17v-.25a.15.15,0,0,0,0-.09.18.18,0,0,0,0-.08l-.08,0-.09,0H123a.24.24,0,0,0-.11.06.28.28,0,0,0-.07.17Z"/>
        <path class="cls-15" d="M117,110.05c.25.32.49.65.73,1a.28.28,0,0,0,.15.11.23.23,0,0,0,.18,0,.24.24,0,0,0,.09-.33c-.25-.32-.49-.65-.74-1a.23.23,0,0,0-.14-.11.28.28,0,0,0-.18,0,.24.24,0,0,0-.09.33Z"/>
        <path class="cls-25" d="M158.78,72.89H7.43a2.56,2.56,0,1,1,0-5.11H158.78a2.56,2.56,0,1,1,0,5.11Z"/>
        <path class="cls-10" d="M45,37l1,2a.24.24,0,0,0,.33.08.23.23,0,0,0,.08-.32c-.32-.66-.65-1.31-1-2a.23.23,0,0,0-.32-.09A.24.24,0,0,0,45,37Z"/>
        <path class="cls-10" d="M46.63,37.24c.21.66.43,1.31.64,2a.25.25,0,0,0,.3.17.24.24,0,0,0,.17-.29l-.65-2a.24.24,0,0,0-.3-.16.23.23,0,0,0-.16.29Z"/>
        <path class="cls-10" d="M85.28,34.37a5.72,5.72,0,0,1,1.83-2.25.24.24,0,0,0,.08-.32.24.24,0,0,0-.33-.09,6.27,6.27,0,0,0-2,2.42.25.25,0,0,0,.09.33.25.25,0,0,0,.33-.09Z"/>
        <path class="cls-10" d="M87.51,34.09l1-1a.25.25,0,0,0,0-.34.24.24,0,0,0-.34,0c-.33.32-.65.65-1,1a.25.25,0,0,0,0,.34.26.26,0,0,0,.34,0Z"/>
        <path class="cls-10" d="M96.31,47.81a2.16,2.16,0,0,1,.6,1.46.25.25,0,0,0,.24.24.24.24,0,0,0,.24-.24,2.68,2.68,0,0,0-.74-1.8.24.24,0,0,0-.34.34Z"/>
        <path class="cls-24" d="M36.34,37.57c0,.36.1.71.14,1.07a.3.3,0,0,0,.11.14.25.25,0,0,0,.19,0,.22.22,0,0,0,.14-.11.23.23,0,0,0,0-.18l-.15-1.07s-.06-.11-.11-.14a.22.22,0,0,0-.18,0,.21.21,0,0,0-.15.11.28.28,0,0,0,0,.18Z"/>
        <path class="cls-24" d="M38.69,44.7a20,20,0,0,1-.78,5.09c-.09.29.37.42.46.12a20.42,20.42,0,0,0,.8-5.21.24.24,0,0,0-.48,0Z"/>
        <path class="cls-24" d="M39.38,44.94a21.49,21.49,0,0,1-.23,4.67c0,.3.42.43.47.13a22.7,22.7,0,0,0,.24-4.8c0-.31-.5-.31-.48,0Z"/>
        <path class="cls-24" d="M94.42,37l1.84,3a17.21,17.21,0,0,0,1.84,2.76c.21.23.55-.11.34-.34a16.79,16.79,0,0,1-1.81-2.73l-1.8-3a.24.24,0,0,0-.41.24Z"/>
        <path class="cls-24" d="M95.08,37a19.46,19.46,0,0,0,3.66,3.36c.25.17.49-.24.24-.42a18.78,18.78,0,0,1-3.56-3.28c-.2-.24-.54.1-.34.34Z"/>
        <path class="cls-24" d="M52.39,38.89c0,3.62-1.48,7-2,10.52a14.78,14.78,0,0,0-.18,3c0,.31.49.31.48,0-.17-3.61,1.3-7,1.92-10.51a15.67,15.67,0,0,0,.28-3,.24.24,0,0,0-.48,0Z"/>
        <path class="cls-22" d="M60.71,8a.8.8,0,0,1-.18-1.28.68.68,0,0,1,.77,0,.74.74,0,0,1,.4.71l.45-.12a.67.67,0,0,1,.22-.74.58.58,0,0,1,.7-.1A.71.71,0,0,1,63,7.6a.25.25,0,0,0-.09.33.26.26,0,0,0,.33.09,1.19,1.19,0,0,0,.43-1.65,1,1,0,0,0-.84-.5,1.19,1.19,0,0,0-.91.47,1.09,1.09,0,0,0-.16,1.17.24.24,0,0,0,.27.12.25.25,0,0,0,.17-.24,1.28,1.28,0,0,0-1.38-1.3,1.17,1.17,0,0,0-.94,1.52,1.16,1.16,0,0,0,.73.82.23.23,0,0,0,.29-.16.25.25,0,0,0-.17-.3Z"/>
      </g>
    </g>
  </g>
</svg>
