<svg xmlns="http://www.w3.org/2000/svg" xmlns:xlink="http://www.w3.org/1999/xlink" viewBox="0 0 351.17 332.16">
  <defs>
    <style>
      .cls-1, .cls-10, .cls-5, .cls-8, .cls-9 {
        fill: #999;
      }

      .cls-2, .cls-3, .cls-4, .cls-7 {
        fill: gray;
      }

      .cls-2 {
        opacity: 0.51;
      }

      .cls-4 {
        opacity: 0.13;
      }

      .cls-5 {
        opacity: 0.5;
      }

      .cls-6 {
        clip-path: url(#clip-path);
      }

      .cls-7 {
        opacity: 0.62;
      }

      .cls-8 {
        opacity: 0.33;
      }

      .cls-9 {
        opacity: 0.55;
      }

      .cls-10 {
        opacity: 0.44;
      }
    </style>
    <clipPath id="clip-path">
      <path class="cls-1" d="M127.47,238.61s-1.13,7.92.65,21.35c1.94,14.64,9.45,32.59,9.45,32.59l8.13-1.64s-3.84-13.73-6.15-26.69a57.94,57.94,0,0,1,1.38-25.85Z"/>
    </clipPath>
  </defs>
  <g id="Layer_2" data-name="Layer 2">
    <g id="Layer_1-2" data-name="Layer 1">
      <g>
        <path class="cls-2" d="M121.64,250.16l7,77.88a1.3,1.3,0,0,1-2.58.27l-9.17-77.66a2.38,2.38,0,1,1,4.72-.55Z"/>
        <path class="cls-2" d="M194.57,251.72l-5.81,75a1.29,1.29,0,0,1-1.39,1.19,1.31,1.31,0,0,1-1.19-1.35l3.65-75.18a2.38,2.38,0,1,1,4.75.23S194.57,251.7,194.57,251.72Z"/>
        <path class="cls-3" d="M117.72,250.69c13.35,4.13,45.42,2.93,68.7,1.64,16.22-.91,12.51-13.7,12.51-13.7L111.81,238S108.51,247.84,117.72,250.69Z"/>
        <path class="cls-4" d="M111.91,238l87,.34a15,15,0,0,1,.37,3.05,11.85,11.85,0,0,1-.39,3s-86.93.17-87.38.05a10.53,10.53,0,0,1-.25-3.37A14.47,14.47,0,0,1,111.91,238Z"/>
        <g>
          <path class="cls-1" d="M127.47,238.61s-1.13,7.92.65,21.35c1.94,14.64,9.45,32.59,9.45,32.59l8.13-1.64s-3.84-13.73-6.15-26.69a57.94,57.94,0,0,1,1.38-25.85Z"/>
          <path class="cls-1" d="M167.34,238.8a112.39,112.39,0,0,1,.72,23.5c-1,12.66-5.26,26.94-5.26,26.94a6.8,6.8,0,0,0,3.17,2.92,10.55,10.55,0,0,0,5,.08s6.39-15.92,8.62-31.75A132.44,132.44,0,0,0,181,237.58Z"/>
          <path class="cls-5" d="M137.17,291.54l-1-2.55a9,9,0,0,0,3.8-.76,35.45,35.45,0,0,0,4.35-2.39l.55,1.91Z"/>
          <path class="cls-5" d="M163.18,288.05l.67-2.48a12.21,12.21,0,0,0,3.06,3.92,7.44,7.44,0,0,0,4.39,1.63l-.41,1.1s-3.76,0-5.69-1.08A3.94,3.94,0,0,1,163.18,288.05Z"/>
          <path class="cls-1" d="M136.07,290.73c-.06-.47,2.29-.11,4.76-1.34a12.78,12.78,0,0,0,3.61-2.53.55.55,0,0,1,.93.23l3.41,11.54a4.44,4.44,0,0,1-1,4.25l-7.81,8.5a1.11,1.11,0,0,1-1.53.1,4.2,4.2,0,0,1-1.69-3.68c.34-2.76,3.3-4.82,3.33-6.48C140.15,297.05,136,291.2,136.07,290.73Z"/>
          <path class="cls-1" d="M140,311.37a1.12,1.12,0,0,1-1.53.09,5,5,0,0,1-1.43-1.8,3.64,3.64,0,0,1,0-3,5.06,5.06,0,0,1,2.73.69,6.47,6.47,0,0,1,1.83,2.27Z"/>
          <path class="cls-1" d="M162.65,288.11l-3.37,12.76a4.54,4.54,0,0,0-.09,1.87c.48,2.85,2.16,11,5.75,11.91,1.35.33,3.26-.92,3.46-3.72.23-3.23-1.11-5-.53-7.68a84.62,84.62,0,0,1,3.82-10.73.55.55,0,0,0-.55-.76,8.26,8.26,0,0,1-5.17-1.41,8.13,8.13,0,0,1-2.32-2.4A.56.56,0,0,0,162.65,288.11Z"/>
          <path class="cls-1" d="M162.3,312.3a6.26,6.26,0,0,1,2.75-2.19,5.23,5.23,0,0,1,3.39-.08s.28,3.49-2,4.41C163.71,315.51,162.3,312.3,162.3,312.3Z"/>
          <path class="cls-1" d="M159.85,304.83a.72.72,0,0,1-.28-.07.6.6,0,0,1-.24-.8c.58-1.08,2-4.43.83-5.58a.59.59,0,0,1,0-.83.57.57,0,0,1,.82,0c2,2-.34,6.46-.61,7A.61.61,0,0,1,159.85,304.83Z"/>
          <path class="cls-1" d="M146.82,303.23a.59.59,0,0,1-.49-.26,5.31,5.31,0,0,1,.81-6.35.59.59,0,0,1,.83-.05.57.57,0,0,1,.05.82,4.1,4.1,0,0,0-.71,4.93.58.58,0,0,1-.17.81A.55.55,0,0,1,146.82,303.23Z"/>
          <path class="cls-1" d="M178.87,249.29l.41.82a.56.56,0,0,0,.41.3l.9.13a.55.55,0,0,1,.31.94l-.65.64a.55.55,0,0,0-.16.49l.15.89a.55.55,0,0,1-.8.58l-.81-.42a.57.57,0,0,0-.51,0l-.8.42a.56.56,0,0,1-.81-.58l.16-.89a.55.55,0,0,0-.16-.49l-.65-.64a.55.55,0,0,1,.31-.94l.89-.13a.57.57,0,0,0,.42-.3l.4-.82A.55.55,0,0,1,178.87,249.29Z"/>
          <path class="cls-1" d="M171.8,277.92l.4.81a.53.53,0,0,0,.41.3l.9.13a.56.56,0,0,1,.31.95l-.65.63a.56.56,0,0,0-.16.49l.15.9a.55.55,0,0,1-.8.58l-.8-.42a.53.53,0,0,0-.52,0l-.8.42a.55.55,0,0,1-.8-.58l.15-.9a.56.56,0,0,0-.16-.49l-.65-.63a.56.56,0,0,1,.31-.95L170,279a.53.53,0,0,0,.42-.3l.4-.81A.56.56,0,0,1,171.8,277.92Z"/>
          <path class="cls-1" d="M171.8,262.72l.4.81a.53.53,0,0,0,.41.3l.9.13a.56.56,0,0,1,.31,1l-.65.63a.56.56,0,0,0-.16.49l.15.9a.55.55,0,0,1-.8.58l-.8-.42a.53.53,0,0,0-.52,0l-.8.42a.55.55,0,0,1-.8-.58l.15-.9a.56.56,0,0,0-.16-.49l-.65-.63a.56.56,0,0,1,.31-1l.89-.13a.53.53,0,0,0,.42-.3l.4-.81A.56.56,0,0,1,171.8,262.72Z"/>
          <g>
            <path class="cls-1" d="M127.47,238.61s-1.13,7.92.65,21.35c1.94,14.64,9.45,32.59,9.45,32.59l8.13-1.64s-3.84-13.73-6.15-26.69a57.94,57.94,0,0,1,1.38-25.85Z"/>
            <g class="cls-6">
              <path class="cls-1" d="M130,255.84l.4.82a.56.56,0,0,0,.41.3l.9.13a.56.56,0,0,1,.31,1l-.65.63a.56.56,0,0,0-.16.49l.15.89a.55.55,0,0,1-.8.59l-.8-.43a.59.59,0,0,0-.52,0l-.8.43a.55.55,0,0,1-.8-.59l.15-.89a.56.56,0,0,0-.16-.49L127,258a.56.56,0,0,1,.31-1l.9-.13a.56.56,0,0,0,.41-.3l.4-.82A.56.56,0,0,1,130,255.84Z"/>
              <path class="cls-1" d="M138.47,247.41l.4.81a.56.56,0,0,0,.42.31l.9.13a.55.55,0,0,1,.3.94l-.65.63a.53.53,0,0,0-.15.49l.15.9a.55.55,0,0,1-.8.58l-.81-.42a.52.52,0,0,0-.51,0l-.8.42a.56.56,0,0,1-.81-.58l.16-.9a.56.56,0,0,0-.16-.49l-.65-.63a.55.55,0,0,1,.3-.94l.9-.13a.56.56,0,0,0,.42-.31l.4-.81A.55.55,0,0,1,138.47,247.41Z"/>
              <path class="cls-1" d="M138.47,275.34l.4.81a.55.55,0,0,0,.42.3l.9.13a.56.56,0,0,1,.3.95l-.65.63a.53.53,0,0,0-.15.49l.15.89a.55.55,0,0,1-.8.59l-.81-.43a.57.57,0,0,0-.51,0l-.8.43a.56.56,0,0,1-.81-.59l.16-.89a.56.56,0,0,0-.16-.49l-.65-.63a.56.56,0,0,1,.3-.95l.9-.13a.55.55,0,0,0,.42-.3l.4-.81A.55.55,0,0,1,138.47,275.34Z"/>
            </g>
          </g>
        </g>
        <g>
          <path class="cls-3" d="M38.3,185.69H272.07a5.58,5.58,0,0,1,3.9,1.6l35.36,35a2.21,2.21,0,0,1-1.55,3.79l-307.55.81a2.21,2.21,0,0,1-1.62-3.73l33.66-35.73A5.55,5.55,0,0,1,38.3,185.69Z"/>
          <polygon class="cls-3" points="10.63 226.95 23.39 332.16 31.14 330.81 29.78 242.55 286.16 238.37 292 328.18 297.61 328.18 301.68 226.06 10.63 226.95"/>
          <polygon class="cls-7" points="10.63 226.95 301.68 226.06 301.56 228.95 11.29 232.4 10.63 226.95"/>
          <g>
            <path class="cls-3" d="M118.55,184.36l-5.53.12L92.34,214.73a2.22,2.22,0,0,0,1.84,3.47l59.45-.37a3.91,3.91,0,0,1,2-.61,4.71,4.71,0,0,1,2.64.58l54.56-.34a1.09,1.09,0,0,0,1.05-1.42l-9-30.33-85.93-1.45Z"/>
            <path class="cls-3" d="M95.81,216.53l113.54-.45a1.11,1.11,0,0,0,1.05-1.45l-10.47-33-83.35,2.72L94.9,214.78A1.11,1.11,0,0,0,95.81,216.53Z"/>
            <path class="cls-3" d="M116.38,184.76,94.6,214.5a1.11,1.11,0,0,0,1.13,1.73c4.59-1,16.34-4.26,30.23-5,19-1,29.18,5.06,29.18,5.06l7.87-33Z"/>
            <path class="cls-3" d="M155.1,216.33s8.83-5.24,22.66-5.34c11.35-.09,26.49,3.82,31.55,4.54a1.11,1.11,0,0,0,1.21-1.43l-10.16-32.47-42.86,1.8Z"/>
            <path class="cls-3" d="M107.52,215.76a.38.38,0,0,1-.39-.34.38.38,0,0,1,.34-.43c.2,0,20.7-2.54,38.36-.55a.39.39,0,0,1-.09.78c-17.57-2-38,.52-38.18.54Z"/>
            <path class="cls-3" d="M197.51,215.76h-.07a123.6,123.6,0,0,0-32.68-.46.39.39,0,1,1-.09-.78,124.61,124.61,0,0,1,32.91.47.4.4,0,0,1,.32.45A.4.4,0,0,1,197.51,215.76Z"/>
            <path class="cls-3" d="M174.05,190.56a.39.39,0,0,1-.35-.22.39.39,0,0,1,.18-.52,8,8,0,0,1,4.9-.57,13.76,13.76,0,0,0,2.52.13,4.79,4.79,0,0,0,1.33-.37,6.79,6.79,0,0,1,1.18-.37,9,9,0,0,1,3.76.43c.48.12.94.23,1.36.31a.39.39,0,1,1-.14.77c-.45-.08-.92-.2-1.41-.33a8.48,8.48,0,0,0-3.43-.41,5,5,0,0,0-1,.33,5.25,5.25,0,0,1-1.56.42,15.2,15.2,0,0,1-2.66-.13,7.13,7.13,0,0,0-4.46.49A.39.39,0,0,1,174.05,190.56Z"/>
            <path class="cls-3" d="M188,193.2l-.29,0a10.2,10.2,0,0,1-1.4-.27,6,6,0,0,0-2.15-.26c-.46,0-.88.1-1.28.16a11.57,11.57,0,0,1-3.46.1l-.6-.09a10.72,10.72,0,0,0-2.86-.18l-1.55.26-.12,0a.39.39,0,0,1-.39-.37c0-.36,0-.43,2-.68a11.29,11.29,0,0,1,3.08.18l.59.09a10.84,10.84,0,0,0,3.24-.11l1.31-.16a7,7,0,0,1,2.42.28,10,10,0,0,0,1.3.26,4,4,0,0,0,1.33-.19,5.21,5.21,0,0,1,1.32-.22.39.39,0,0,1,.39.39.38.38,0,0,1-.39.39,4.72,4.72,0,0,0-1.13.2A5.21,5.21,0,0,1,188,193.2Z"/>
          </g>
        </g>
        <path d="M61.14,130.75a.19.19,0,0,1-.19-.19v0a.19.19,0,0,1,.38,0v0A.19.19,0,0,1,61.14,130.75Z"/>
        <path class="cls-3" d="M228.86,64.05a.75.75,0,0,1-.64-.34.77.77,0,0,1,0-.86l11.19-17.36L225.88,49a.78.78,0,1,1-.39-1.51l15.45-4a.79.79,0,0,1,.83.3.77.77,0,0,1,0,.88L230.54,62.11l34.16-7.33a.78.78,0,0,1,.33,1.53L229,64A.44.44,0,0,1,228.86,64.05Z"/>
        <path class="cls-3" d="M276.73,42a.78.78,0,0,1-.65-1.22l12.71-18.88-19.57,5.86a.78.78,0,1,1-.44-1.5l21.65-6.48a.79.79,0,0,1,.86.28.8.8,0,0,1,0,.9l-13,19.28L312.63,36a.8.8,0,0,1,.88.68.79.79,0,0,1-.69.87l-36,4.42Z"/>
        <path class="cls-3" d="M324.32,25.7a.76.76,0,0,1-.61-.29.75.75,0,0,1-.12-.76l8.46-22.44L313.72,9.92a.78.78,0,0,1-1-.42.77.77,0,0,1,.42-1l20-8.42a.77.77,0,0,1,.84.16.77.77,0,0,1,.19.84L325.51,24l24.77-3.54A.78.78,0,0,1,350.5,22L324.43,25.7Z"/>
        <g>
          <path class="cls-1" d="M53.94,124.94c-2.74-3.19,1.67-12.83,10-20.64s16.47-12.11,19.39-9.08c1.06,1.1,1.58,8.62-9.06,19C66.07,122.15,56.68,128.14,53.94,124.94Z"/>
          <path class="cls-1" d="M74.65,99.33s3,6.64-3.9,12.39c-5.94,5-11.37,2.68-11.37,2.68a34.7,34.7,0,0,1,5.85-8.46C70.85,100.19,74.65,99.33,74.65,99.33Z"/>
          <path class="cls-1" d="M54.94,125.61s-4.15-2-9.58-11.92c-3.94-7.21-6.27-16.88-6.27-16.88S30.84,88.07,30,85.62c-1.14-3.25,4.62-8.31,6.82-9.2S50.58,83,50.58,83s10.94-1.3,19.8,2.57c10.93,4.78,13.28,10,13.28,10s-6.27.15-17.24,11C56.78,116.15,54.94,125.61,54.94,125.61Z"/>
          <path class="cls-1" d="M61.09,83.11A7,7,0,0,0,62.61,85c1,1,2,1.65,1.89,2.61-.18,1.51-3.47,5.82-2.4,6.83s4.76-2.81,6.61-2.68c1.12.07,3.92,4,5,3.49s-.67-4.76-.38-5.81c.06-.23.72-.42,1.38-.58s1.54-.3,1.54-.3a51.28,51.28,0,0,0-7.75-3.78A33.26,33.26,0,0,0,61.09,83.11Z"/>
          <path class="cls-1" d="M18.29,207.13c0-2.3-2.24-6.6,16.85-6.13,18.31.46,19,2.5,18.46,6.13-.33,2.27-7.91,4.16-17.65,4.16S18.29,209.43,18.29,207.13Z"/>
          <path class="cls-8" d="M58,96.81c1.53-1.38,2-9-2.45-9.36-1.87-.14-2.59,4-2.59,4s-4.44.7-4.22,2.56C49.3,98.53,56.77,97.94,58,96.81Z"/>
          <path class="cls-1" d="M73.45,95.92c-.85,0-1.84-1-3-2a8,8,0,0,0-1.84-1.52c-.67,0-1.94.77-3,1.42-1.65,1-3.08,1.95-4,1.1s0-2.85,1.12-4.9a11,11,0,0,0,1.1-2.42c.06-.51-.46-1-1.32-1.77l-.39-.34a7.33,7.33,0,0,1-1.65-2.1.59.59,0,1,1,1.06-.5A6.5,6.5,0,0,0,63,84.59l.38.34c.94.84,1.84,1.63,1.7,2.78a10.21,10.21,0,0,1-1.22,2.83c-.46.87-1.69,3.19-1.36,3.5s1.83-.78,2.56-1.24c1.35-.86,2.64-1.66,3.68-1.6.69,0,1.43.73,2.58,1.85a9,9,0,0,0,2.07,1.69,9.07,9.07,0,0,0-.36-2.8,6.57,6.57,0,0,1-.31-2.62c.14-.52.75-.75,1.82-1,.78-.18,1.55-.3,1.58-.31a.59.59,0,0,1,.67.49.59.59,0,0,1-.49.67s-.76.12-1.5.29a6.74,6.74,0,0,0-1,.29,12.35,12.35,0,0,0,.33,1.93c.41,1.84.8,3.57-.22,4.12A1.11,1.11,0,0,1,73.45,95.92Z"/>
          <path class="cls-1" d="M54.94,126.2l-.15,0a.59.59,0,0,1-.42-.72,47.53,47.53,0,0,1,6-12.66c4-6.16,11.32-14.24,23.15-17.74a.59.59,0,1,1,.33,1.13c-22,6.5-28.26,29.34-28.32,29.57A.59.59,0,0,1,54.94,126.2Z"/>
          <path class="cls-1" d="M57.56,95.66c1.25-1.13,1.62-7.42-2-7.69-1.54-.12-2.13,3.28-2.13,3.28s-3.65.57-3.47,2.1C50.39,97.07,56.53,96.59,57.56,95.66Z"/>
          <path class="cls-1" d="M54.44,96.91a7.78,7.78,0,0,1-3.28-.64,2.91,2.91,0,0,1-1.8-3c.14-2,2.44-2.47,3.51-2.6.13-1,.64-3.19,2.63-3.32a3,3,0,0,1,3.09,2c.92,2.2.41,5.74-.64,6.69A6.24,6.24,0,0,1,54.44,96.91Zm1.29-8.36h-.15c-1.49.1-1.59,2.69-1.59,2.71a.58.58,0,0,1-.57.57s-2.79.12-2.89,1.56a1.77,1.77,0,0,0,1.15,1.83,7.57,7.57,0,0,0,5.48,0c.59-.54,1.15-3.47.35-5.36A1.85,1.85,0,0,0,55.73,88.55Z"/>
          <path class="cls-1" d="M18.07,204.43c0-2.78,8-5,18-5s17.57,2.38,17.57,5.16-7.66,4.9-17.57,4.9S18.07,207.21,18.07,204.43Z"/>
          <path class="cls-1" d="M39.73,97.45l-.16,0a.6.6,0,0,1-.41-.72c.1-.37,2.57-9.19,10.49-13.67a.58.58,0,0,1,.57,1c-7.48,4.24-9.9,12.87-9.93,13A.58.58,0,0,1,39.73,97.45Z"/>
          <path class="cls-1" d="M26.94,204.61a1.56,1.56,0,0,1-1.55-1.45c0-.54-4-54-2.27-81.21C24.79,95.32,35,92.13,35.47,92a1.56,1.56,0,0,1,.87,3c-.2.07-8.6,3.26-10.1,27.14-1.7,27,2.22,80.24,2.26,80.78a1.55,1.55,0,0,1-1.44,1.67Z"/>
          <path class="cls-1" d="M49.65,114.24a4.1,4.1,0,0,1-4.06-2.44,3.33,3.33,0,0,1-.08-2.59,2.92,2.92,0,0,1-1.37-1.76,3,3,0,0,1,.5-2.49,2.84,2.84,0,0,1,2.27-1.14,2,2,0,0,1,2.3,2.18h1.52a2.62,2.62,0,0,1,1.5-2,2.58,2.58,0,0,1,3.08.87,2.49,2.49,0,0,1,.17,2.17,2.72,2.72,0,0,1-.42.77,3.69,3.69,0,0,1,.69,2.95,4.07,4.07,0,0,1-3,3A11.19,11.19,0,0,1,49.65,114.24ZM47.08,105H47a1.69,1.69,0,0,0-1.38.67,1.83,1.83,0,0,0-.31,1.5c.14.54.7,1.11,1.08,1.11a.58.58,0,0,1,.52.32.59.59,0,0,1,0,.6,2.2,2.2,0,0,0-.18,2.12c.82,1.78,2.64,2.19,5.75,1.28.33-.09,2-.64,2.19-2.07.15-.89-.09-2-.73-2.21a.59.59,0,0,1-.37-.57.58.58,0,0,1,.41-.53.94.94,0,0,0,.47-.61,1.38,1.38,0,0,0,0-1.12,1.44,1.44,0,0,0-1.7-.44c-.49.19-.66.75-.79,1.31-.08.31-.13.55-.38.71s-.21.1-1.26.1c-.53,0-1.2,0-1.47,0a.58.58,0,0,1-.62-.44,3.18,3.18,0,0,1-.07-.55C48,105.39,47.91,105,47.08,105Z"/>
          <path class="cls-1" d="M49.35,109.5a.76.76,0,1,1-.76-.84A.8.8,0,0,1,49.35,109.5Z"/>
          <path class="cls-1" d="M52.67,109.5a.76.76,0,1,1-.75-.84A.79.79,0,0,1,52.67,109.5Z"/>
        </g>
        <g>
          <path class="cls-1" d="M174.05,184.89c-.56.77-1.16,1.48-1.76,2.18s-1.24,1.39-1.88,2.06c-1.28,1.34-2.61,2.62-4,3.87-.68.62-1.37,1.24-2.07,1.84s-1.4,1.21-2.12,1.8c-1.43,1.18-2.88,2.34-4.42,3.4a1,1,0,0,1-1.33-1.43c1.16-1.46,2.41-2.83,3.69-4.18.64-.67,1.28-1.33,1.94-2s1.31-1.31,2-1.94c1.34-1.28,2.71-2.52,4.13-3.71.72-.59,1.44-1.17,2.19-1.73s1.49-1.11,2.29-1.61a1,1,0,0,1,1.37.32A1,1,0,0,1,174.05,184.89Z"/>
          <path class="cls-1" d="M102.83,175.51s-14.61,8.29-6.32,18.84c11.51,14.64,54,9.35,54,9.35a8.66,8.66,0,0,0,4.4,3.19,20,20,0,0,0,7.39,1.27c2-.29.86-2,.86-2s3.69.27,4.26-.93-2-2.45-2-2.45,4.69-.39,4.62-1.93-5.1-1.88-5.1-1.88,4.29-1.67,2.78-2.59c-.91-.56-4.3-.56-6.17-.68a8.94,8.94,0,0,1-2.7-.48s1.31-1.07,2.13-1.63,2-1.62,1.82-2c-.35-.8-2.75-.44-5.32.42a16.72,16.72,0,0,0-5,3l-9.38-2.53s-23.17,3.78-33.88-4.41c-6.86-5.24-3.61-11.44-3.61-11.44Z"/>
          <path class="cls-9" d="M136.28,194.51s-22.5,3.8-29.25,0-1.59-11-1.59-11Z"/>
          <path class="cls-1" d="M145.11,67.25a19.94,19.94,0,0,1,6.42-11.09c8.28-7.3,15.12-6.55,17.89-2.87,2.51,3.34-8,12.18-8,12.18s15.78-8.45,31.71-6.12c24.44,3.58,30,16.21,28.68,20.44s-4.64,4.72-7.16,4.37a17.88,17.88,0,0,0-4.25,0s15.24,1.13,20.43,22.9c3.38,14.21-1.71,28.8-6,33.7-7.2,8.27-12.86,5.92-12.86,5.92s.78,7.28-7.83,12.77c-5.64,3.61-13.67,3.19-13.67,3.19l-16.88-9.92Z"/>
          <path class="cls-1" d="M177.4,154.45c1,.08,3.66-.19,12.32,5.24a50.23,50.23,0,0,1,8.64,7A13.89,13.89,0,0,1,195,173.3a20.06,20.06,0,0,1-5.61,4.13,22.24,22.24,0,0,1,2.15,1.9,19,19,0,0,1,2.13,2.64l-36.9,1.55S175.81,154.32,177.4,154.45Z"/>
          <path class="cls-1" d="M172.82,139.24s18.16,21.5-13.54,45.37c-18,13.54-40.76,11.09-49.72,5-7.51-5.07-4.66-10.1-5.44-12.06-1.72-4.38-8.65-10.39-5.93-20.46,3.72-13.75,5.42-26.61,21.35-34.4S161.92,126,161.92,126s4.2-3.87,9.26-3.25,8.55,5.52,7.26,11.85C177.59,138.75,172.82,139.24,172.82,139.24Z"/>
          <path class="cls-1" d="M97.82,164.57s.17.76.4,1.61.51,1.62.51,1.62a6.59,6.59,0,0,0,4.51.08c3.36-1.18,4-2.92,4-2.92s7.36,5.82,17.31-.11c8-4.74,9.25-13.6,9.25-13.6s3.89,1.52,9.92-4c5.77-5.25,5.4-9.94,5.4-9.94a9.32,9.32,0,0,0,4.54.23,10.86,10.86,0,0,0,6.12-2.91s-10.47-17.8-31.07-10.55C101.75,133.59,97.82,164.57,97.82,164.57Z"/>
          <path class="cls-1" d="M163.17,124.89s3.43,7-1,9.87c-6.34,4.16-20-7.93-20-7.93a29.75,29.75,0,0,1-.73,9.27c-1.05,4-3.55,7.77-6.46,8.11-3.67.42-5.07-10.36-5.07-10.36s-.23,20.78-9.94,27.28c-6.06,4.07-10.19,1.17-10.74-3.2-.34-2.7.8-7.79.8-7.79s-4.59,10.47-12,15.1c-11.23,6.95-19.6,1.95-19.16-3,.48-5.3,6-8.47,10.89-15.28a30.12,30.12,0,0,1-5.42-25.53c6.84-30,40.76-43.95,67.74-39.11,25.7,4.61,39.84,23.19,39.35,47.26C191,149.46,178,153.79,178,153.79a32.76,32.76,0,0,0-1.53-7.68,27.41,27.41,0,0,0-3.72-6.82,6.8,6.8,0,0,0,4.77-4.64c1.19-4.14-1.44-8.93-5-10.68C168.61,122,163.17,124.89,163.17,124.89Z"/>
          <path class="cls-5" d="M111.11,143.81a7.4,7.4,0,0,0-4.56,4.6c-1.47,4.48,1.41,5.78,1.41,5.78s.37-.67.92-1.7,1.12-2.13,1.12-2.13.48-1.91.71-3.47S111.11,143.81,111.11,143.81Z"/>
          <path class="cls-1" d="M142.29,128.62a.78.78,0,0,1-.78-.72,11.23,11.23,0,0,0-1.35-4.28.78.78,0,1,1,1.34-.8,12.48,12.48,0,0,1,1.57,5,.77.77,0,0,1-.72.83Z"/>
          <path class="cls-5" d="M152.32,116.29s6.69-2.07,10.71,1.54c3.55,3.18,2.46,6,2.46,6l-1.15.48a7,7,0,0,0-1.17.64,17.49,17.49,0,0,0-4.28-5.28A18,18,0,0,0,152.32,116.29Z"/>
          <path class="cls-1" d="M132,173.07c1.17-.43,3.6,2.32,3.15,4.65s-3.1,3.68-3.89,2.45.22-1.48.87-3.24C132.85,174.84,131.2,173.35,132,173.07Z"/>
          <path class="cls-1" d="M145.88,149.24c-.31-.57-1.45-.18-2.22,0s-5.08,1.87-4.1,3.57c.46.81,1.8.73,2.57.45C143.72,152.72,146.5,150.39,145.88,149.24Z"/>
          <path class="cls-1" d="M105.41,173.1c-.7-.25-.28-1.29-.08-1.77.33-.77,2.1-4.2,3.44-3.67,2.67,1.05-.7,4-1.77,4.86C106.62,172.82,105.93,173.3,105.41,173.1Z"/>
          <path class="cls-10" d="M165.58,150.53a5.73,5.73,0,0,0-3.75,3.39c-.47,1.23.06,2.83,1.63,2.52a5.68,5.68,0,0,0,3.75-3.26C167.94,151.48,167.35,150.13,165.58,150.53Z"/>
          <path class="cls-1" d="M161.88,168.83c-.68-.77-3.84,1.07-4.86,3-.54,1.06-.41,2.06.41,2.39,1.87.74,2.75-2.46,3.34-3.56S162.39,169.41,161.88,168.83Z"/>
          <path class="cls-5" d="M208.79,84.46A3.87,3.87,0,0,0,211.53,87c3.21.76,3.07-1.58,3.07-1.58l-1.55-.58a22.39,22.39,0,0,0-2.53-.62Z"/>
          <path class="cls-5" d="M181.09,97.69s27.48,28,13.39,48.31c-7.58,10.94-15.35,7.48-15.35,7.48s8-3.79,11-14.91C196.16,116,181.09,97.69,181.09,97.69Z"/>
          <path class="cls-10" d="M105.65,186s3-1.93,5.4.29a3.31,3.31,0,0,1,.5,4.45,10.75,10.75,0,0,1-3-1.75A18.62,18.62,0,0,1,105.65,186Z"/>
          <path class="cls-1" d="M159.78,196.12h-.1l-2-.33a.59.59,0,1,1,.2-1.16l2,.34a.58.58,0,0,1-.09,1.16Z"/>
          <path class="cls-1" d="M163.68,199.69a28.73,28.73,0,0,1-3.29-.24.58.58,0,0,1-.5-.66.57.57,0,0,1,.66-.5,20.57,20.57,0,0,0,4.32.15.58.58,0,1,1,.2,1.15A8.24,8.24,0,0,1,163.68,199.69Z"/>
          <path class="cls-1" d="M165.54,203.41h-.07c-2-.23-4.9-.66-4.93-.66a.59.59,0,1,1,.17-1.16s2.95.42,4.89.65a.6.6,0,0,1,.52.65A.59.59,0,0,1,165.54,203.41Z"/>
          <path class="cls-1" d="M163.39,206.79h-.1a22.62,22.62,0,0,1-4.08-1.06.59.59,0,0,1-.32-.76.6.6,0,0,1,.77-.32,20.93,20.93,0,0,0,3.82,1,.59.59,0,0,1,.49.67A.6.6,0,0,1,163.39,206.79Z"/>
          <path class="cls-1" d="M128.77,195.09c-6.09,0-13.13-1-19.16-4.65s-6-8.16-5.94-10.82a9.17,9.17,0,0,0,0-1.29,4,4,0,0,0-1-2.24.59.59,0,0,1,0-.83.59.59,0,0,1,.83,0,5.29,5.29,0,0,1,1.28,2.94,13.72,13.72,0,0,1,0,1.45c-.09,2.56-.23,6.43,5.36,9.78,13.61,8.15,32.68,2.72,32.87,2.66a.59.59,0,1,1,.33,1.13A58.84,58.84,0,0,1,128.77,195.09Z"/>
          <path class="cls-1" d="M198,168.05s10,7.53,10,17.52S197,202.39,197,202.39a9.8,9.8,0,0,1-2.65,6.42,11.83,11.83,0,0,1-5.52,3.32c-1.45.32-2.88.13-2.83,0a4.43,4.43,0,0,1-2.68,0c-1.09-.55.21-1.48.21-1.48s-2.3.51-3.38-.08c-1.35-.75,0-1.6,0-1.6s-1.59-.57-.48-2.16,5.67-5,5.67-5-5.45.07-5.5-1.12,1.93-2,3.67-2.63a12.5,12.5,0,0,1,5.31-.66s5.61-4,6.77-8.49c1.37-5.36-6.22-11.41-6.22-11.41a18.75,18.75,0,0,0,6-4.72A12.38,12.38,0,0,0,198,168.05Z"/>
          <path class="cls-1" d="M180.18,209.35a.58.58,0,0,1-.08-1.16,17.4,17.4,0,0,0,5.6-2.63.59.59,0,1,1,.63,1c-3.89,2.47-6,2.79-6.07,2.8Z"/>
          <path class="cls-1" d="M183.18,211.19a.58.58,0,0,1-.09-1.16,9.33,9.33,0,0,0,4.11-2,.6.6,0,0,1,.83.06.59.59,0,0,1-.07.83,10.28,10.28,0,0,1-4.69,2.29Z"/>
          <path class="cls-1" d="M186.12,212.62a.59.59,0,0,1-.56-.41.6.6,0,0,1,.38-.74,9.49,9.49,0,0,0,3.28-1.94.59.59,0,0,1,.83,0,.59.59,0,0,1,0,.83,10.64,10.64,0,0,1-3.73,2.22A.57.57,0,0,1,186.12,212.62Z"/>
          <path class="cls-9" d="M189.42,177.51l.89.75a7.33,7.33,0,0,0,7.34-2.53,6.72,6.72,0,0,0,.82-7.3l-.51-.38a10.56,10.56,0,0,1-3.3,5.52A31.76,31.76,0,0,1,189.42,177.51Z"/>
          <path class="cls-5" d="M105.48,117a26,26,0,0,0-4.79,12.44c-.13,1.54,0,4.47,1.7,5.21,2.34,1,4.27-.83,5.72-2.39,2.58-2.78,8.57-12.82,6-16.81C113.07,113.8,108.42,113,105.48,117Z"/>
          <path class="cls-5" d="M128.23,107.76c-2.42,1.08-3.35,4.51-3.31,7.08,0,1.66,1.7,3.92,3.5,2.74a7.65,7.65,0,0,0,3.14-7C131.26,108.74,130.29,106.83,128.23,107.76Z"/>
          <path class="cls-1" d="M110.08,151.07l-.19,0a.78.78,0,0,1-.57-1,57.25,57.25,0,0,0,1.3-8.91.78.78,0,0,1,.84-.72.77.77,0,0,1,.72.83,58.94,58.94,0,0,1-1.35,9.18A.78.78,0,0,1,110.08,151.07Z"/>
          <path class="cls-1" d="M87.89,150.12a.79.79,0,0,1-.58-1.31,34.07,34.07,0,0,0,4.38-6,.79.79,0,0,1,1-.34.8.8,0,0,1,.34,1.06,35,35,0,0,1-4.62,6.38A.75.75,0,0,1,87.89,150.12Z"/>
          <path class="cls-1" d="M130,135.36a.79.79,0,0,1-.77-.64,15,15,0,0,1-.18-3,.8.8,0,0,1,.82-.75.78.78,0,0,1,.74.82,13.86,13.86,0,0,0,.16,2.66.77.77,0,0,1-.63.9Z"/>
          <path class="cls-1" d="M163,125.64a.78.78,0,0,1-.71-.45,16,16,0,0,0-13.77-8.6.78.78,0,0,1-.75-.81.79.79,0,0,1,.81-.75,17.32,17.32,0,0,1,15.13,9.5.79.79,0,0,1-.38,1A.75.75,0,0,1,163,125.64Z"/>
          <path class="cls-5" d="M141.23,123.89s3.26.74,4.07,2.71a1.69,1.69,0,0,1-.57,2.28s-.54-.43-1.23-1a15.32,15.32,0,0,0-1.3-1,12.73,12.73,0,0,0-.42-1.68A13.62,13.62,0,0,0,141.23,123.89Z"/>
          <path class="cls-1" d="M207.57,85.44a.79.79,0,0,1-.76-.61.76.76,0,0,1,.59-.93,27.29,27.29,0,0,1,5.55-.66h.11a.77.77,0,0,1,.77.78.78.78,0,0,1-.78.78H213a26.34,26.34,0,0,0-5.21.62Z"/>
          <path class="cls-1" d="M89.86,119.44h0a.79.79,0,0,1-.75-.82c0-.19.23-4.69,3.29-7.61a.79.79,0,0,1,1.11,0,.78.78,0,0,1,0,1.1,10.75,10.75,0,0,0-2.81,6.55A.78.78,0,0,1,89.86,119.44Z"/>
          <path class="cls-1" d="M114.72,104.27a.77.77,0,0,1-.77-.71,9.53,9.53,0,0,1,1.86-6.35.79.79,0,0,1,1.1-.12.78.78,0,0,1,.12,1.1,8.2,8.2,0,0,0-1.53,5.23.76.76,0,0,1-.7.84Z"/>
          <path class="cls-1" d="M121.26,139.08a.72.72,0,0,1-.35-.08.79.79,0,0,1-.36-1,7.44,7.44,0,0,0,.45-3.69.78.78,0,0,1,.7-.85.77.77,0,0,1,.85.69,9,9,0,0,1-.59,4.53A.78.78,0,0,1,121.26,139.08Z"/>
          <path class="cls-1" d="M180.56,116.43a.77.77,0,0,1-.75-.55,13.23,13.23,0,0,0-3.16-5.1.79.79,0,0,1,0-1.11.78.78,0,0,1,1.1,0,14.55,14.55,0,0,1,3.59,5.79.79.79,0,0,1-.52,1Z"/>
          <path class="cls-1" d="M146.62,97.7a.78.78,0,0,1-.67-.38,11.08,11.08,0,0,0-4-3.66.79.79,0,1,1,.73-1.39,12.5,12.5,0,0,1,4.6,4.25.77.77,0,0,1-.27,1.07A.71.71,0,0,1,146.62,97.7Z"/>
          <path class="cls-1" d="M194.16,71.89a.8.8,0,0,1-.3-.06,16.22,16.22,0,0,0-6.23-1.17.78.78,0,0,1-.83-.73.79.79,0,0,1,.73-.83,17.32,17.32,0,0,1,6.94,1.29.78.78,0,0,1,.41,1A.76.76,0,0,1,194.16,71.89Z"/>
          <path class="cls-1" d="M197.14,108.53a.79.79,0,0,1-.72-.48,22.38,22.38,0,0,0-3.85-5.83.78.78,0,0,1,1.13-1.07,23.18,23.18,0,0,1,4.16,6.3.78.78,0,0,1-.41,1A.81.81,0,0,1,197.14,108.53Z"/>
          <path class="cls-1" d="M217.68,107.28a.79.79,0,0,1-.77-.65A11.6,11.6,0,0,0,214,101a.78.78,0,1,1,1.09-1.11,13,13,0,0,1,3.34,6.44.77.77,0,0,1-.63.9Z"/>
          <path class="cls-1" d="M210.39,132h0a.78.78,0,0,1-.73-.83,20.45,20.45,0,0,0-.57-6.28.78.78,0,1,1,1.47-.52,21.22,21.22,0,0,1,.66,6.9A.79.79,0,0,1,210.39,132Z"/>
          <path class="cls-1" d="M178.51,154.73a.79.79,0,0,1-.71-.46.78.78,0,0,1,.39-1,22.46,22.46,0,0,0,11.47-15.67c3.68-20.17-4.24-33.26-9.29-39.28a.78.78,0,0,1,.09-1.1.79.79,0,0,1,1.1.1c5.23,6.22,13.44,19.77,9.64,40.56a23.65,23.65,0,0,1-12.36,16.81A.78.78,0,0,1,178.51,154.73Z"/>
          <path class="cls-1" d="M143.49,161a18.34,18.34,0,0,0,4.86-1,8,8,0,0,0,2-1.09,5.61,5.61,0,0,0,1.43-1.64,6.49,6.49,0,0,0,.72-2.08c.07-.39.11-.78.15-1.2l0-.67a5.57,5.57,0,0,1,.15-.86,2.28,2.28,0,0,1,.13-.35,1.81,1.81,0,0,1,.3-.41,2.13,2.13,0,0,1,.54-.41,5.79,5.79,0,0,1,.76-.32c.43-.14.77-.25,1.09-.38a4,4,0,0,0,1.63-1.24l0,0a.67.67,0,0,1,.93-.1.67.67,0,0,1,.24.61,3.84,3.84,0,0,1-.59,1.48,4.34,4.34,0,0,1-1.19,1.15,7.76,7.76,0,0,1-1.31.67l-.45.2s0,0,0,0l0,0,0-.05s0-.08.05-.08,0-.05,0-.05,0,.25-.06.44l-.06.64c-.05.45-.1.93-.2,1.41a8.17,8.17,0,0,1-1.07,2.82,7.51,7.51,0,0,1-2.11,2.2,9.08,9.08,0,0,1-2.67,1.2,14.07,14.07,0,0,1-2.75.49,15.79,15.79,0,0,1-2.75,0,.65.65,0,0,1,0-1.3Z"/>
          <path class="cls-1" d="M129.27,195.09c-7.88,0-15.43-1.85-20-5-5.9-4-5.69-8.1-5.57-10.56v-.38a.59.59,0,0,1,1.18.05l0,.39c-.12,2.5-.29,5.92,5.06,9.53,4.76,3.21,12.85,5,21.12,4.73a49.25,49.25,0,0,0,27.92-9.75c11.1-8.36,17.27-17.31,18.32-26.61a25.48,25.48,0,0,0-4.88-17.92.59.59,0,0,1,.9-.75,26.19,26.19,0,0,1,5.15,18.78c-1.09,9.64-7.41,18.87-18.79,27.43a50.31,50.31,0,0,1-28.57,10Z"/>
          <path class="cls-1" d="M118,176.19a21,21,0,0,1-3.43,3.08,10.65,10.65,0,0,1-2.13,1.21c-.2.08-.41.15-.64.22l-.34.08-.29.06c-.39.08-.78.14-1.18.19a13.13,13.13,0,0,1-2.43,0,10.65,10.65,0,0,1-2.41-.51l-.51-.17-.13,0h.12a.71.71,0,0,0,.31-.07c.13-.06.12-.07.1,0l-.14.11c-.11.11-.26.24-.42.38a4.09,4.09,0,0,1-1.18.74,2.75,2.75,0,0,1-1.44.19.75.75,0,0,1-.63-.85.73.73,0,0,1,.33-.51l.11-.08a4.3,4.3,0,0,0,1.16-1.13l.34-.41a3.12,3.12,0,0,1,.26-.27A2.11,2.11,0,0,1,104,178a1.66,1.66,0,0,1,.58-.13h.22l.17,0,.4.1.54.17a8.34,8.34,0,0,0,1.88.37,9.89,9.89,0,0,0,2,0c.33,0,.66-.08,1-.13l.25-.05.19,0,.41-.12a11.22,11.22,0,0,0,1.72-.88,30.68,30.68,0,0,0,3.35-2.5l0,0a1,1,0,0,1,1.33,1.38Z"/>
          <path class="cls-1" d="M168.39,131.25a2.83,2.83,0,0,0,.73,1.44,2.8,2.8,0,0,0,3.6.14,1.71,1.71,0,0,0,.5-1.26,2.53,2.53,0,0,0-.48-1.23c-.76-1.09-2.54-2.39-3.78-1.24A2.31,2.31,0,0,0,168.39,131.25Z"/>
          <path class="cls-5" d="M126.74,83.92a10.94,10.94,0,0,0,8.49,3.72c5.69,0,11.28-3.36,11.28-3.36s.53,2.12,4.16,2.57a6.32,6.32,0,0,0,4.62-.9s8,9,15.49,9c12.07,0,10.32-7.79,10.32-7.79l-27.39-9.29Z"/>
          <path class="cls-1" d="M149.86,74a16.27,16.27,0,0,0-13-9.44,12.85,12.85,0,0,0-14.27,8.89s-3,7.83,2.73,10.17c8.2,3.37,20.55-2,20.55-2Z"/>
          <path class="cls-1" d="M157.37,74.2a21.65,21.65,0,0,1,16.07-2.73c6.4,1.35,10.45,6.39,9.17,11.32S178.91,95,167,91.17c-6.83-2.21-13.1-8.36-13.1-8.36Z"/>
          <path class="cls-1" d="M159.31,78.11a.59.59,0,0,1-.54-.35.58.58,0,0,1,.3-.77,10.16,10.16,0,0,1,5.17-.51.59.59,0,0,1,.5.66.58.58,0,0,1-.66.5,9.26,9.26,0,0,0-4.54.42A.59.59,0,0,1,159.31,78.11Z"/>
          <path class="cls-1" d="M162,82.88a.39.39,0,0,1-.15,0c-3.15-.85-4-1.74-4.07-1.84a.59.59,0,0,1,.88-.78s.79.75,3.5,1.49a.6.6,0,0,1,.41.72A.59.59,0,0,1,162,82.88Z"/>
          <path class="cls-1" d="M145.78,74a.63.63,0,0,1-.37-.12c-2.21-1.78-3.09-1.8-3.1-1.8s.05,0,.05,0l-.17-1.16c.29,0,1.4,0,4,2a.58.58,0,0,1-.37,1Z"/>
          <path class="cls-1" d="M140.61,78.19c-.71,0-1.14,0-1.17,0a.59.59,0,0,1,.1-1.17,21.5,21.5,0,0,0,3.87-.14.59.59,0,0,1,.14,1.17A25.81,25.81,0,0,1,140.61,78.19Z"/>
          <path class="cls-1" d="M155.34,72.43c-2.75-1.17-5.48-1.12-8.92,3.58s0,7.56,2.61,7.85c3.39.37,5.43-.76,7.19-3.51C158.38,77,158.1,73.6,155.34,72.43Z"/>
          <path class="cls-1" d="M145.45,82.05a.58.58,0,0,1-.39-.15,2.66,2.66,0,0,1-.72-2.12c.06-1.85,1.29-4.74,4.57-7.3a.59.59,0,0,1,.73.93c-3,2.31-4.08,4.82-4.13,6.4a1.6,1.6,0,0,0,.33,1.21.59.59,0,0,1-.39,1Z"/>
          <path class="cls-1" d="M154.25,83.2a.61.61,0,0,1-.43-.19.59.59,0,0,1,0-.83,13.2,13.2,0,0,0,2.69-3.66,5.81,5.81,0,0,0,.32-4,.58.58,0,0,1,.36-.75.59.59,0,0,1,.75.35,7.06,7.06,0,0,1-.35,4.88,14.6,14.6,0,0,1-3,4.05A.61.61,0,0,1,154.25,83.2Z"/>
          <path class="cls-1" d="M188.86,178.4a.54.54,0,0,1-.39-.16,28.63,28.63,0,0,0-8-4.65.59.59,0,0,1-.35-.75.61.61,0,0,1,.76-.35,29.42,29.42,0,0,1,8.35,4.89.6.6,0,0,1,0,.83A.63.63,0,0,1,188.86,178.4Z"/>
          <path class="cls-1" d="M188.86,178.4a.61.61,0,0,1-.49-.27.59.59,0,0,1,.17-.81c.08,0,8-5.22,9.12-10.25a.6.6,0,0,1,.71-.44.59.59,0,0,1,.43.71c-1.27,5.49-9.28,10.74-9.62,11A.55.55,0,0,1,188.86,178.4Z"/>
        </g>
        <g>
          <path class="cls-1" d="M235.93,186.22h52.38v13.52H235.93s-.91-2.08-.78-7.25A34.19,34.19,0,0,1,235.93,186.22Z"/>
          <path class="cls-1" d="M235.67,186.2s2.61,1.47,2.48,6.93-2.47,6.45-2.47,6.45-2.3-2-2.19-6.69S235.67,186.2,235.67,186.2Z"/>
          <path class="cls-1" d="M289.25,201.5l-53.13-.1a1.79,1.79,0,0,1-1-.28c-.38-.25-3.66-2.57-3.43-8.94a15.31,15.31,0,0,1,2-6.74,1.77,1.77,0,0,1,1.5-.84l54,0a1.76,1.76,0,0,1,0,3.51l-52.88,0a11.76,11.76,0,0,0-1,4.2c-.11,3.31,1,5,1.54,5.58l52.46.1a1.76,1.76,0,1,1,0,3.51Z"/>
          <path class="cls-1" d="M235.83,202.15h56.56v9.07H235.83s-1-1.4-.84-4.87A15.09,15.09,0,0,1,235.83,202.15Z"/>
          <path class="cls-1" d="M235,202.15s2.63.36,2.62,4.68c0,3.73-2,4.42-2,4.42a6.28,6.28,0,0,1-1.65-4.8C234.11,203.36,235,202.15,235,202.15Z"/>
          <path class="cls-1" d="M293.31,212.14l-57.21-.07a.89.89,0,0,1-.36-.07,5.86,5.86,0,0,1-3.13-5.83,8.2,8.2,0,0,1,1.92-4.5.88.88,0,0,1,.66-.29l58,0a.89.89,0,0,1,0,1.78H235.62a6.21,6.21,0,0,0-1.24,3.11,4.18,4.18,0,0,0,1.94,4l57,.07a.89.89,0,1,1,0,1.77Z"/>
          <path class="cls-1" d="M238.31,172.28h46.87v11.66H238.31s-.81-1.79-.69-6.25A28.79,28.79,0,0,1,238.31,172.28Z"/>
          <path class="cls-1" d="M237.78,172.27s2.82,1.27,2.68,6-2.66,5.55-2.66,5.55-1.25-1.74-1.13-5.76A14.09,14.09,0,0,1,237.78,172.27Z"/>
          <path class="cls-1" d="M253.1,161.44h20.81a3.28,3.28,0,0,1,2.41,1l10.06,9.4-49.71-.14,14.44-9.64A3.32,3.32,0,0,1,253.1,161.44Z"/>
          <path class="cls-1" d="M285.92,184.92l-47.86-.09a1,1,0,0,1-.54-.16c-.12-.07-2.87-1.95-2.69-7.23a12.71,12.71,0,0,1,1.61-5.54,1,1,0,0,1,.84-.47l48.57,0a1,1,0,1,1,0,2l-48,0a10.67,10.67,0,0,0-1.08,4.13c-.12,3.36,1.14,4.9,1.62,5.37l47.51.09a1,1,0,1,1,0,1.95Z"/>
          <path class="cls-1" d="M258,165.48a.18.18,0,0,1-.18-.14.19.19,0,0,1,.13-.23c.7-.17,10.15,0,11.22,0a.18.18,0,0,1,.18.19.18.18,0,0,1-.18.18c-4.21-.07-10.63-.13-11.13,0Z"/>
          <path class="cls-1" d="M267.45,163.57l-7.57-.09a.19.19,0,0,1,0-.37l7.56.08a.2.2,0,0,1,.19.19A.19.19,0,0,1,267.45,163.57Z"/>
          <path class="cls-1" d="M247.38,176.56a.59.59,0,0,1,0-1.17l15.3-.1a.59.59,0,0,1,0,1.17l-15.3.1Z"/>
          <path class="cls-1" d="M272.59,176.44l-6.39-.1a.59.59,0,0,1-.58-.6.58.58,0,0,1,.6-.57l6.38.1a.6.6,0,0,1,.58.6A.59.59,0,0,1,272.59,176.44Z"/>
          <path class="cls-1" d="M276.73,179.71H248.46a.59.59,0,0,1,0-1.17h28.27a.59.59,0,0,1,0,1.17Z"/>
          <path class="cls-1" d="M283.38,192.76H248.46a.59.59,0,0,1,0-1.17h34.92a.59.59,0,0,1,0,1.17Z"/>
          <path class="cls-1" d="M271.84,207.27H248.46a.59.59,0,0,1,0-1.17h23.38a.59.59,0,1,1,0,1.17Z"/>
          <path class="cls-1" d="M292.39,210.34a.58.58,0,0,1-.58-.58v-6a.58.58,0,0,1,.58-.59.59.59,0,0,1,.59.59v6A.59.59,0,0,1,292.39,210.34Z"/>
        </g>
      </g>
    </g>
  </g>
</svg>
