<svg xmlns="http://www.w3.org/2000/svg" width="58.622" height="84.757" viewBox="0 0 58.622 84.757">
  <g id="Layer_2" data-name="Layer 2" transform="translate(0.035)">
    <g id="Object" transform="translate(-0.035 0)">
      <path id="Path_212" data-name="Path 212" d="M234.59,258.3l.107-.11.388-14.43c-.084-.063-.178-.113-.258-.176-.074.058-.16.1-.237.162Z" transform="translate(-205.513 -213.394)" fill="none"/>
      <path id="Path_213" data-name="Path 213" d="M160.148,140.559a7.727,7.727,0,0,0-12.59-5.992,7.71,7.71,0,0,0-10.192,11.555l.134-4.222a5.329,5.329,0,0,1,5.329-5.323h.3a4.2,4.2,0,0,1,4.2,4.2v5.949c.077-.059.162-.1.237-.162.079.063.173.113.258.176l.112-4.2c0-2.941,2.031-5.329,4.536-5.329h.257c1.975,0,3.574,1.879,3.574,4.2v5.813A7.692,7.692,0,0,0,160.148,140.559Z" transform="translate(-118.245 -116.371)" fill="#2d4593"/>
      <path id="Path_214" data-name="Path 214" d="M107.921,196.439c0-.181-.009-.361,0-.539l-.011.161Z" transform="translate(-94.533 -171.622)" fill="#5c616e"/>
      <path id="Path_215" data-name="Path 215" d="M51.378,37.015l1.534,1.7A.7.7,0,0,0,54,38.666,24.42,24.42,0,0,0,34.145,0a25.471,25.471,0,0,0-2.79.153c-.709.081-1.411.19-2.1.331A24.473,24.473,0,0,0,24.412,0a25.354,25.354,0,0,0-2.79.154A24.419,24.419,0,0,0,4.555,38.666a.7.7,0,0,0,1.092.051l1.528-1.7a.7.7,0,0,0,.05-.867A20.772,20.772,0,0,1,20.856,3.957a20.016,20.016,0,0,1,8.4.257,20.439,20.439,0,0,1,3.893-.558A20.784,20.784,0,0,1,51.326,36.145.705.705,0,0,0,51.378,37.015Z" transform="translate(0.035 0)" fill="#2d4593"/>
      <path id="Path_216" data-name="Path 216" d="M113.364,98.172l.083.092,1.542,1.715a.708.708,0,0,0,1.157-.16,14.473,14.473,0,0,0,1.563-6.576c0-.465-.045-.924-.072-1.387a14.8,14.8,0,0,0-8.38-11.906,14.531,14.531,0,0,0-9.276-1.1,14.262,14.262,0,0,0-1.848.532,14.355,14.355,0,0,0-1.85-.532,14.532,14.532,0,0,0-9.23,1.078A14.8,14.8,0,0,0,78.616,91.95V92c-.029.345-.041.69-.047,1.042l-.009.207c0,.186.027.363.032.549a14.5,14.5,0,0,0,1.531,6.027.71.71,0,0,0,1.16.16l1.539-1.718.081-.089a.7.7,0,0,0,.124-.744,11.064,11.064,0,0,1-.818-3.812l-.016-.378.011-.161a10.889,10.889,0,0,1,15.925-9.752,10.743,10.743,0,0,1,1.072-.488,11.064,11.064,0,0,1,14.045,14.59A.7.7,0,0,0,113.364,98.172Z" transform="translate(-68.82 -68.801)" fill="#2d4593"/>
      <path id="Path_217" data-name="Path 217" d="M35.989,167.2a4.195,4.195,0,0,0-4.2-4.2h-.3a5.329,5.329,0,0,0-5.329,5.323l-.134,4.225-.592,18.789c-.113.487-.178,11.492-.178,11.492-.928-.948-1.965-2.031-2.894-3.071a15.621,15.621,0,0,0-8.819-4.356,4.374,4.374,0,0,0-3.174.563,6.672,6.672,0,0,0-.659.576c-1.363,1.348-2.4,3.526-1.449,5.124a5.536,5.536,0,0,0,1.88,1.646,13.168,13.168,0,0,1,3.95,2.964c2.127,2.717,7.035,8.775,10.049,12.016.627.39,1.956,1.715,2.584,2.051a23.444,23.444,0,0,1,4,2.982,19.416,19.416,0,0,0,2.914,1.76,19.641,19.641,0,0,0,9.92,2.466c4.235,0,8.071.255,10.906-2.243h.167l.074-.19a14.015,14.015,0,0,0,4.683-10.363V195.376c0-.951-.207-4.133-2.883-5.09a4.743,4.743,0,0,0-3.541.164l-.248.012h-.072a4.074,4.074,0,0,0-3.346-3.178,5.6,5.6,0,0,0-4.33.854V167.833c0-2.319-1.6-4.2-3.574-4.2h-.257c-2.5,0-4.536,2.384-4.536,5.329l-.112,4.2L36.1,187.6l-.107.11V167.2Z" transform="translate(-6.912 -142.8)" fill="#dcdcdc"/>
    </g>
  </g>
</svg>
