<svg xmlns="http://www.w3.org/2000/svg" xmlns:xlink="http://www.w3.org/1999/xlink" width="455" height="31" viewBox="0 0 455 31">
  <defs>
    <clipPath id="clip-path">
      <rect id="Rectangle_70" data-name="Rectangle 70" width="455" height="31" transform="translate(699 991)" fill="#fff" stroke="#707070" stroke-width="1"/>
    </clipPath>
  </defs>
  <g id="Mask_Group_7" data-name="Mask Group 7" transform="translate(-699 -991)" clip-path="url(#clip-path)">
    <g id="Path_187" data-name="Path 187" transform="translate(507.5 993.05)" fill="#fff">
      <path d="M 412.8873596191406 327.3097839355469 C 384.886962890625 327.3097839355469 356.9042663574219 326.1900024414062 329.7166748046875 323.9815063476562 C 303.2210693359375 321.8291931152344 277.1594543457031 318.6177062988281 252.2557525634766 314.4361877441406 C 227.80615234375 310.3309936523438 204.2251586914062 305.2500915527344 182.1676635742188 299.3345031738281 C 160.3231658935547 293.4759826660156 139.7825622558594 286.7483825683594 121.1164627075195 279.3385009765625 C 102.4561614990234 271.9307861328125 85.51645660400391 263.7807006835938 70.76805877685547 255.1145935058594 C 55.88785934448242 246.37109375 43.10985946655273 237.0261993408203 32.78895950317383 227.3394927978516 C 22.29135894775391 217.4869995117188 14.23135948181152 207.1811981201172 8.832859992980957 196.7083892822266 C 6.092459678649902 191.39208984375 4.00085973739624 185.9519958496094 2.616159677505493 180.5392913818359 C 1.212059617042542 175.0506896972656 0.5000596046447754 169.4539947509766 0.5000596046447754 163.9048919677734 C 0.5000596046447754 158.3557891845703 1.212059617042542 152.7590942382812 2.616159677505493 147.2704925537109 C 4.00085973739624 141.8577880859375 6.092459678649902 136.4176940917969 8.832859992980957 131.1013946533203 C 14.23135948181152 120.6285934448242 22.29135894775391 110.3227920532227 32.78895950317383 100.4702911376953 C 43.10985946655273 90.78359222412109 55.88785934448242 81.43869018554688 70.76805877685547 72.6951904296875 C 85.51645660400391 64.02909088134766 102.4561614990234 55.87899017333984 121.1164627075195 48.47129058837891 C 139.7825622558594 41.06139373779297 160.3231658935547 34.33379364013672 182.1676635742188 28.47529220581055 C 204.2251586914062 22.5596923828125 227.80615234375 17.47879219055176 252.2557525634766 13.37359237670898 C 277.1594543457031 9.192091941833496 303.2210693359375 5.980591773986816 329.7166748046875 3.828291893005371 C 356.9042663574219 1.619791984558105 384.886962890625 0.4999919533729553 412.8873596191406 0.4999919533729553 C 440.8877563476562 0.4999919533729553 468.8704528808594 1.619791984558105 496.0580444335938 3.828291893005371 C 522.5536499023438 5.980591773986816 548.6153564453125 9.192091941833496 573.5189819335938 13.37359237670898 C 597.9685668945312 17.47879219055176 621.5496826171875 22.5596923828125 643.6070556640625 28.47529220581055 C 665.45166015625 34.33379364013672 685.9922485351562 41.06139373779297 704.6583862304688 48.47129058837891 C 723.3186645507812 55.87899017333984 740.2583618164062 64.02909088134766 755.0067749023438 72.6951904296875 C 769.886962890625 81.43869018554688 782.6649780273438 90.78359222412109 792.98583984375 100.4702911376953 C 803.4834594726562 110.3227920532227 811.54345703125 120.6285934448242 816.9419555664062 131.1013946533203 C 819.682373046875 136.4176940917969 821.7739868164062 141.8577880859375 823.1586303710938 147.2704925537109 C 824.562744140625 152.7590942382812 825.2747802734375 158.3557891845703 825.2747802734375 163.9048919677734 C 825.2747802734375 169.4539947509766 824.562744140625 175.0506896972656 823.1586303710938 180.5392913818359 C 821.7739868164062 185.9519958496094 819.682373046875 191.39208984375 816.9419555664062 196.7083892822266 C 811.54345703125 207.1811981201172 803.4834594726562 217.4869995117188 792.98583984375 227.3394927978516 C 782.6649780273438 237.0261993408203 769.886962890625 246.37109375 755.0067749023438 255.1145935058594 C 740.2583618164062 263.7807006835938 723.3186645507812 271.9307861328125 704.6583862304688 279.3385009765625 C 685.9922485351562 286.7483825683594 665.45166015625 293.4759826660156 643.6070556640625 299.3345031738281 C 621.5496826171875 305.2500915527344 597.9685668945312 310.3309936523438 573.5189819335938 314.4361877441406 C 548.6153564453125 318.6177062988281 522.5536499023438 321.8291931152344 496.0580444335938 323.9815063476562 C 468.8704528808594 326.1900024414062 440.8877563476562 327.3097839355469 412.8873596191406 327.3097839355469 Z" stroke="none"/>
      <path d="M 412.8873596191406 1 C 384.9003601074219 1 356.9313659667969 2.119232177734375 329.7571411132812 4.32666015625 C 303.2755737304688 6.477783203125 277.228271484375 9.68756103515625 252.3385620117188 13.86666870117188 C 227.9046020507812 17.96923828125 204.3392333984375 23.04678344726562 182.297119140625 28.95822143554688 C 160.4712524414062 34.81167602539062 139.9491577148438 41.53323364257812 121.3009033203125 48.93600463867188 C 102.6642456054688 56.334228515625 85.747802734375 64.47299194335938 71.021240234375 73.126220703125 C 56.17315673828125 81.85099792480469 43.425048828125 91.17355346679688 33.13116455078125 100.8348846435547 C 22.67510986328125 110.6482238769531 14.64959716796875 120.908447265625 9.2772216796875 131.3305511474609 C 6.55401611328125 136.6134490966797 4.47589111328125 142.0181121826172 3.1004638671875 147.3944549560547 C 1.7066650390625 152.8425598144531 1 158.3975524902344 1 163.9048919677734 C 1 169.4122314453125 1.7066650390625 174.9672241210938 3.1004638671875 180.4153289794922 C 4.47589111328125 185.7916717529297 6.55401611328125 191.1963348388672 9.2772216796875 196.4792327880859 C 14.64959716796875 206.9013366699219 22.67510986328125 217.1615600585938 33.13116455078125 226.9748840332031 C 43.425048828125 236.63623046875 56.17315673828125 245.9587707519531 71.021240234375 254.6835632324219 C 85.747802734375 263.3367919921875 102.6642456054688 271.4755554199219 121.3009033203125 278.873779296875 C 139.9491577148438 286.2765502929688 160.4712524414062 292.9981079101562 182.297119140625 298.8515625 C 204.3392333984375 304.7630004882812 227.9046020507812 309.8405456542969 252.3385620117188 313.943115234375 C 277.228271484375 318.1222229003906 303.2755737304688 321.3320007324219 329.7571411132812 323.4831237792969 C 356.9313659667969 325.6905517578125 384.9003601074219 326.8097839355469 412.8873596191406 326.8097839355469 C 440.8743591308594 326.8097839355469 468.8433532714844 325.6905517578125 496.017578125 323.4831237792969 C 522.4991455078125 321.3320007324219 548.5465087890625 318.1222229003906 573.4361572265625 313.943115234375 C 597.8701171875 309.8405456542969 621.4354858398438 304.7630004882812 643.4776000976562 298.8515625 C 665.303466796875 292.9981079101562 685.8255615234375 286.2765502929688 704.4738159179688 278.873779296875 C 723.1104736328125 271.4755554199219 740.0269165039062 263.3367919921875 754.7534790039062 254.6835632324219 C 769.6015625 245.9587707519531 782.3496704101562 236.63623046875 792.6435546875 226.9748840332031 C 803.099609375 217.1615600585938 811.1251220703125 206.9013366699219 816.4974975585938 196.4792327880859 C 819.220703125 191.1963348388672 821.298828125 185.7916717529297 822.6742553710938 180.4153289794922 C 824.0680541992188 174.9672241210938 824.7747192382812 169.4122314453125 824.7747192382812 163.9048919677734 C 824.7747192382812 158.3975524902344 824.0680541992188 152.8425598144531 822.6742553710938 147.3944549560547 C 821.298828125 142.0181121826172 819.220703125 136.6134490966797 816.4974975585938 131.3305511474609 C 811.1251220703125 120.908447265625 803.099609375 110.6482238769531 792.6435546875 100.8348846435547 C 782.3496704101562 91.17355346679688 769.6015625 81.85099792480469 754.7534790039062 73.126220703125 C 740.0269165039062 64.47299194335938 723.1104736328125 56.334228515625 704.4738159179688 48.93600463867188 C 685.8255615234375 41.53323364257812 665.303466796875 34.81167602539062 643.4776000976562 28.95822143554688 C 621.4354858398438 23.04678344726562 597.8701171875 17.96923828125 573.4361572265625 13.86666870117188 C 548.5465087890625 9.68756103515625 522.4991455078125 6.477783203125 496.017578125 4.32666015625 C 468.8433532714844 2.119232177734375 440.8743591308594 1 412.8873596191406 1 M 412.8873596191406 0 C 640.9188232421875 0 825.7747192382812 73.38267517089844 825.7747192382812 163.9048919677734 C 825.7747192382812 254.4271240234375 640.9188232421875 327.8097839355469 412.8873596191406 327.8097839355469 C 184.8558959960938 327.8097839355469 0 254.4271240234375 0 163.9048919677734 C 0 73.38267517089844 184.8558959960938 0 412.8873596191406 0 Z" stroke="none" fill="#fff"/>
    </g>
  </g>
</svg>
