<svg xmlns="http://www.w3.org/2000/svg" xmlns:xlink="http://www.w3.org/1999/xlink" viewBox="0 0 161.34 132.5">
  <defs>
    <style>
      .cls-1 {
        fill: #619a80;
      }

      .cls-2 {
        fill: none;
      }

      .cls-3 {
        fill: #fad0b8;
      }

      .cls-4 {
        fill: #a36e4a;
      }

      .cls-5 {
        fill: #4f667f;
      }

      .cls-6 {
        clip-path: url(#clip-path);
      }

      .cls-7 {
        fill: #42735b;
      }

      .cls-8 {
        fill: #ec6a55;
      }

      .cls-9 {
        fill: #fbd1b9;
      }

      .cls-10, .cls-11 {
        fill: #a46e4a;
      }

      .cls-11 {
        opacity: 0.31;
      }

      .cls-12 {
        fill: #fff;
      }

      .cls-13 {
        fill: #bc7313;
      }

      .cls-14 {
        fill: #87c2a8;
      }

      .cls-15 {
        fill: #8ba2c2;
      }

      .cls-16 {
        fill: #f59e19;
      }

      .cls-17 {
        fill: #905f3a;
      }

      .cls-18 {
        fill: #f5e6de;
      }

      .cls-19 {
        clip-path: url(#clip-path-2);
      }

      .cls-20 {
        fill: #b13e32;
      }

      .cls-21 {
        fill: #9e908b;
      }

      .cls-22 {
        fill: #c6b5af;
      }

      .cls-23 {
        fill: #cd7c1d;
      }

      .cls-24 {
        fill: #243544;
      }

      .cls-25 {
        fill: #7a490e;
      }
    </style>
    <clipPath id="clip-path">
      <path class="cls-1" d="M92.33,112.3c.55,1.54.06,3.22-.23,4.82s-.31,3.48.89,4.58c.89.81,2.19,1,3.35,1.29,2.92.86,5.16,3.13,7.67,4.83s5.93,2.83,8.52,1.24a2.44,2.44,0,0,0,1.14-1.35c.36-1.34-1-2.45-2.24-3.17-4.91-2.94-9.83-6.78-11.4-12.29a26.33,26.33,0,0,1-.7-6.76l-.08-4.71Z"/>
    </clipPath>
    <clipPath id="clip-path-2">
      <path class="cls-2" d="M158.85,34.1a2.09,2.09,0,0,0-1.58-1.21,1.71,1.71,0,0,0-1,.18V32.3H145.81v5.27a2.72,2.72,0,0,0,2.72,2.72h5a2.72,2.72,0,0,0,2.72-2.72v-.85a1.76,1.76,0,0,0,1,.28,1.78,1.78,0,0,0,1.55-.94A2.25,2.25,0,0,0,158.85,34.1Zm-.77.76s0,0,0,0Zm-1.32-1ZM158,35.52s0,0,0,0Zm.08-.31a1.63,1.63,0,0,1-.07.3l0,.06c0,.06-.07.1-.09.15l0,.06s0,0-.05,0l0,0-.08.06s-.18.08-.06,0a1,1,0,0,1-.24.08H157l-.16-.06c.11,0,0,0-.07,0l-.06,0h0l-.11-.1a.41.41,0,0,0-.05-.09.46.46,0,0,0-.29-.22v-.91a.43.43,0,0,0,.11-.2l0-.08,0-.06v0l0-.06,0,0,0-.05.06,0h0l.16-.1h0l.05,0,.12,0s0,0,0,0h.21l.17,0,0,0h0l.18.11h0l.06,0a1.59,1.59,0,0,1,.13.13l.06.07c0,.06.08.12.11.18l0,.07.06.16,0,.15v0a.28.28,0,0,1,0,.09v.16A.34.34,0,0,1,158.08,35.21Z"/>
    </clipPath>
  </defs>
  <g id="Layer_2" data-name="Layer 2">
    <g id="Ñëîé_1" data-name="Ñëîé 1">
      <g>
        <path class="cls-3" d="M111,88.85l-4.77,19.75a5.27,5.27,0,0,1-.51,1.46c-.61,1-1.89,1.59-2.36,2.7a4.4,4.4,0,0,0,.21,3l3.6,11.53a.53.53,0,0,0,1,.09,2,2,0,0,0,.23-1.12,3.72,3.72,0,0,0,.19,2.44.6.6,0,0,0,1.13-.08,1.56,1.56,0,0,0-.1-1.16,3.62,3.62,0,0,0,.24,1.53.61.61,0,0,0,1.12.05,1.83,1.83,0,0,0,.06-1.38,3.24,3.24,0,0,0,.1,2,.6.6,0,0,0,1.06.12,1.68,1.68,0,0,0,.22-1.36,2.82,2.82,0,0,0,.38,2.46,1.08,1.08,0,0,0,1.26.29c.65-.32.62-1.12.54-1.78q-.81-6.87-1.64-13.73a16.55,16.55,0,0,1-.12-4.71,16.62,16.62,0,0,1,1.21-3.67c2.72-6.55,1.66-13.41,4.39-20Z"/>
        <path class="cls-4" d="M109.33,110.47a1.67,1.67,0,0,0-1.31.91,1.64,1.64,0,0,0,0,1.58.25.25,0,0,0,.41-.29s0,0,0,0l0-.07,0-.09s0,0,0,0a.77.77,0,0,1,0-.15v-.08s0,0,0,0a1.19,1.19,0,0,1,.17-.58l.07-.11.1-.12,0-.06s0,0,0,0a.69.69,0,0,1,.13-.11l.06,0,0,0a.61.61,0,0,1,.14-.07.88.88,0,0,1,.28-.06c.33,0,.28-.52,0-.5Z"/>
        <path class="cls-4" d="M112.24,127.83s0,0,0,0l0,.06a1.12,1.12,0,0,1,0,.13.5.5,0,0,1,0,.13s0,.07,0,0,0,0,0,0a2.7,2.7,0,0,1,0,.28v.13h0v0a.17.17,0,0,1,0,.07,1.26,1.26,0,0,1,0,.27s0,0,0,.06v0l0,.12a1.89,1.89,0,0,1-.11.25c0,.06,0,0,0,0l0,.06-.09.11a.28.28,0,0,0,0,.36.26.26,0,0,0,.36,0,2.25,2.25,0,0,0,.19-2.47.26.26,0,0,0-.36-.06.27.27,0,0,0-.05.36Z"/>
        <path class="cls-4" d="M110.76,127.43l.09.22,0,.11c0-.06,0,0,0,0s0,0,0,.06a2,2,0,0,1,0,.23v.06c0,.07,0-.05,0,0a.41.41,0,0,1,0,.11,1.57,1.57,0,0,1,0,.23s0,.07,0,0,0,0,0,.05,0,.08,0,.11l0,.11,0,0,0,0,0,0,0,0-.08.1a.26.26,0,0,0,0,.36.25.25,0,0,0,.35,0,2,2,0,0,0,.26-2.08.26.26,0,0,0-.33-.14.25.25,0,0,0-.14.32Z"/>
        <path class="cls-5" d="M111,10.78c4.53,8.43,13.94,12.94,20.22,20.16a5.54,5.54,0,0,1,1.65,3.24A4,4,0,0,1,130,37.82a10.34,10.34,0,0,1-4.92.14A57.33,57.33,0,0,1,116,35.83a5.91,5.91,0,0,1-1.87-.86c-1.3-1-1.64-2.76-1.89-4.37-.06-.41-.09-.91.24-1.17a1.18,1.18,0,0,1,.58-.19c1.94-.28,0,0,1.93-.3C109.28,24,88.56,16.15,82.87,11.2c3.2-5.92,24.79-1.15,28.11-.74Z"/>
        <path class="cls-4" d="M108.07,126.15l0,.09v.05s0-.06,0,0a1.37,1.37,0,0,1,0,.19v.07s0,0,0,0,0,.08,0,.1l0,.18v0s0,0,0,0a.08.08,0,0,1,0,0l0,.08a.36.36,0,0,1,0,.09l0,0h0s0,.06,0,.07l-.06.08-.07.07s0,0,0,0l0,0a.26.26,0,0,0-.06.35.27.27,0,0,0,.36.06,1.6,1.6,0,0,0,.46-1.76.27.27,0,0,0-.33-.15.26.26,0,0,0-.14.33Z"/>
        <g>
          <path class="cls-1" d="M92.33,112.3c.55,1.54.06,3.22-.23,4.82s-.31,3.48.89,4.58c.89.81,2.19,1,3.35,1.29,2.92.86,5.16,3.13,7.67,4.83s5.93,2.83,8.52,1.24a2.44,2.44,0,0,0,1.14-1.35c.36-1.34-1-2.45-2.24-3.17-4.91-2.94-9.83-6.78-11.4-12.29a26.33,26.33,0,0,1-.7-6.76l-.08-4.71Z"/>
          <g class="cls-6">
            <path class="cls-7" d="M93.75,112.61c.51,1.77-.16,3.63.23,5.42a4.41,4.41,0,0,0,1.31,2.2,25.73,25.73,0,0,0,2.21,1.82,75.41,75.41,0,0,0,9.91,6.49c1,.53,1.94,1.06,2.93,1.53a3.58,3.58,0,0,0,3,.35c.28-.13,0-.55-.24-.42a3.19,3.19,0,0,1-2.61-.39c-.86-.42-1.71-.87-2.55-1.32-1.68-.92-3.32-1.89-4.93-2.93s-3.17-2.13-4.69-3.29c-.75-.56-1.49-1.14-2.2-1.74a4.72,4.72,0,0,1-1.56-2,7.48,7.48,0,0,1-.18-2.87,8.54,8.54,0,0,0-.17-2.94c-.09-.3-.55-.17-.46.12Z"/>
            <path class="cls-7" d="M95.8,110.87c.14,1,.23,2.08.27,3.13s0,2,.09,3a4.78,4.78,0,0,0,.9,2.45,10.18,10.18,0,0,0,1.86,1.79,106.37,106.37,0,0,0,9.61,6.83q2.79,1.77,5.69,3.37a.24.24,0,0,0,.24-.42,109.75,109.75,0,0,1-9.84-6.12q-2.39-1.66-4.67-3.46c-1.34-1-2.86-2.13-3.23-3.89a19.49,19.49,0,0,1-.16-3.24,33,33,0,0,0-.28-3.44c0-.31-.52-.31-.48,0Z"/>
            <path class="cls-7" d="M98.78,109.63a12.62,12.62,0,0,0,2,10.2,20.14,20.14,0,0,0,4.1,4c1.66,1.3,3.35,2.55,5,3.82l5.89,4.48c.25.18.48-.23.24-.42L105.89,124a25.3,25.3,0,0,1-4.18-3.76,12,12,0,0,1-2.46-10.48.24.24,0,0,0-.47-.13Z"/>
            <path class="cls-8" d="M90.07,115.12a24.73,24.73,0,0,1,4.18,1.4A10.78,10.78,0,0,1,96.78,118a6.87,6.87,0,0,1,2.38,6.35,5,5,0,0,1-.42,1.36,3.69,3.69,0,0,1-2.33,1.84,1.23,1.23,0,0,1-.71,0A1.54,1.54,0,0,1,95,127a92.51,92.51,0,0,1-5.86-7.92Z"/>
            <path class="cls-7" d="M100,109.12a45.78,45.78,0,0,0,1.2,6.28,16.36,16.36,0,0,0,2.54,4.75,27.42,27.42,0,0,0,9,7.23c2,1.11,4.18,2.08,6.3,3,.28.13.53-.29.24-.41a56.47,56.47,0,0,1-10.77-5.87,19.33,19.33,0,0,1-6.61-8.33,40.32,40.32,0,0,1-1.39-6.81c-.06-.31-.52-.18-.46.12Z"/>
            <path class="cls-8" d="M107.79,131.49a10.7,10.7,0,0,1,.59-5.26,7.72,7.72,0,0,1,3.42-4,1.33,1.33,0,0,1,1-.2,1.39,1.39,0,0,1,.54.39l2.8,2.78a5.75,5.75,0,0,1,1.36,1.75,3.8,3.8,0,0,1-1.65,4.39A8.57,8.57,0,0,1,111,132.5a8.18,8.18,0,0,1-2.83-.39Z"/>
          </g>
        </g>
        <path class="cls-9" d="M124.9,20.94l-11.57,5.94a6.87,6.87,0,0,1-3.28,1,5.18,5.18,0,0,1-3.94-2.74c-.88-1.42-1-2.4-1.89-3.82a25.61,25.61,0,0,1-3.52,1.21A3.77,3.77,0,0,1,96,19.94l0-.07c-.56-2-3.85-3.67-1.83-4.2,2.54-.66,9.69-1.66,12.09-2.34-.45-.56-1.52-3.61,2.58-4.27,1.13-.18,2.46.7,2.28,1.83l7.13-1.65a1.45,1.45,0,0,1,.62,0,1.27,1.27,0,0,1,.66.51c2.47,2.94,6.95,5.66,8.22,9.29Z"/>
        <path class="cls-10" d="M108.69,10.52a4.39,4.39,0,0,1-1.3,1.82.24.24,0,0,0,0,.34.25.25,0,0,0,.34,0,4.84,4.84,0,0,0,1.42-2,.24.24,0,0,0-.17-.29.23.23,0,0,0-.29.16Z"/>
        <path class="cls-10" d="M107.45,11.32l.16.11,0,0a1.42,1.42,0,0,1,.3.3l0,0a1.32,1.32,0,0,1,.16.25.26.26,0,0,0,.33.09.25.25,0,0,0,.09-.33,1.9,1.9,0,0,0-.71-.75.24.24,0,0,0-.33.09.23.23,0,0,0,.09.32Z"/>
        <polygon class="cls-11" points="104.22 21.34 102.56 17.35 102.66 21.96 104.22 21.34"/>
        <g>
          <path class="cls-12" d="M108.75,23.8a.55.55,0,0,1,.08-.81.79.79,0,0,1,.87,0,1.32,1.32,0,0,1,.51.75Z"/>
          <path class="cls-10" d="M108.92,23.63s0-.07,0,0l0-.06c0,.05,0,0,0,0s0-.07,0,0v-.08s0-.09,0,0,0-.05,0-.07,0-.07,0,0l0-.06,0,0s0,0,0,0l0,0,0,0s0,0,0,0l.07,0h0l.08,0c-.06,0,0,0,0,0h.11l.16.05,0,0,.06,0,0,0s0,0,0,0,0,0,.07.06l0,0s.06.08,0,0a.83.83,0,0,1,.09.16l0,.06s0,.09,0,0l.06.17.23-.3-1.27,0h-.19a.26.26,0,0,0-.24.24.24.24,0,0,0,.24.24L110,24h.18a.24.24,0,0,0,.23-.3,1.43,1.43,0,0,0-.92-1,.88.88,0,0,0-1.13.58.75.75,0,0,0,.19.72.24.24,0,0,0,.34-.34Z"/>
        </g>
        <path d="M112.35,16.17a1.43,1.43,0,0,0,1.29,2.07.26.26,0,0,0,.24-.24c0-.12-.11-.26-.24-.24h-.15s-.09,0,0,0h-.06l-.13-.05h0l0,0-.12-.08,0,0,0,0-.1-.1h0l0,0,0-.06a.75.75,0,0,1-.07-.12l0-.06c0,.05,0,0,0,0s0-.09,0-.14,0,0,0-.06h0v0a.66.66,0,0,1,0-.14.13.13,0,0,0,0-.06c0,.06,0,0,0,0l0-.12s0,0,0,0l0,0,0-.07a.24.24,0,0,0-.08-.33.26.26,0,0,0-.33.09Z"/>
        <path d="M115.76,22.11a1.44,1.44,0,0,0,1.29,2.07.24.24,0,1,0,0-.48h-.24l-.13,0,0,0,0,0-.12-.08,0,0s0,0,0,0l-.1-.11h0l0,0a.21.21,0,0,0,0-.06l-.07-.12s0,0,0-.06,0,0,0,0l0-.13s0,0,0-.06h0v0a.65.65,0,0,1,0-.14v-.06c0,.06,0,0,0,0a.5.5,0,0,1,0-.13h0l0,0a.3.3,0,0,1,0-.08.24.24,0,0,0-.42-.24Z"/>
        <path class="cls-10" d="M115.63,20.48A12.25,12.25,0,0,1,112,24.3l.36.21-.09-1.83c0-.31-.5-.31-.48,0l.09,1.83a.25.25,0,0,0,.36.21,13,13,0,0,0,3.76-4c.18-.25-.24-.49-.41-.24Z"/>
        <path class="cls-13" d="M118.39,16.85a1.58,1.58,0,0,1-1.48.12,1.59,1.59,0,0,1-.29-.29l-2.07-2.42a7.34,7.34,0,0,1,1.71.58c.94.43,2,1,2.17,2Z"/>
        <path class="cls-13" d="M119.79,19.76c-.49.19-1,.46-1.13,1a1.78,1.78,0,0,0,0,.4l.26,3.17a7.76,7.76,0,0,0,.79-1.61c.36-1,.67-2.13.09-3Z"/>
        <path class="cls-13" d="M132.48,20.16a3.41,3.41,0,0,0-.55-1.5,13.18,13.18,0,0,0-4.46-4.48c.81,0,1.72.63,2.32.09a1.05,1.05,0,0,0,.18-1.19,2.83,2.83,0,0,0-.83-1,20.37,20.37,0,0,0-7-3.83c.47-.3,1.2-.28,1.41-.79s-.24-.92-.7-1a2.4,2.4,0,0,0-1.35.29,1.5,1.5,0,1,0-2.87-.66A32.25,32.25,0,0,0,108.89,9c.71.3,1.57,1,1.48,1.73-.8.67-1.63,1.3-2.48,1.9a1.08,1.08,0,0,0,.25.54l8.13-2.92a70.1,70.1,0,0,0,5.07,8.33,14.94,14.94,0,0,0,2,2.55,10.87,10.87,0,0,0,3.57,2.13,1.56,1.56,0,0,0,.92.14c.66-.16.82-1.07.57-1.7s-.76-1.14-1-1.78a9.7,9.7,0,0,0,3.15,1.57,1.86,1.86,0,0,0,1.21,0A1.35,1.35,0,0,0,132.48,20.16Z"/>
        <path class="cls-13" d="M106,10.72a2.5,2.5,0,0,0-.16,1.43,5.81,5.81,0,0,0,.48,1.28,45.5,45.5,0,0,1-4.8.8A7.93,7.93,0,0,1,105.69,11Z"/>
        <path class="cls-3" d="M126.35,26.09a4.35,4.35,0,0,1,5.06,2.2,2.55,2.55,0,0,1-.74,3.23c-1.3-1.37-2.57-2.79-3.79-4.24Z"/>
        <rect class="cls-14" x="47.93" y="77.02" width="3.32" height="28.8"/>
        <path class="cls-8" d="M29.45,38.93a25.32,25.32,0,0,0-1.88,22A27.7,27.7,0,0,0,43.38,76.5a38.84,38.84,0,0,0,8.09,2,58.56,58.56,0,0,0,22.42-.88c3.91-.93,8-2.38,10.47-5.61,2.72-3.61,2.68-8.55,2.21-13A41.23,41.23,0,0,0,83.12,45.1C77.84,34.19,65.46,28.23,53.41,27l-.3-.05a20.11,20.11,0,0,0-20.6,7.54C31.37,36,30.3,37.54,29.45,38.93Z"/>
        <path class="cls-8" d="M72.92,41.89a15.35,15.35,0,0,1,19.32,15.2,9.87,9.87,0,0,1-1.49,5.28,11.33,11.33,0,0,1-5.64,3.95,12.64,12.64,0,0,1-5.51,1,6.34,6.34,0,0,1-4.79-2.61,9.32,9.32,0,0,1-1.12-3A119.15,119.15,0,0,1,71.4,44.64Z"/>
        <path class="cls-5" d="M86.91,9.25a14.55,14.55,0,0,0-10.54,4.34c-2.57,2.57-4.05,5.71-5.43,8.81C66.5,32.35,47.42,37,48.39,47.55a1.57,1.57,0,0,0,.4,1.09,2.49,2.49,0,0,0,1.18.47,64.91,64.91,0,0,0,30.64-.85c-.8-3.28,21.85-19.12,22.13-20.65a9.71,9.71,0,0,0-.66-4.52c-.64-2-1.27-4.06-1.91-6.1a13.42,13.42,0,0,0-2.82-5.61,7.19,7.19,0,0,0-6.65-2Z"/>
        <rect class="cls-1" x="46.44" y="103.83" width="6.3" height="10.82" rx="2.57"/>
        <path class="cls-15" d="M137,40.46l-52-.08a2,2,0,0,1,2-2l49.08,0Z"/>
        <path class="cls-15" d="M136.24,38.94H87.39a2,2,0,0,1,2-2h44.83a2,2,0,0,1,2,2Z"/>
        <path class="cls-16" d="M157,33.83h0Z"/>
        <path class="cls-16" d="M158.85,34.1a2.09,2.09,0,0,0-1.58-1.21,1.71,1.71,0,0,0-1,.18V32.3H145.81v5.27a2.72,2.72,0,0,0,2.72,2.72h5a2.72,2.72,0,0,0,2.72-2.72v-.85a1.76,1.76,0,0,0,1,.28,1.78,1.78,0,0,0,1.55-.94A2.25,2.25,0,0,0,158.85,34.1Zm-.77.76s0,0,0,0Zm-1.32-1ZM158,35.52s0,0,0,0Zm.08-.31a1.63,1.63,0,0,1-.07.3l0,.06c0,.06-.07.1-.09.15l0,.06s0,0-.05,0l0,0-.08.06s-.18.08-.06,0a1,1,0,0,1-.24.08H157l-.16-.06c.11,0,0,0-.07,0l-.06,0h0l-.11-.1a.41.41,0,0,0-.05-.09.46.46,0,0,0-.29-.22v-.91a.43.43,0,0,0,.11-.2l0-.08,0-.06v0l0-.06,0,0,0-.05.06,0h0l.16-.1h0l.05,0,.12,0s0,0,0,0h.21l.17,0,0,0h0l.18.11h0l.06,0a1.59,1.59,0,0,1,.13.13l.06.07c0,.06.08.12.11.18l0,.07.06.16,0,.15v0a.28.28,0,0,1,0,.09v.16A.34.34,0,0,1,158.08,35.21Z"/>
        <path class="cls-8" d="M157.66,40.42H144.72a1.36,1.36,0,0,1-1.36-1.36H159A1.36,1.36,0,0,1,157.66,40.42Z"/>
        <path class="cls-17" d="M1.31,130.64c-.83,0-1.45-1-1.28-2.06L13,45.57h4L2.59,129.3A1.46,1.46,0,0,1,1.31,130.64Z"/>
        <path class="cls-17" d="M159.76,130.64a1.68,1.68,0,0,0,1.55-2.06l-15.6-83h-4.8l17.31,83.73A1.61,1.61,0,0,0,159.76,130.64Z"/>
        <g>
          <path class="cls-1" d="M13.42,20.37q-.93-3.32-1.88-6.63a3.48,3.48,0,0,1,0-2.67c.46-.78,1.93-.86,2.11,0a13.25,13.25,0,0,1-1.14-8.62C12.75,1.23,13.66-.27,14.91,0a2.4,2.4,0,0,1,1.4,1.44,9.65,9.65,0,0,1,.87,3.16,4.92,4.92,0,0,1,1.54-3.55A1.78,1.78,0,0,1,20,.5c1.11.07,1.39,1.59,1.27,2.7a30,30,0,0,1-1.65,7.17c.91-.23,1.48,1,1.55,1.91a13.9,13.9,0,0,1-1.92,7.54,41.72,41.72,0,0,1-4.64,6.36Z"/>
          <path class="cls-14" d="M12,27.88C11.6,25.32,7.63,25,6.67,22.53a1.5,1.5,0,0,1-.11-.75,1.28,1.28,0,0,1,1.28-.92,3.75,3.75,0,0,1,1.62.48,15,15,0,0,1-4-5.06,2.31,2.31,0,0,1-.15-2c.35-.62,1.49-.68,1.66,0a9.22,9.22,0,0,1-2.43-7.8,1.94,1.94,0,0,1,.34-.94c.59-.72,1.77-.45,2.52.09,2,1.46,2.72,4.11,3.29,6.54a3.48,3.48,0,0,1,.51-1.51,1.23,1.23,0,0,1,1.39-.52c.61.25.75,1,.8,1.67a45.37,45.37,0,0,1,.06,5.83c-.18-.77,1-1.24,1.66-.77A2.69,2.69,0,0,1,15.88,19a16.47,16.47,0,0,1-.74,5.07,2.37,2.37,0,0,1,1.37,2.66A7.08,7.08,0,0,1,15,29.62Z"/>
          <path class="cls-14" d="M15.39,27.14a24.54,24.54,0,0,1,1.77-5.91c.15-.34.43-.75.79-.66.18,0,.33.2.52.18s.33-.29.38-.52a11.53,11.53,0,0,1,1.7-4.18,5.59,5.59,0,0,1,3.7-2.42,1.37,1.37,0,0,1,1.31.39,1.51,1.51,0,0,1,.11,1.09A11.72,11.72,0,0,1,24,19.42c.37-.56,1.35-.32,1.66.28a2.47,2.47,0,0,1-.12,2c-1.44,3.58-5.05,5.73-8.49,7.47Z"/>
        </g>
        <path class="cls-1" d="M9.46,15.77a77.73,77.73,0,0,0,3.33,9.08c.36.83.74,1.65,1.13,2.47.14.28.55,0,.42-.24a76.14,76.14,0,0,1-3.6-8.84c-.29-.86-.56-1.73-.82-2.6a.24.24,0,0,0-.46.13Z"/>
        <path class="cls-1" d="M7.49,16.34A23.51,23.51,0,0,0,11,20.06c.23.2.57-.13.34-.34a22.93,22.93,0,0,1-3.4-3.63c-.18-.24-.6,0-.41.25Z"/>
        <path class="cls-1" d="M12.45,21.92a20.7,20.7,0,0,0,.41-3.76c0-.31-.47-.31-.48,0A20.06,20.06,0,0,1,12,21.79c-.06.3.4.43.46.13Z"/>
        <path class="cls-1" d="M16.75,28.41a68.47,68.47,0,0,0,5.36-7.93.24.24,0,0,0-.41-.24,68,68,0,0,1-5.29,7.83c-.19.24.15.58.34.34Z"/>
        <path class="cls-1" d="M19.72,20.37v2.69a.24.24,0,0,0,.48,0V20.37a.24.24,0,0,0-.48,0Z"/>
        <path class="cls-1" d="M18.84,25.44l3.74-2.33c.26-.17,0-.58-.24-.42L18.6,25c-.26.16,0,.58.24.41Z"/>
        <rect class="cls-16" x="8.46" y="26.43" width="13.3" height="4.9" rx="2"/>
        <polygon class="cls-16" points="19.84 30.98 10.39 30.98 12.14 39.38 18.09 39.38 19.84 30.98"/>
        <path class="cls-17" d="M10.65,31.63H19a.24.24,0,0,0,0-.48H10.65a.24.24,0,0,0,0,.48Z"/>
        <path class="cls-17" d="M21.58,40.42H8.64a1.36,1.36,0,0,1-1.36-1.36H22.94A1.36,1.36,0,0,1,21.58,40.42Z"/>
        <path class="cls-18" d="M150.86,31.35a3.05,3.05,0,0,0,.53-2.23,1.76,1.76,0,0,0-.47-.61c-1.22-1.13-2.94-2-3.3-3.61a1.06,1.06,0,0,1,0-.56,1,1,0,0,1,1.18-.48,2.7,2.7,0,0,1,1.11.85c-1.21-2-2.19-4.39-1.59-6.66.11-.4.35-.85.77-.87a1,1,0,0,1,.56.2c1.69,1.12,2.23,3.32,2.63,5.31a2.82,2.82,0,0,1,.81-2.83,1.11,1.11,0,0,1,.76-.34c.58,0,.86.72.93,1.3a7.2,7.2,0,0,1-.52,3.72c.25-.57.71-1.24,1.31-1.1s.74,1,.62,1.65a9,9,0,0,1-3.49,5.57,2.94,2.94,0,0,1-1.81.7Z"/>
        <g class="cls-19">
          <path class="cls-18" d="M145.24,36.77l1.62-1.42s.11-.12.16-.14.07-.05.14,0,.22.21.32.32a9.36,9.36,0,0,1,.62.79.23.23,0,0,0,.37.05l1.47-1.23c.11-.09.18-.17.3,0s.18.22.27.34l.59.75a.24.24,0,0,0,.29,0,19.44,19.44,0,0,0,1.6-1.39h-.34a4,4,0,0,1,.84,1.39.25.25,0,0,0,.4.1L155.57,35l-.38-.05c.38.5.76,1,1.13,1.51.19.24.6,0,.42-.25l-1.14-1.5a.24.24,0,0,0-.37-.05L153.56,36l.4.11a4.68,4.68,0,0,0-1-1.6.24.24,0,0,0-.34,0,14.36,14.36,0,0,1-1.5,1.31l.29,0-.71-.9c-.21-.26-.45-.52-.82-.36a1.57,1.57,0,0,0-.4.29l-.45.37-.93.78.38.05a7.46,7.46,0,0,0-.74-.94c-.23-.24-.52-.58-.89-.41a1.87,1.87,0,0,0-.42.32l-.51.45-1,.92c-.23.21.11.55.34.34Z"/>
          <path class="cls-18" d="M147,37.59a.24.24,0,0,0,0-.48.24.24,0,0,0,0,.48Z"/>
          <path class="cls-18" d="M148.51,34.53a.24.24,0,0,0,0-.48.24.24,0,0,0,0,.48Z"/>
          <path class="cls-18" d="M150.1,37.59a.24.24,0,0,0,0-.48.24.24,0,0,0,0,.48Z"/>
          <path class="cls-18" d="M151.94,34.41v-.12a.65.65,0,0,0-.07-.17.18.18,0,0,0-.08,0,.15.15,0,0,0-.09,0h-.07a.21.21,0,0,0-.1.06l0,.05a.21.21,0,0,0,0,.12v.12a.1.1,0,0,0,0,.09.14.14,0,0,0,.05.08.18.18,0,0,0,.07.05l.1,0h.06a.24.24,0,0,0,.11-.06l0,0a.28.28,0,0,0,0-.12Z"/>
          <path class="cls-18" d="M152.68,37.71a.24.24,0,0,0,0-.48.24.24,0,0,0,0,.48Z"/>
          <path class="cls-18" d="M154.39,34.53h.12l.1,0,.07,0a.14.14,0,0,0,0-.08.15.15,0,0,0,0-.09v-.07a.21.21,0,0,0-.06-.1l-.05,0a.21.21,0,0,0-.12,0h-.12a.15.15,0,0,0-.09,0,.14.14,0,0,0-.08,0,.22.22,0,0,0-.05.08.2.2,0,0,0,0,.09v.06a.24.24,0,0,0,.06.11l.05,0a.19.19,0,0,0,.12,0Z"/>
          <path class="cls-16" d="M157,33.83h0Z"/>
        </g>
        <path class="cls-16" d="M29.93,124.82l-.37-.52a6.43,6.43,0,0,1-.59-4.65c.3-1.69,1.09-3.83,2.44-4.77.28-.19.85-.59,6.58-.78,3.9-.12,8.61-.1,11.88-.06,4.06,0,8.32.16,11.67.3,5.46.22,5.77.4,5.95.51,3.39,2,2.93,7.36,2.77,9.13l-.05.64-1.28-.11.06-.64c.37-4.24-.32-6.83-2.09-7.89-.9-.23-8.54-.56-17.26-.67-11.9-.13-16.86.25-17.5.62a6.5,6.5,0,0,0-1.91,3.94,5.42,5.42,0,0,0,.37,3.69l.38.52Z"/>
        <path class="cls-16" d="M37.39,124.77l-.26-.59c-.94-2.17-.27-7.59,1.14-9.2.32-.37,1.1-.73,4.6-.89,2.77-.13,6.85-.1,10.91.08,6.43.28,6.77.6,6.95.77,1.85,1.76,1.85,6,1.7,9l0,.64-1.28-.07,0-.64c.22-4.19-.19-6.87-1.22-8a85.67,85.67,0,0,0-10.3-.62c-7.34-.15-10,.26-10.42.53-1,1.18-1.69,6-.91,7.82l.26.59Z"/>
        <path class="cls-17" d="M65.57,126a3.48,3.48,0,1,1-3.48-3.48A3.48,3.48,0,0,1,65.57,126Z"/>
        <path class="cls-17" d="M73.36,126a3.48,3.48,0,1,1-3.48-3.48A3.48,3.48,0,0,1,73.36,126Z"/>
        <path class="cls-17" d="M42.23,126a3.48,3.48,0,1,1-3.48-3.48A3.48,3.48,0,0,1,42.23,126Z"/>
        <path class="cls-17" d="M33.51,126A3.49,3.49,0,1,1,30,122.49,3.48,3.48,0,0,1,33.51,126Z"/>
        <path class="cls-20" d="M46.84,71.69l1.51.91a.25.25,0,0,0,.33-.09.25.25,0,0,0-.08-.33l-1.52-.9a.23.23,0,0,0-.32.08.24.24,0,0,0,.08.33Z"/>
        <path class="cls-20" d="M37.74,63.3l1,1A.24.24,0,0,0,39,64l-1-1a.24.24,0,0,0-.34,0,.25.25,0,0,0,0,.34Z"/>
        <path class="cls-20" d="M35.39,34.4l1.38-1.54a.24.24,0,0,0,0-.34.24.24,0,0,0-.33,0l-1.39,1.54a.24.24,0,1,0,.34.34Z"/>
        <path class="cls-20" d="M37.38,34.35c.08-.17.17-.33.25-.49a.25.25,0,0,0,0-.19.25.25,0,0,0-.11-.14.23.23,0,0,0-.18,0,.28.28,0,0,0-.15.11L37,34.1a.31.31,0,0,0,0,.19.3.3,0,0,0,.11.14.23.23,0,0,0,.33-.08Z"/>
        <path class="cls-20" d="M37.57,36.34l.73-.73a.24.24,0,0,0-.34-.34l-.73.73a.24.24,0,0,0,.34.34Z"/>
        <path class="cls-20" d="M40.43,30.22l.73-.5a.3.3,0,0,0,.11-.14.25.25,0,0,0,0-.19.24.24,0,0,0-.33-.08l-.73.5a.23.23,0,0,0-.08.33.23.23,0,0,0,.32.08Z"/>
        <path class="cls-8" d="M37.49,28.36l2.25,1.13a.25.25,0,0,0,.33-.08.24.24,0,0,0-.09-.33l-2.25-1.14a.24.24,0,1,0-.24.42Z"/>
        <path class="cls-8" d="M36.35,29.56l1.22.49a.24.24,0,0,0,.13-.47l-1.23-.48a.24.24,0,0,0-.29.17.24.24,0,0,0,.17.29Z"/>
        <path class="cls-8" d="M49.47,77.63,50,78.85a.25.25,0,0,0,.3.17.24.24,0,0,0,.16-.29l-.48-1.23a.25.25,0,0,0-.3-.17.24.24,0,0,0-.16.3Z"/>
        <path class="cls-8" d="M50.84,77.66c.12.47.25,1,.37,1.43a.26.26,0,0,0,.3.17.26.26,0,0,0,.17-.3c-.13-.48-.26-.95-.38-1.43a.24.24,0,1,0-.46.13Z"/>
        <path class="cls-16" d="M65.57,125.84v0a3.48,3.48,0,0,0-7,0v0Z"/>
        <path class="cls-16" d="M73.36,126v0a3.48,3.48,0,1,0-7,0v0Z"/>
        <path class="cls-16" d="M42.23,126v0a3.48,3.48,0,1,0-7,0v0Z"/>
        <path class="cls-16" d="M33.6,125.84v0a3.49,3.49,0,0,0-7,0v0Z"/>
        <path class="cls-21" d="M78.85,42.05c12.69.79,27.67,5.74,40.21,7.86,1.8.3,7.52,2.44,5.13,12.77-4.35,18.84-6,46.86-6,46.86-1-.33-16.52-.93-17.59-1,.1-4.22-3.46-29.93,3.83-42.18-2.51.71-4.78-2.33-7.39-2.32a151,151,0,0,1-26.35-2.14q1.94-4.75,3.89-9.51Z"/>
        <path class="cls-22" d="M65.74,45.72c12.56.78,25.52,5.91,37.93,8,1.78.3,4.37,3.14,5.07,5a11.47,11.47,0,0,1,.4,7c-5,18.66-6,47.88-6,47.88-1-.33-18.6.35-19.66.32.1-4.23-1.13-32.23,6.09-44.48-2.49.71-24.8-3-33.4-4.46C57.48,61.91,65.74,45.72,65.74,45.72Z"/>
        <path class="cls-8" d="M34.48,68.43A5.69,5.69,0,0,0,34.27,71a.25.25,0,0,0,.3.17.27.27,0,0,0,.17-.3,5.11,5.11,0,0,1,.2-2.33c.1-.29-.36-.42-.46-.13Z"/>
        <path class="cls-8" d="M36,70v2.2a.24.24,0,0,0,.48,0V70A.24.24,0,0,0,36,70Z"/>
        <path class="cls-5" d="M108.61,28.31c.3-.31-7.83-12-11.67-17.11-.07-.09-4-4.79-12.67-1.61-7.07,2.61-28,9.92-36.65,36.21-.91,2.77-.65,5.79-1,8.68a83.09,83.09,0,0,0,13.89,1.94,12.63,12.63,0,0,0,5.11-1.23A21.82,21.82,0,0,0,76.87,44.06C78.41,40.68,94,43.58,108.61,28.31Z"/>
        <path class="cls-5" d="M91.62,11.67c6.31,4.72,16.68,15.64,17.79,16,1.53.49,12.56-.85,17.13-.83,5.06,0,4.89,4.95,4.42,5.46-3.67,4-10.16,5.05-14.51,8.32a5.44,5.44,0,0,1-6.14,1,121,121,0,0,1-36.22-17.7,4,4,0,0,1-1.67-1.85,3.51,3.51,0,0,1,.46-2.64A13.11,13.11,0,0,1,88.5,13.25Z"/>
        <path class="cls-5" d="M124.22,39.13h10.13a.24.24,0,0,0,0-.48H124.22a.24.24,0,0,0,0,.48Z"/>
        <path class="cls-3" d="M109.43,28.85a8.59,8.59,0,0,0-.13,5.79c.06.17.14.37.37.37a.43.43,0,0,0,.42-.31A40.64,40.64,0,0,0,111.41,30a11.84,11.84,0,0,0-.69,3,4.47,4.47,0,0,0,.37,2.17.41.41,0,0,0,.75,0,17.78,17.78,0,0,0,1-4.84,8.6,8.6,0,0,0-.16,4.15.48.48,0,0,0,.32.33c.32.08.51-.25.61-.53a20.86,20.86,0,0,0,.92-3.38,5.58,5.58,0,0,0,.07,2.54.83.83,0,0,0,.23.37.66.66,0,0,0,.79-.05,1.75,1.75,0,0,0,.46-.7,13.7,13.7,0,0,0,1.13-4.58.82.82,0,0,1,.13-.46.79.79,0,0,1,.42-.2l2.22-.53a13.6,13.6,0,0,0-10.35,1.25Z"/>
        <path class="cls-4" d="M110.78,29.8a8.1,8.1,0,0,0-.44,4.91c.07.35.62.27.54-.08a7.58,7.58,0,0,1,.41-4.63c.14-.32-.37-.53-.51-.2Z"/>
        <path class="cls-4" d="M112.81,29.8a7.37,7.37,0,0,0-.45,4.61c.08.35.63.27.55-.08a6.89,6.89,0,0,1,.41-4.32c.15-.33-.37-.53-.51-.21Z"/>
        <path class="cls-4" d="M114.73,29.49a7.55,7.55,0,0,0-.36,3.62.28.28,0,0,0,.55-.09,6.81,6.81,0,0,1,.32-3.32c.12-.34-.4-.54-.51-.21Z"/>
        <path class="cls-23" d="M158.78,45.57H7.43a2.56,2.56,0,1,1,0-5.11H158.78a2.56,2.56,0,1,1,0,5.11Z"/>
        <path class="cls-8" d="M33.16,51.59a33.66,33.66,0,0,1,23.51,1.87,18.24,18.24,0,0,1,5.75,4,17.5,17.5,0,0,1,4.11,10.35,7.56,7.56,0,0,1-.6,4.42c-1.16,2.06-3.76,2.8-6.11,3.05A29.12,29.12,0,0,1,33.54,63.41a12.1,12.1,0,0,1-2.6-6.55c-.06-2.38,1.27-4.92,3.54-5.65Z"/>
        <path class="cls-20" d="M42.43,67.64a11.91,11.91,0,0,0,3.27,2.68.24.24,0,0,0,.24-.42,11.52,11.52,0,0,1-3.17-2.6c-.2-.23-.54.11-.34.34Z"/>
        <path class="cls-20" d="M45.11,67.58a4.92,4.92,0,0,0,1.52,1.35.24.24,0,0,0,.33-.09.25.25,0,0,0-.08-.33,2.7,2.7,0,0,1-.4-.25l-.09-.06-.06,0h0L46.14,68c-.12-.11-.23-.21-.33-.32a1.46,1.46,0,0,1-.16-.19.27.27,0,0,1-.07-.08l0,0,0-.06a.24.24,0,1,0-.41.25Z"/>
        <path class="cls-20" d="M48,66.37a2,2,0,0,0,1.45.8.24.24,0,0,0,.24-.24.24.24,0,0,0-.24-.24h0s0,0,0,0h-.07l-.16,0a.58.58,0,0,1-.17-.06c.05,0,0,0,0,0l-.08,0-.14-.08-.07-.05,0,0-.12-.12-.06-.06,0,0s-.05-.06,0,0a.26.26,0,0,0-.33-.09.24.24,0,0,0-.09.33Z"/>
        <path class="cls-20" d="M53.46,52.4a15.08,15.08,0,0,1,7.24,3.73,16.43,16.43,0,0,1,4.47,6.8,14.62,14.62,0,0,1,.77,4.54.24.24,0,0,0,.48,0,15.67,15.67,0,0,0-2.37-8,16.82,16.82,0,0,0-6-5.85,15,15,0,0,0-4.44-1.66c-.3-.06-.43.41-.12.47Z"/>
        <path class="cls-20" d="M50.28,72.13a4.67,4.67,0,0,0,2,1.08.25.25,0,0,0,.3-.17.24.24,0,0,0-.17-.29,4.18,4.18,0,0,1-1.84-1,.24.24,0,0,0-.34.34Z"/>
        <path class="cls-20" d="M52,71.93a2.9,2.9,0,0,0,1.59.28.26.26,0,0,0,.24-.24c0-.12-.11-.26-.24-.24a2.62,2.62,0,0,1-.69,0,2.68,2.68,0,0,1-.66-.2.24.24,0,0,0-.33.09.24.24,0,0,0,.09.32Z"/>
        <path class="cls-20" d="M39.75,59.16,41,60.36a.24.24,0,0,0,.34-.34l-1.25-1.2a.23.23,0,0,0-.33,0,.24.24,0,0,0,0,.34Z"/>
        <path class="cls-20" d="M44.39,60.63a3.62,3.62,0,0,0,1.83,1,.24.24,0,0,0,.29-.17.23.23,0,0,0-.17-.29,3.12,3.12,0,0,1-1.61-.92.24.24,0,0,0-.34.34Z"/>
        <path class="cls-20" d="M35.08,51a39.66,39.66,0,0,1,11.56-.49c1.09.11,2.18.27,3.26.47.3.06.43-.4.12-.46A40,40,0,0,0,38.26,50c-1.11.11-2.21.28-3.31.49-.3.06-.17.52.13.46Z"/>
        <path class="cls-17" d="M90,70.16a27.94,27.94,0,0,1,4.44-3.35.24.24,0,0,0-.24-.41,28.56,28.56,0,0,0-4.54,3.42c-.23.21.11.55.34.34Z"/>
        <path class="cls-17" d="M90.26,71a12,12,0,0,1,3.63-2.46c.29-.13,0-.54-.24-.42a12.53,12.53,0,0,0-3.73,2.54.24.24,0,0,0,.34.34Z"/>
        <path class="cls-17" d="M84,110.08q7.41-.18,14.78-.89,2.08-.21,4.17-.45c.3,0,.31-.52,0-.48q-7.35.87-14.75,1.2c-1.4.06-2.8.11-4.2.14-.31,0-.31.49,0,.48Z"/>
        <path class="cls-17" d="M105.52,104.59l9.42-.35,2.66-.1c.31,0,.31-.49,0-.48l-9.42.35-2.66.1c-.31,0-.31.49,0,.48Z"/>
        <path class="cls-17" d="M88,96.37c-.11.65-.23,1.3-.34,1.95a.24.24,0,1,0,.46.13c.11-.65.23-1.3.34-2a.24.24,0,0,0-.16-.3.25.25,0,0,0-.3.17Z"/>
        <path class="cls-17" d="M89.27,98.71v1a.24.24,0,1,0,.48,0v-1a.24.24,0,0,0-.24-.24.24.24,0,0,0-.24.24Z"/>
        <path class="cls-17" d="M90.57,92.11l-.33,1.63a.25.25,0,0,0,.17.3.24.24,0,0,0,.29-.17L91,92.24a.26.26,0,0,0-.17-.3.24.24,0,0,0-.29.17Z"/>
        <path class="cls-17" d="M112.85,92.45l-.63,3c-.06.3.4.43.47.12.2-1,.41-2,.62-2.94.06-.3-.4-.43-.46-.13Z"/>
        <path class="cls-17" d="M115.43,93c-.22.32-.43.65-.65,1a.23.23,0,0,0,.09.32.23.23,0,0,0,.32-.08l.66-1a.24.24,0,0,0-.42-.24Z"/>
        <path class="cls-17" d="M116,85.58c-.12.54-.23,1.08-.35,1.62a.25.25,0,0,0,.17.3.24.24,0,0,0,.29-.17l.35-1.63a.23.23,0,0,0-.16-.29.25.25,0,0,0-.3.17Z"/>
        <path class="cls-24" d="M65.46,52.12l.65,1a.24.24,0,1,0,.42-.24c-.22-.32-.44-.65-.65-1a.24.24,0,0,0-.33-.08.23.23,0,0,0-.09.32Z"/>
        <path class="cls-24" d="M68.49,50.23l.13.08,0,0s0,0,0,0,0,0,.06,0a.52.52,0,0,1,.1.11s0,0,0,0,0,0,0,0l0,.06a.54.54,0,0,1,.07.13v0c0-.07,0,0,0,0a.64.64,0,0,1,0,.07.32.32,0,0,1,0,.14s0,0,0,0,0,0,0,0V51a.24.24,0,1,0,.48,0,1.38,1.38,0,0,0-.74-1.2.24.24,0,0,0-.33.09.23.23,0,0,0,.08.32Z"/>
        <path class="cls-24" d="M71,47.88l.66,1a.23.23,0,0,0,.32.08.22.22,0,0,0,.09-.32c-.22-.33-.43-.66-.65-1a.25.25,0,0,0-.33-.09.26.26,0,0,0-.09.33Z"/>
        <path class="cls-24" d="M60.2,52.66v1a.24.24,0,0,0,.48,0v-1a.24.24,0,0,0-.48,0Z"/>
        <path class="cls-5" d="M94.82,39.18h5a.24.24,0,0,0,0-.48h-5a.24.24,0,0,0,0,.48Z"/>
        <path class="cls-24" d="M67,32.43c2.36,2.35,4.8,4.76,7.87,6.17a11.91,11.91,0,0,0,2.54.87c.3.07.43-.39.13-.46-3.18-.72-5.82-2.74-8.15-4.92-.7-.66-1.37-1.33-2-2a.24.24,0,0,0-.34.34Z"/>
        <path class="cls-24" d="M70.16,32.4q3.47,2.34,6.84,4.8l1.92,1.4c.25.19.48-.23.24-.41-2.24-1.66-4.51-3.29-6.8-4.87L70.4,32c-.26-.17-.5.24-.24.42Z"/>
        <path class="cls-24" d="M63,52.47c.11.6.21,1.2.32,1.8a.25.25,0,0,0,.3.17.26.26,0,0,0,.17-.3l-.33-1.79a.25.25,0,0,0-.3-.17.24.24,0,0,0-.16.29Z"/>
        <path class="cls-24" d="M63.73,52.55c.13.5.25,1,.38,1.48a.24.24,0,0,0,.29.17.23.23,0,0,0,.17-.29c-.12-.5-.25-1-.37-1.48a.24.24,0,0,0-.47.12Z"/>
        <path class="cls-24" d="M57.83,52.58v.73a.24.24,0,0,0,.24.24.25.25,0,0,0,.24-.24v-.73a.24.24,0,0,0-.48,0Z"/>
        <path class="cls-24" d="M75.16,46.92a3,3,0,0,0,1.59,0,.24.24,0,0,0,.17-.29.25.25,0,0,0-.3-.17,2.5,2.5,0,0,1-1.33,0,.24.24,0,1,0-.13.47Z"/>
        <path class="cls-24" d="M97.59,36.7a32.58,32.58,0,0,1-8.15-5.16,56.68,56.68,0,0,1-6.79-7q-1.75-2.13-3.41-4.34c-.19-.24-.6,0-.42.24a90.51,90.51,0,0,0,6.32,7.64,43,43,0,0,0,7.41,6.39,29.71,29.71,0,0,0,4.79,2.62c.29.12.53-.29.25-.41Z"/>
        <path class="cls-24" d="M109.73,27.68a7.73,7.73,0,0,1-2.39-1.9,29.48,29.48,0,0,1-2-2.58c-1.35-1.93-2.53-4-3.84-5.95-.62-.94-1.3-1.84-2-2.76a13.41,13.41,0,0,0-2-2.37,13.37,13.37,0,0,0-5-2.72,17.68,17.68,0,0,0-6.47-.68c-.3,0-.3.5,0,.48a15.29,15.29,0,0,1,10.81,3,11.36,11.36,0,0,1,2,2.2c.66.92,1.33,1.83,2,2.77,1.31,1.94,2.49,4,3.82,5.91A32.43,32.43,0,0,0,106.87,26a8.25,8.25,0,0,0,2.62,2.11c.28.13.52-.28.24-.41Z"/>
        <path class="cls-24" d="M122.41,37.81a28,28,0,0,0,7.2-4.52,12.22,12.22,0,0,0,1.56-1.81c.18-.25-.24-.49-.41-.24a17.64,17.64,0,0,1-6.48,5.09c-.7.37-1.4.72-2.11,1.06-.28.14,0,.55.24.42Z"/>
        <path class="cls-24" d="M126.94,27.12l-1.06.66a.24.24,0,0,0-.08.33.23.23,0,0,0,.32.08l1.06-.66a.24.24,0,0,0,.09-.33.25.25,0,0,0-.33-.08Z"/>
        <path class="cls-24" d="M127.74,27.61a2,2,0,0,0-1.21.83.24.24,0,0,0,.09.33.23.23,0,0,0,.32-.08l0-.07v0s0,0,0,0l.11-.12.11-.1,0,0s0,0,0,0l.07-.05.13-.08s.1,0,.14-.07h0l.08,0,.16,0a.25.25,0,0,0,.17-.3.24.24,0,0,0-.3-.16Z"/>
        <path class="cls-24" d="M129,27.92l-.91.8a.24.24,0,1,0,.34.34l.91-.81a.24.24,0,0,0,0-.33.24.24,0,0,0-.34,0Z"/>
        <path class="cls-24" d="M129.37,28.74a1.53,1.53,0,0,0-.5.32,1.5,1.5,0,0,0-.33.5.25.25,0,0,0,0,.19.26.26,0,0,0,.14.11.23.23,0,0,0,.18,0l.05,0a.41.41,0,0,0,.07-.11v0l0,.06a1.28,1.28,0,0,1,.15-.25l0,.05a.92.92,0,0,1,.22-.22l0,0a1.35,1.35,0,0,1,.26-.15l-.06,0h0a.22.22,0,0,0,.14-.11.22.22,0,0,0-.08-.32.26.26,0,0,0-.19,0Z"/>
        <path class="cls-24" d="M129.65,29.36a2.46,2.46,0,0,0-.86.95.25.25,0,0,0,.09.33.24.24,0,0,0,.33-.09c0-.08.09-.16.14-.24l0-.06,0,0h0l0,0s0,0,.05-.05l.2-.2.05-.05,0,0s0,0,0,0l.13-.08a.25.25,0,0,0,.08-.33.24.24,0,0,0-.33-.08Z"/>
        <path class="cls-24" d="M117.59,28.24a26.15,26.15,0,0,1,9-1.41.24.24,0,0,0,0-.48,26.46,26.46,0,0,0-9.12,1.43c-.29.1-.17.56.13.46Z"/>
        <path class="cls-24" d="M104.9,39.18c3-.74,6.18-1.32,9.25-.6a10.36,10.36,0,0,1,2.37.87c.27.15.51-.27.24-.41-2.84-1.48-6.14-1.46-9.23-.92-.93.16-1.85.37-2.76.59a.24.24,0,0,0,.13.47Z"/>
        <path class="cls-24" d="M86.29,25.17a15.05,15.05,0,0,0,1.17,1.77.24.24,0,0,0,.34,0,.25.25,0,0,0,0-.34,12.28,12.28,0,0,1-1.09-1.67.24.24,0,0,0-.42.24Z"/>
        <path class="cls-24" d="M89.24,27.94c.32.42.64.83,1,1.25a.28.28,0,0,0,.15.11.28.28,0,0,0,.18,0,.24.24,0,0,0,.09-.33l-1-1.24a.3.3,0,0,0-.14-.11.25.25,0,0,0-.19,0,.22.22,0,0,0-.08.32Z"/>
        <path class="cls-24" d="M90,25.91c.27.46.54.93.82,1.39a.23.23,0,0,0,.32.09.25.25,0,0,0,.09-.33l-.81-1.39a.24.24,0,1,0-.42.24Z"/>
        <path class="cls-24" d="M93.21,30.74A6.5,6.5,0,0,0,94.53,32a.24.24,0,0,0,.33-.08.25.25,0,0,0-.08-.33l-.09-.07s0,0,0,0l0,0-.16-.13-.32-.29-.28-.3-.14-.16-.06-.08,0,0s0-.06,0,0a.28.28,0,0,0-.15-.11.23.23,0,0,0-.18,0,.24.24,0,0,0-.09.33Z"/>
        <path class="cls-24" d="M70.79,19.89l-1.05,1.16a.24.24,0,0,0,.34.34l1-1.16a.24.24,0,1,0-.34-.34Z"/>
        <path class="cls-24" d="M71.13,21.78l-.73.83a.24.24,0,1,0,.34.34l.73-.83a.24.24,0,0,0-.34-.34Z"/>
        <path class="cls-24" d="M69.91,24.15l-.66.66a.24.24,0,0,0,.34.34l.66-.66a.25.25,0,0,0,0-.34.26.26,0,0,0-.34,0Z"/>
        <path class="cls-24" d="M65.54,23.37l-.81.58a.3.3,0,0,0-.11.14.25.25,0,0,0,0,.19.24.24,0,0,0,.33.08l.81-.58a.3.3,0,0,0,.11-.14.25.25,0,0,0,0-.19.23.23,0,0,0-.32-.08Z"/>
        <path class="cls-24" d="M61.29,29.5a2.62,2.62,0,0,0-.72.83.23.23,0,0,0,.08.33.24.24,0,0,0,.33-.09,1.69,1.69,0,0,1,.21-.31l0,0a2.65,2.65,0,0,1,.41-.41l0,0h0a.3.3,0,0,0,.11-.14.31.31,0,0,0,0-.19.26.26,0,0,0-.14-.11.25.25,0,0,0-.19,0Z"/>
        <path class="cls-24" d="M60,32.32a5.61,5.61,0,0,0-1,1.35.24.24,0,0,0,.42.24,4.94,4.94,0,0,1,.4-.67l.12-.16s0,0,0,0l0,0,.07-.08.26-.3a.24.24,0,0,0,0-.34.26.26,0,0,0-.34,0Z"/>
        <path class="cls-5" d="M73.75,12.81a3.84,3.84,0,0,1,.84,1.61.23.23,0,0,0,.29.17.24.24,0,0,0,.17-.29,4.42,4.42,0,0,0-1-1.83.26.26,0,0,0-.34,0,.24.24,0,0,0,0,.34Z"/>
        <path class="cls-5" d="M74.86,12.92l1.06,1.64a.24.24,0,1,0,.41-.24l-1-1.64a.25.25,0,0,0-.33-.09.25.25,0,0,0-.09.33Z"/>
        <path class="cls-5" d="M96.08,8.69l1.4-.88a.24.24,0,0,0-.24-.42l-1.4.89a.23.23,0,0,0-.09.32.25.25,0,0,0,.33.09Z"/>
        <path class="cls-5" d="M97.41,9.2l2-.52c.3-.07.17-.54-.13-.46l-2,.51a.24.24,0,0,0,.13.47Z"/>
        <path class="cls-5" d="M123.21,24.94l1.39-.41a.24.24,0,0,0,.17-.29.25.25,0,0,0-.3-.17l-1.39.41a.24.24,0,0,0-.17.29.24.24,0,0,0,.3.17Z"/>
        <path class="cls-5" d="M124.13,25.58a6.65,6.65,0,0,0,1.78-.07.24.24,0,0,0,.16-.3.24.24,0,0,0-.29-.16,6.52,6.52,0,0,1-1.65.05.24.24,0,0,0,0,.48Z"/>
        <path class="cls-5" d="M90.89,38.31a6.86,6.86,0,0,0,1.47,2.1c.23.22.57-.12.34-.34a6.31,6.31,0,0,1-1.39-2A.25.25,0,0,0,91,38a.25.25,0,0,0-.09.33Z"/>
        <path class="cls-5" d="M92.18,38.47l1.15,1.06a.25.25,0,0,0,.34,0,.24.24,0,0,0,0-.34l-1.15-1.06a.25.25,0,0,0-.34,0,.26.26,0,0,0,0,.34Z"/>
        <path class="cls-5" d="M51.93,32.61,55.11,32c.31-.05.18-.51-.12-.46l-3.19.57c-.3.06-.17.52.13.46Z"/>
        <path class="cls-5" d="M52.26,33.62l2.37-.48a.24.24,0,0,0,.17-.29.24.24,0,0,0-.3-.17l-2.37.47a.25.25,0,0,0-.17.3.26.26,0,0,0,.3.17Z"/>
        <path class="cls-25" d="M119.12,10.11a16,16,0,0,0,.84,4.75,9.34,9.34,0,0,0,.42,1.11.76.76,0,0,0,.64.52,1.18,1.18,0,0,0,.84-.51,2.63,2.63,0,0,0,.43-2.8c-.1-.21-.38-.12-.44.05a6,6,0,0,0,.93,5.76c.36.46,1.1,1.15,1.65.54a2.57,2.57,0,0,0,.49-1.15,3.66,3.66,0,0,0,0-1.32c0-.29-.45-.19-.47.06a3.32,3.32,0,0,0,1.59,3,1.43,1.43,0,0,0,1.74,0,1.64,1.64,0,0,0,.28-1.53,5.55,5.55,0,0,0-1-2.12.24.24,0,0,0-.41.24,4.18,4.18,0,0,0,1,1.42,3.86,3.86,0,0,0,.75.52.81.81,0,0,0,.84.12c.49-.28.37-1.08.25-1.53a2.9,2.9,0,0,0-1-1.51c-.23-.2-.57.14-.34.33a2.59,2.59,0,0,1,.8,1.16,2.55,2.55,0,0,1,.12.67c0,.12,0,.44-.15.48s-.24-.09-.32-.13l-.29-.17a3.79,3.79,0,0,1-.54-.45,3.63,3.63,0,0,1-.79-1.15l-.41.24a5.65,5.65,0,0,1,.8,1.54,2,2,0,0,1,.1,1.35c-.24.53-.89.32-1.27.1a2.83,2.83,0,0,1-1-1.05,2.8,2.8,0,0,1-.36-1.6l-.47.06a2.91,2.91,0,0,1-.3,1.92c-.34.57-1-.38-1.2-.67a5.56,5.56,0,0,1-1-3.18,5.31,5.31,0,0,1,.34-1.89l-.44.06a2.13,2.13,0,0,1,.07,1.45,2.1,2.1,0,0,1-.33.67c-.11.14-.4.52-.6.47s-.31-.52-.38-.68c-.12-.31-.23-.63-.33-.95a16.44,16.44,0,0,1-.47-2,15.07,15.07,0,0,1-.23-2.31c0-.31-.49-.31-.48,0Z"/>
        <path class="cls-25" d="M123.81,10.28a.37.37,0,0,1,.45-.14.53.53,0,0,1,.32.47c0,.58-.45,1-.84,1.34-.2.18.06.53.29.38a1.09,1.09,0,0,1,1.52.25c.29.5-.22,1.29-.8,1.11a.24.24,0,0,0-.13.47A1.26,1.26,0,0,0,126,12.47a1.56,1.56,0,0,0-2.24-.56l.29.38c.57-.51,1.23-1.23.89-2.06a.91.91,0,0,0-.75-.58.79.79,0,0,0-.82.39c-.15.27.26.51.41.24Z"/>
        <path class="cls-25" d="M112.71,9.06,112.8,9h0l0,0,.16-.05.17,0h.45A2,2,0,0,1,114,9a.24.24,0,0,0,.3-.16.26.26,0,0,0-.17-.3,2,2,0,0,0-1.64.1.24.24,0,0,0-.09.33.25.25,0,0,0,.33.09Z"/>
        <path class="cls-25" d="M113.49,9.82l.1-.06,0,0h0s0,0,0,0a.9.9,0,0,1,.22-.06H114l.12,0a.25.25,0,0,0,.3-.17.26.26,0,0,0-.17-.3,1.28,1.28,0,0,0-1,.17.3.3,0,0,0-.11.14.25.25,0,0,0,0,.19.24.24,0,0,0,.32.09Z"/>
        <path class="cls-25" d="M115.83,8.32l.06-.06h0l0,0,.14-.09.07,0h0l.16,0,.08,0h0s0,0,0,0h.29l.16,0a.25.25,0,0,0,.3-.17.24.24,0,0,0-.17-.29,1.64,1.64,0,0,0-1.54.37.24.24,0,0,0,.34.34Z"/>
        <path class="cls-25" d="M117,9.3a.08.08,0,0,1,0,0l0,0a.46.46,0,0,1,.15-.09l-.06,0,.19-.05h0l.1,0a.23.23,0,0,0,.29-.16.25.25,0,0,0-.17-.3.92.92,0,0,0-.88.22.24.24,0,0,0,0,.34.26.26,0,0,0,.34,0Z"/>
        <path class="cls-25" d="M119.61,7.22s0,0,0,0h0s0,0,0,0l0,0c0,.06,0-.06,0,0l0,0h0a.24.24,0,0,1,.09-.06s0,0,0,0h0c-.06,0,.08,0,0,0l.06,0s0,0,0,0h0l0,0s0,0,0,0l0,0s0,.05,0,0,0,0,0,0,0,0,0,.06,0,0,0,0v.12s0,0,0,0,0,0,0,.06l0,0s0,0,0,0l0,0s0,0,0,0a.25.25,0,0,0,.23.41,1.3,1.3,0,0,1,.89.11L121,7.93V8s0,0,0,0,0,0,0,.06,0,0,0,0l0,0s0,0,0,0l0,0a.3.3,0,0,1-.11.06s0,0,0,0h-.05s0,0,0,0l-.06,0a.24.24,0,1,0-.13.47.74.74,0,0,0,.94-.68.37.37,0,0,0-.19-.36,2,2,0,0,0-.39-.14,1.84,1.84,0,0,0-.81,0l.23.4a.87.87,0,0,0-.17-1.33c-.48-.23-1.18.24-1,.79a.26.26,0,0,0,.3.17.25.25,0,0,0,.17-.3Z"/>
      </g>
    </g>
  </g>
</svg>
