<svg xmlns="http://www.w3.org/2000/svg" width="51.588" height="44.816" viewBox="0 0 51.588 44.816">
  <g id="Group_1485" data-name="Group 1485" transform="translate(-770.092 -949.09)">
    <g id="Layer_2" data-name="Layer 2" transform="translate(770.092 949.09)">
      <g id="object" transform="translate(0 0)">
        <path id="Path_1837" data-name="Path 1837" d="M50.024,0H1.567A1.571,1.571,0,0,0,0,1.567V43.249a1.571,1.571,0,0,0,1.567,1.567H50.021a1.571,1.571,0,0,0,1.567-1.567V1.567A1.571,1.571,0,0,0,50.024,0ZM12.836,39.756a.948.948,0,0,1-.946.948H4.8a.951.951,0,0,1-.948-.948V32.665a.951.951,0,0,1,.948-.948H11.89a.948.948,0,0,1,.946.948Zm0-14.306a.948.948,0,0,1-.946.948H4.8a.951.951,0,0,1-.948-.948V18.362a.951.951,0,0,1,.948-.948H11.89a.948.948,0,0,1,.946.948Zm0-14.449a.948.948,0,0,1-.946.948H4.8A.951.951,0,0,1,3.851,11V3.923A.951.951,0,0,1,4.8,2.974H11.89a.948.948,0,0,1,.946.948ZM47.084,39.756a.951.951,0,0,1-.948.948H39.047a.951.951,0,0,1-.948-.948V32.665a.951.951,0,0,1,.948-.948h7.1a.951.951,0,0,1,.948.948Zm0-14.306a.951.951,0,0,1-.948.948H39.047a.951.951,0,0,1-.948-.948V18.362a.951.951,0,0,1,.948-.948h7.1a.951.951,0,0,1,.948.948Zm0-14.449a.951.951,0,0,1-.937.948h-7.1A.951.951,0,0,1,38.1,11V3.923a.951.951,0,0,1,.948-.948h7.1a.951.951,0,0,1,.937.948Z" transform="translate(0 0)" fill="#8588ff"/>
      </g>
    </g>
  </g>
</svg>
