<svg xmlns="http://www.w3.org/2000/svg" width="129.195" height="92.927" viewBox="0 0 129.195 92.927">
  <g id="Group_1361" data-name="Group 1361" transform="translate(-768.893 -953.195)">
    <g id="Group_1319" data-name="Group 1319" transform="translate(807.25 953.195)" opacity="0.08">
      <path id="Path_1260" data-name="Path 1260" d="M39.988,30.2a2.622,2.622,0,0,0-1.285-1.93.836.836,0,0,0,.382-.194c.387-.442-1.391-.538-1.468-.541q-2.552-.095-5.1-.233-1.31-.072-2.619-.156l-.2-.01c-.5-.053-1-.1-1.5-.154q.119-2.674.134-5.353.015-2.884-.094-5.768c-.009-.259-.507-.376-.66-.41a3.719,3.719,0,0,0-.8-.074v-.547c0-.255-.518-.378-.66-.409a4.529,4.529,0,0,0-1.484-.029,4.427,4.427,0,0,0-1.438.367c-.217.113-.55.259-.55.549l-.023,11.119q-3.074-.291-6.148-.555c-.707-.061-1.413-.113-2.121-.172-.838-.1-1.675-.2-2.514-.313a7.421,7.421,0,0,0-1.549-.007,1.429,1.429,0,0,0-.243.024,3.45,3.45,0,0,0-1.047.233c-.15.069-.384.189-.2.37a.668.668,0,0,0,.262.143,1.719,1.719,0,0,0-.188,1.05,2.426,2.426,0,0,0,1.977,2.148q5.883.45,11.76,1-.007,3-.012,6t-.012,5.993c0,.257.518.378.659.41a4.529,4.529,0,0,0,1.484.029,4.414,4.414,0,0,0,1.439-.368c.242-.124.5-.25.55-.549q.847-5.468,1.246-10.994,2.225.225,4.449.464,3.014.327,6.029.681A1.523,1.523,0,0,0,39.988,30.2Z" transform="translate(-7.75 -12.729)" fill="#bfbfbf"/>
      <path id="Path_1261" data-name="Path 1261" d="M33.632,19.719v-.945q-.019-2.193-.194-4.382c-.012-.15-.323-.189-.4-.2a98.109,98.109,0,0,0-11.014-1.5l-.678-6.738q-.175-1.762-.352-3.525A4.6,4.6,0,0,0,20.775.959C20.543.471,20,.385,19.516.339,18.209.214,16.9.1,15.595-.024a3.287,3.287,0,0,0-1.742.286.915.915,0,0,0-.267.18.76.76,0,0,0-.372.515,60.63,60.63,0,0,0-.74,10.585Q8.131,10.8,3.734,10.47A5.013,5.013,0,0,0,.882,10.7a1.619,1.619,0,0,0-.826,1.05A6.642,6.642,0,0,0,.016,13.1v2.577A4.177,4.177,0,0,0,.3,17.819a2.654,2.654,0,0,0,2.292.993L5.137,19l5.208.383,1.228.091.685.051h.013c.074.28-.007-.073.04.1a2.179,2.179,0,0,1,.061.433c.027.424.028.852.044,1.277q.1,2.575.329,5.142.127,1.418.294,2.832a3.37,3.37,0,0,0,.272,1.319,1.752,1.752,0,0,0,1.482.712,10.968,10.968,0,0,0,1.384-.078l1.35-.091,2.97-.2c.571-.038,1.479-.278,1.435-1.03q-.32-5.331-.637-10.661l5.783,1.052c1.259.225,2.518.486,3.781.689a4.061,4.061,0,0,0,1.532-.075,1.794,1.794,0,0,0,1.1-.563A1.156,1.156,0,0,0,33.632,19.719Zm-3.812,0-2.9-.529-5.875-1.069h-.03a1.678,1.678,0,0,0-1.116-.192c-.5.1-1.139.4-1.1,1.005l.626,10.489-3.3.225c-.171.012-.342.025-.514.035-.035-.209-.052-.423-.078-.634q-.144-1.212-.259-2.426-.223-2.363-.335-4.735c-.038-.771-.022-1.554-.093-2.323a1.708,1.708,0,0,0-1.346-1.576,6.219,6.219,0,0,0-1.235-.143l-1.228-.091-2.4-.176-4.867-.358-.548-.041c-.09-.007-.182-.016-.274-.02H2.885c-.05-.011-.1-.023-.156-.032-.025-.019-.058-.042-.058-.033a.809.809,0,0,1-.093-.162l-.011-.021a.223.223,0,0,0-.015-.083c-.012-.064-.025-.127-.032-.191a3.516,3.516,0,0,1-.028-.391c-.01-.389,0-.78,0-1.169V12.571c0-.162-.006-.325,0-.487h.1a85.732,85.732,0,0,1,10.654,1.381c.649.125,1.774-.156,1.742-1A58.435,58.435,0,0,1,15.656,1c0-.016,0-.029,0-.045L16.134,1l.963.089.549.051a1.685,1.685,0,0,1,.5.052c.378.19.325,1.1.358,1.433l.215,2.138.854,8.5c.015.144.319.2.4.2a98.17,98.17,0,0,1,11.006,1.463c.075.966.131,1.932.16,2.9q.023.743.027,1.484v.649Z" transform="translate(-0.001 0.044)" fill="#bfbfbf"/>
    </g>
    <g id="Group_1320" data-name="Group 1320" transform="translate(825.309 998.383)" opacity="0.08">
      <path id="Path_1260-2" data-name="Path 1260" d="M39.988,30.2a2.622,2.622,0,0,0-1.285-1.93.836.836,0,0,0,.382-.194c.387-.442-1.391-.538-1.468-.541q-2.552-.095-5.1-.233-1.31-.072-2.619-.156l-.2-.01c-.5-.053-1-.1-1.5-.154q.119-2.674.134-5.353.015-2.884-.094-5.768c-.009-.259-.507-.376-.66-.41a3.719,3.719,0,0,0-.8-.074v-.547c0-.255-.518-.378-.66-.409a4.529,4.529,0,0,0-1.484-.029,4.427,4.427,0,0,0-1.438.367c-.217.113-.55.259-.55.549l-.023,11.119q-3.074-.291-6.148-.555c-.707-.061-1.413-.113-2.121-.172-.838-.1-1.675-.2-2.514-.313a7.421,7.421,0,0,0-1.549-.007,1.429,1.429,0,0,0-.243.024,3.45,3.45,0,0,0-1.047.233c-.15.069-.384.189-.2.37a.668.668,0,0,0,.262.143,1.719,1.719,0,0,0-.188,1.05,2.426,2.426,0,0,0,1.977,2.148q5.883.45,11.76,1-.007,3-.012,6t-.012,5.993c0,.257.518.378.659.41a4.529,4.529,0,0,0,1.484.029,4.414,4.414,0,0,0,1.439-.368c.242-.124.5-.25.55-.549q.847-5.468,1.246-10.994,2.225.225,4.449.464,3.014.327,6.029.681A1.523,1.523,0,0,0,39.988,30.2Z" transform="translate(-7.75 -12.729)" fill="#bfbfbf"/>
      <path id="Path_1261-2" data-name="Path 1261" d="M33.632,19.719v-.945q-.019-2.193-.194-4.382c-.012-.15-.323-.189-.4-.2a98.109,98.109,0,0,0-11.014-1.5l-.678-6.738q-.175-1.762-.352-3.525A4.6,4.6,0,0,0,20.775.959C20.543.471,20,.385,19.516.339,18.209.214,16.9.1,15.595-.024a3.287,3.287,0,0,0-1.742.286.915.915,0,0,0-.267.18.76.76,0,0,0-.372.515,60.63,60.63,0,0,0-.74,10.585Q8.131,10.8,3.734,10.47A5.013,5.013,0,0,0,.882,10.7a1.619,1.619,0,0,0-.826,1.05A6.642,6.642,0,0,0,.016,13.1v2.577A4.177,4.177,0,0,0,.3,17.819a2.654,2.654,0,0,0,2.292.993L5.137,19l5.208.383,1.228.091.685.051h.013c.074.28-.007-.073.04.1a2.179,2.179,0,0,1,.061.433c.027.424.028.852.044,1.277q.1,2.575.329,5.142.127,1.418.294,2.832a3.37,3.37,0,0,0,.272,1.319,1.752,1.752,0,0,0,1.482.712,10.968,10.968,0,0,0,1.384-.078l1.35-.091,2.97-.2c.571-.038,1.479-.278,1.435-1.03q-.32-5.331-.637-10.661l5.783,1.052c1.259.225,2.518.486,3.781.689a4.061,4.061,0,0,0,1.532-.075,1.794,1.794,0,0,0,1.1-.563A1.156,1.156,0,0,0,33.632,19.719Zm-3.812,0-2.9-.529-5.875-1.069h-.03a1.678,1.678,0,0,0-1.116-.192c-.5.1-1.139.4-1.1,1.005l.626,10.489-3.3.225c-.171.012-.342.025-.514.035-.035-.209-.052-.423-.078-.634q-.144-1.212-.259-2.426-.223-2.363-.335-4.735c-.038-.771-.022-1.554-.093-2.323a1.708,1.708,0,0,0-1.346-1.576,6.219,6.219,0,0,0-1.235-.143l-1.228-.091-2.4-.176-4.867-.358-.548-.041c-.09-.007-.182-.016-.274-.02H2.885c-.05-.011-.1-.023-.156-.032-.025-.019-.058-.042-.058-.033a.809.809,0,0,1-.093-.162l-.011-.021a.223.223,0,0,0-.015-.083c-.012-.064-.025-.127-.032-.191a3.516,3.516,0,0,1-.028-.391c-.01-.389,0-.78,0-1.169V12.571c0-.162-.006-.325,0-.487h.1a85.732,85.732,0,0,1,10.654,1.381c.649.125,1.774-.156,1.742-1A58.435,58.435,0,0,1,15.656,1c0-.016,0-.029,0-.045L16.134,1l.963.089.549.051a1.685,1.685,0,0,1,.5.052c.378.19.325,1.1.358,1.433l.215,2.138.854,8.5c.015.144.319.2.4.2a98.17,98.17,0,0,1,11.006,1.463c.075.966.131,1.932.16,2.9q.023.743.027,1.484v.649Z" transform="translate(-0.001 0.044)" fill="#bfbfbf"/>
    </g>
    <g id="Group_1321" data-name="Group 1321" transform="translate(768.893 953.195)">
      <path id="Path_1260-3" data-name="Path 1260" d="M101.3,61.3a7.765,7.765,0,0,0-3.8-5.715,2.475,2.475,0,0,0,1.131-.573c1.147-1.31-4.119-1.593-4.347-1.6q-7.557-.28-15.114-.69-3.878-.213-7.755-.463l-.6-.03c-1.478-.157-2.952-.3-4.43-.457q.354-7.918.4-15.849.043-8.541-.278-17.078c-.026-.766-1.5-1.113-1.954-1.213a11.012,11.012,0,0,0-2.377-.22v-1.62c0-.756-1.534-1.12-1.954-1.21a13.411,13.411,0,0,0-4.393-.087,13.11,13.11,0,0,0-4.258,1.086c-.641.333-1.63.766-1.63,1.626l-.069,32.924q-9.1-.863-18.205-1.643c-2.093-.18-4.185-.333-6.281-.51-2.483-.3-4.959-.6-7.445-.926a21.973,21.973,0,0,0-4.585-.02,4.226,4.226,0,0,0-.721.07,10.214,10.214,0,0,0-3.1.69c-.443.2-1.137.56-.592,1.1a1.979,1.979,0,0,0,.777.423,5.09,5.09,0,0,0-.555,3.109c.417,2.943,2.681,6.118,5.855,6.362q17.418,1.333,34.82,2.969-.02,8.887-.036,17.775t-.036,17.745c0,.76,1.534,1.12,1.95,1.213a13.411,13.411,0,0,0,4.393.087,13.072,13.072,0,0,0,4.261-1.09c.717-.367,1.491-.74,1.63-1.626Q64.492,79.657,65.672,63.3q6.588.666,13.174,1.373,8.926.97,17.851,2.016C99.682,67.031,101.686,64.052,101.3,61.3Z" transform="translate(-5.84 -9.552)" fill="#bfbfbf"/>
      <path id="Path_1261-3" data-name="Path 1261" d="M99.582,58.474v-2.8q-.056-6.495-.575-12.976c-.036-.443-.955-.56-1.2-.606A290.5,290.5,0,0,0,65.2,37.647L63.192,17.7q-.519-5.219-1.041-10.437c-.136-1.356-.04-3.072-.638-4.332-.688-1.446-2.291-1.7-3.729-1.836C53.916.72,50.044.374,46.173.014A9.732,9.732,0,0,0,41.016.86a2.709,2.709,0,0,0-.79.533,2.252,2.252,0,0,0-1.1,1.526,179.526,179.526,0,0,0-2.192,31.341q-12.86-2.2-25.881-3.172c-2.78-.207-5.884-.736-8.443.69A4.8,4.8,0,0,0,.163,34.887a19.668,19.668,0,0,0-.119,4v7.631c0,2.1-.248,4.445.853,6.332,1.388,2.393,4.3,2.756,6.787,2.939s5.012.367,7.524.55l15.422,1.133,3.636.27,2.03.15h.04c.218.83-.02-.217.119.283a6.452,6.452,0,0,1,.182,1.283c.079,1.256.083,2.523.129,3.782q.3,7.625.975,15.226.377,4.2.869,8.384a9.98,9.98,0,0,0,.807,3.906c.912,1.543,2.724,2,4.387,2.109a32.473,32.473,0,0,0,4.1-.23l4-.27,8.793-.593c1.689-.113,4.38-.823,4.248-3.049q-.949-15.786-1.888-31.568L80.177,60.27c3.729.666,7.455,1.44,11.2,2.039a12.025,12.025,0,0,0,4.536-.223c1.061-.237,2.6-.666,3.256-1.666A3.424,3.424,0,0,0,99.582,58.474Zm-11.286,0-8.6-1.566-17.4-3.166h-.089a4.968,4.968,0,0,0-3.306-.57c-1.484.287-3.372,1.186-3.266,2.976L57.5,87.206l-9.779.666c-.506.037-1.012.073-1.521.1-.1-.62-.155-1.253-.231-1.876q-.426-3.589-.767-7.185-.661-7-.992-14.019c-.112-2.283-.066-4.6-.274-6.878a5.057,5.057,0,0,0-3.987-4.665,18.416,18.416,0,0,0-3.656-.423l-3.636-.27-7.1-.52-14.41-1.06-1.623-.12c-.268-.02-.539-.047-.81-.06H8.54c-.149-.033-.307-.067-.463-.093-.073-.057-.172-.123-.172-.1a2.394,2.394,0,0,1-.274-.48L7.6,50.166a.659.659,0,0,0-.043-.247c-.036-.19-.073-.377-.1-.567A10.411,10.411,0,0,1,7.376,48.2c-.03-1.153,0-2.309,0-3.462V37.31c0-.48-.017-.963,0-1.443h.288a253.854,253.854,0,0,1,31.547,4.089c1.921.37,5.253-.463,5.157-2.953a173.028,173.028,0,0,1,1.987-33.97c0-.047,0-.087,0-.133l1.415.133,2.853.263,1.626.15a4.989,4.989,0,0,1,1.468.153c1.121.563.962,3.242,1.061,4.242l.638,6.332,2.529,25.17c.043.427.945.59,1.193.606a290.687,290.687,0,0,1,32.589,4.332c.221,2.859.387,5.722.473,8.591q.069,2.2.079,4.4v1.923Z" transform="translate(-0.001 0.044)" fill="#bfbfbf"/>
    </g>
    <g id="Group_1322" data-name="Group 1322" transform="translate(864.457 993.765)" opacity="0.08">
      <path id="Path_1260-4" data-name="Path 1260" d="M39.988,30.2a2.622,2.622,0,0,0-1.285-1.93.836.836,0,0,0,.382-.194c.387-.442-1.391-.538-1.468-.541q-2.552-.095-5.1-.233-1.31-.072-2.619-.156l-.2-.01c-.5-.053-1-.1-1.5-.154q.119-2.674.134-5.353.015-2.884-.094-5.768c-.009-.259-.507-.376-.66-.41a3.719,3.719,0,0,0-.8-.074v-.547c0-.255-.518-.378-.66-.409a4.529,4.529,0,0,0-1.484-.029,4.427,4.427,0,0,0-1.438.367c-.217.113-.55.259-.55.549l-.023,11.119q-3.074-.291-6.148-.555c-.707-.061-1.413-.113-2.121-.172-.838-.1-1.675-.2-2.514-.313a7.421,7.421,0,0,0-1.549-.007,1.429,1.429,0,0,0-.243.024,3.45,3.45,0,0,0-1.047.233c-.15.069-.384.189-.2.37a.668.668,0,0,0,.262.143,1.719,1.719,0,0,0-.188,1.05,2.426,2.426,0,0,0,1.977,2.148q5.883.45,11.76,1-.007,3-.012,6t-.012,5.993c0,.257.518.378.659.41a4.529,4.529,0,0,0,1.484.029,4.414,4.414,0,0,0,1.439-.368c.242-.124.5-.25.55-.549q.847-5.468,1.246-10.994,2.225.225,4.449.464,3.014.327,6.029.681A1.523,1.523,0,0,0,39.988,30.2Z" transform="translate(-7.75 -12.729)" fill="#bfbfbf"/>
      <path id="Path_1261-4" data-name="Path 1261" d="M33.632,19.719v-.945q-.019-2.193-.194-4.382c-.012-.15-.323-.189-.4-.2a98.109,98.109,0,0,0-11.014-1.5l-.678-6.738q-.175-1.762-.352-3.525A4.6,4.6,0,0,0,20.775.959C20.543.471,20,.385,19.516.339,18.209.214,16.9.1,15.595-.024a3.287,3.287,0,0,0-1.742.286.915.915,0,0,0-.267.18.76.76,0,0,0-.372.515,60.63,60.63,0,0,0-.74,10.585Q8.131,10.8,3.734,10.47A5.013,5.013,0,0,0,.882,10.7a1.619,1.619,0,0,0-.826,1.05A6.642,6.642,0,0,0,.016,13.1v2.577A4.177,4.177,0,0,0,.3,17.819a2.654,2.654,0,0,0,2.292.993L5.137,19l5.208.383,1.228.091.685.051h.013c.074.28-.007-.073.04.1a2.179,2.179,0,0,1,.061.433c.027.424.028.852.044,1.277q.1,2.575.329,5.142.127,1.418.294,2.832a3.37,3.37,0,0,0,.272,1.319,1.752,1.752,0,0,0,1.482.712,10.968,10.968,0,0,0,1.384-.078l1.35-.091,2.97-.2c.571-.038,1.479-.278,1.435-1.03q-.32-5.331-.637-10.661l5.783,1.052c1.259.225,2.518.486,3.781.689a4.061,4.061,0,0,0,1.532-.075,1.794,1.794,0,0,0,1.1-.563A1.156,1.156,0,0,0,33.632,19.719Zm-3.812,0-2.9-.529-5.875-1.069h-.03a1.678,1.678,0,0,0-1.116-.192c-.5.1-1.139.4-1.1,1.005l.626,10.489-3.3.225c-.171.012-.342.025-.514.035-.035-.209-.052-.423-.078-.634q-.144-1.212-.259-2.426-.223-2.363-.335-4.735c-.038-.771-.022-1.554-.093-2.323a1.708,1.708,0,0,0-1.346-1.576,6.219,6.219,0,0,0-1.235-.143l-1.228-.091-2.4-.176-4.867-.358-.548-.041c-.09-.007-.182-.016-.274-.02H2.885c-.05-.011-.1-.023-.156-.032-.025-.019-.058-.042-.058-.033a.809.809,0,0,1-.093-.162l-.011-.021a.223.223,0,0,0-.015-.083c-.012-.064-.025-.127-.032-.191a3.516,3.516,0,0,1-.028-.391c-.01-.389,0-.78,0-1.169V12.571c0-.162-.006-.325,0-.487h.1a85.732,85.732,0,0,1,10.654,1.381c.649.125,1.774-.156,1.742-1A58.435,58.435,0,0,1,15.656,1c0-.016,0-.029,0-.045L16.134,1l.963.089.549.051a1.685,1.685,0,0,1,.5.052c.378.19.325,1.1.358,1.433l.215,2.138.854,8.5c.015.144.319.2.4.2a98.17,98.17,0,0,1,11.006,1.463c.075.966.131,1.932.16,2.9q.023.743.027,1.484v.649Z" transform="translate(-0.001 0.044)" fill="#bfbfbf"/>
    </g>
    <g id="Group_1323" data-name="Group 1323" transform="translate(842.124 964.116)" opacity="0.08">
      <path id="Path_1260-5" data-name="Path 1260" d="M39.988,30.2a2.622,2.622,0,0,0-1.285-1.93.836.836,0,0,0,.382-.194c.387-.442-1.391-.538-1.468-.541q-2.552-.095-5.1-.233-1.31-.072-2.619-.156l-.2-.01c-.5-.053-1-.1-1.5-.154q.119-2.674.134-5.353.015-2.884-.094-5.768c-.009-.259-.507-.376-.66-.41a3.719,3.719,0,0,0-.8-.074v-.547c0-.255-.518-.378-.66-.409a4.529,4.529,0,0,0-1.484-.029,4.427,4.427,0,0,0-1.438.367c-.217.113-.55.259-.55.549l-.023,11.119q-3.074-.291-6.148-.555c-.707-.061-1.413-.113-2.121-.172-.838-.1-1.675-.2-2.514-.313a7.421,7.421,0,0,0-1.549-.007,1.429,1.429,0,0,0-.243.024,3.45,3.45,0,0,0-1.047.233c-.15.069-.384.189-.2.37a.668.668,0,0,0,.262.143,1.719,1.719,0,0,0-.188,1.05,2.426,2.426,0,0,0,1.977,2.148q5.883.45,11.76,1-.007,3-.012,6t-.012,5.993c0,.257.518.378.659.41a4.529,4.529,0,0,0,1.484.029,4.414,4.414,0,0,0,1.439-.368c.242-.124.5-.25.55-.549q.847-5.468,1.246-10.994,2.225.225,4.449.464,3.014.327,6.029.681A1.523,1.523,0,0,0,39.988,30.2Z" transform="translate(-7.75 -12.729)" fill="#bfbfbf"/>
      <path id="Path_1261-5" data-name="Path 1261" d="M33.632,19.719v-.945q-.019-2.193-.194-4.382c-.012-.15-.323-.189-.4-.2a98.109,98.109,0,0,0-11.014-1.5l-.678-6.738q-.175-1.762-.352-3.525A4.6,4.6,0,0,0,20.775.959C20.543.471,20,.385,19.516.339,18.209.214,16.9.1,15.595-.024a3.287,3.287,0,0,0-1.742.286.915.915,0,0,0-.267.18.76.76,0,0,0-.372.515,60.63,60.63,0,0,0-.74,10.585Q8.131,10.8,3.734,10.47A5.013,5.013,0,0,0,.882,10.7a1.619,1.619,0,0,0-.826,1.05A6.642,6.642,0,0,0,.016,13.1v2.577A4.177,4.177,0,0,0,.3,17.819a2.654,2.654,0,0,0,2.292.993L5.137,19l5.208.383,1.228.091.685.051h.013c.074.28-.007-.073.04.1a2.179,2.179,0,0,1,.061.433c.027.424.028.852.044,1.277q.1,2.575.329,5.142.127,1.418.294,2.832a3.37,3.37,0,0,0,.272,1.319,1.752,1.752,0,0,0,1.482.712,10.968,10.968,0,0,0,1.384-.078l1.35-.091,2.97-.2c.571-.038,1.479-.278,1.435-1.03q-.32-5.331-.637-10.661l5.783,1.052c1.259.225,2.518.486,3.781.689a4.061,4.061,0,0,0,1.532-.075,1.794,1.794,0,0,0,1.1-.563A1.156,1.156,0,0,0,33.632,19.719Zm-3.812,0-2.9-.529-5.875-1.069h-.03a1.678,1.678,0,0,0-1.116-.192c-.5.1-1.139.4-1.1,1.005l.626,10.489-3.3.225c-.171.012-.342.025-.514.035-.035-.209-.052-.423-.078-.634q-.144-1.212-.259-2.426-.223-2.363-.335-4.735c-.038-.771-.022-1.554-.093-2.323a1.708,1.708,0,0,0-1.346-1.576,6.219,6.219,0,0,0-1.235-.143l-1.228-.091-2.4-.176-4.867-.358-.548-.041c-.09-.007-.182-.016-.274-.02H2.885c-.05-.011-.1-.023-.156-.032-.025-.019-.058-.042-.058-.033a.809.809,0,0,1-.093-.162l-.011-.021a.223.223,0,0,0-.015-.083c-.012-.064-.025-.127-.032-.191a3.516,3.516,0,0,1-.028-.391c-.01-.389,0-.78,0-1.169V12.571c0-.162-.006-.325,0-.487h.1a85.732,85.732,0,0,1,10.654,1.381c.649.125,1.774-.156,1.742-1A58.435,58.435,0,0,1,15.656,1c0-.016,0-.029,0-.045L16.134,1l.963.089.549.051a1.685,1.685,0,0,1,.5.052c.378.19.325,1.1.358,1.433l.215,2.138.854,8.5c.015.144.319.2.4.2a98.17,98.17,0,0,1,11.006,1.463c.075.966.131,1.932.16,2.9q.023.743.027,1.484v.649Z" transform="translate(-0.001 0.044)" fill="#bfbfbf"/>
    </g>
  </g>
</svg>
