<svg xmlns="http://www.w3.org/2000/svg" viewBox="0 0 223.59 194.23"><defs><style>.cls-1{fill:#3f4e6b;}</style></defs><g id="Layer_2" data-name="Layer 2"><g id="object"><path class="cls-1" d="M216.8,0H6.79A6.81,6.81,0,0,0,0,6.79V187.44a6.81,6.81,0,0,0,6.79,6.79h210a6.81,6.81,0,0,0,6.79-6.79V6.79A6.81,6.81,0,0,0,216.8,0ZM55.63,172.3a4.11,4.11,0,0,1-4.1,4.11H20.8a4.12,4.12,0,0,1-4.11-4.11V141.57a4.12,4.12,0,0,1,4.11-4.11H51.53a4.11,4.11,0,0,1,4.1,4.11Zm0-62a4.11,4.11,0,0,1-4.1,4.11H20.8a4.12,4.12,0,0,1-4.11-4.11V79.58a4.12,4.12,0,0,1,4.11-4.11H51.53a4.11,4.11,0,0,1,4.1,4.11Zm0-62.62a4.11,4.11,0,0,1-4.1,4.11H20.8a4.12,4.12,0,0,1-4.11-4.11V17a4.12,4.12,0,0,1,4.11-4.11H51.53A4.11,4.11,0,0,1,55.63,17ZM204.06,172.3a4.12,4.12,0,0,1-4.11,4.11H169.23a4.12,4.12,0,0,1-4.11-4.11V141.57a4.12,4.12,0,0,1,4.11-4.11H200a4.12,4.12,0,0,1,4.11,4.11Zm0-62a4.12,4.12,0,0,1-4.11,4.11H169.23a4.12,4.12,0,0,1-4.11-4.11V79.58a4.12,4.12,0,0,1,4.11-4.11H200a4.12,4.12,0,0,1,4.11,4.11Zm0-62.62A4.12,4.12,0,0,1,200,51.79H169.23a4.12,4.12,0,0,1-4.11-4.11V17a4.12,4.12,0,0,1,4.11-4.11H200A4.12,4.12,0,0,1,204.06,17Z"/></g></g></svg>